NotoAmalgamated-Regular.ufo
<glyph name="exclam.GGondi" format="2">
  <advance width="371"/>
  <unicode hex="0021"/>
  <outline>
    <contour>
      <point x="147" y="75" type="curve" smooth="yes"/>
      <point x="147" y="31"/>
      <point x="171" y="13"/>
      <point x="202" y="13" type="curve" smooth="yes"/>
      <point x="233" y="13"/>
      <point x="259" y="31"/>
      <point x="259" y="75" type="curve" smooth="yes"/>
      <point x="259" y="120"/>
      <point x="233" y="136"/>
      <point x="202" y="136" type="curve" smooth="yes"/>
      <point x="171" y="136"/>
      <point x="147" y="120"/>
    </contour>
    <contour>
      <point x="157" y="664" type="line"/>
      <point x="174" y="218" type="line"/>
      <point x="233" y="218" type="line"/>
      <point x="250" y="664" type="line"/>
    </contour>
  </outline>
</glyph>
<glyph name="exclam.MGondi" format="2">
  <advance width="268"/>
  <unicode hex="0021"/>
  <outline>
    <contour>
      <point x="72" y="54" type="curve" smooth="yes"/>
      <point x="72" y="6"/>
      <point x="99" y="-14"/>
      <point x="134" y="-14" type="curve" smooth="yes"/>
      <point x="167" y="-14"/>
      <point x="196" y="6"/>
      <point x="196" y="54" type="curve" smooth="yes"/>
      <point x="196" y="103"/>
      <point x="167" y="121"/>
      <point x="134" y="121" type="curve" smooth="yes"/>
      <point x="99" y="121"/>
      <point x="72" y="103"/>
    </contour>
    <contour>
      <point x="81" y="670" type="line"/>
      <point x="106" y="191" type="line"/>
      <point x="163" y="191" type="line"/>
      <point x="188" y="670" type="line"/>
    </contour>
  </outline>
</glyph>
<glyph name="exclam.guru" format="2">
  <advance width="315"/>
  <unicode hex="0021"/>
  <outline>
    <contour>
      <point x="133" y="195" type="line"/>
      <point x="181" y="195" type="line"/>
      <point x="208" y="714" type="line"/>
      <point x="104" y="714" type="line"/>
    </contour>
    <contour>
      <point x="157" y="-7" type="curve" smooth="yes"/>
      <point x="187" y="-7"/>
      <point x="212" y="8"/>
      <point x="212" y="54" type="curve" smooth="yes"/>
      <point x="212" y="100"/>
      <point x="187" y="114"/>
      <point x="157" y="114" type="curve" smooth="yes"/>
      <point x="128" y="114"/>
      <point x="103" y="100"/>
      <point x="103" y="54" type="curve" smooth="yes"/>
      <point x="103" y="8"/>
      <point x="128" y="-7"/>
    </contour>
  </outline>
</glyph>
<glyph name="exclam.mono" format="2">
  <advance width="600"/>
  <unicode hex="0021"/>
  <outline>
    <contour>
      <point x="262" y="202" type="line"/>
      <point x="339" y="202" type="line"/>
      <point x="355" y="714" type="line"/>
      <point x="246" y="714" type="line"/>
    </contour>
    <contour>
      <point x="300" y="-10" type="curve" smooth="yes"/>
      <point x="334" y="-10"/>
      <point x="362" y="10"/>
      <point x="362" y="58" type="curve" smooth="yes"/>
      <point x="362" y="108"/>
      <point x="334" y="126"/>
      <point x="300" y="126" type="curve" smooth="yes"/>
      <point x="265" y="126"/>
      <point x="238" y="108"/>
      <point x="238" y="58" type="curve" smooth="yes"/>
      <point x="238" y="10"/>
      <point x="265" y="-10"/>
    </contour>
  </outline>
</glyph>
<glyph name="exclam.orya" format="2">
  <advance width="303"/>
  <unicode hex="0021"/>
  <outline>
    <contour>
      <point x="123" y="201" type="line"/>
      <point x="171" y="201" type="line"/>
      <point x="198" y="657" type="line"/>
      <point x="95" y="657" type="line"/>
    </contour>
    <component base="period.orya" xOffset="-11" yOffset="-6"/>
  </outline>
</glyph>
<glyph name="exclam.serif" format="2">
  <advance width="332"/>
  <unicode hex="0021"/>
  <outline>
    <contour>
      <point x="139" y="201" type="line"/>
      <point x="193" y="201" type="line"/>
      <point x="224" y="714" type="line"/>
      <point x="108" y="714" type="line"/>
    </contour>
    <contour>
      <point x="166" y="-7" type="curve" smooth="yes"/>
      <point x="200" y="-7"/>
      <point x="229" y="10"/>
      <point x="229" y="61" type="curve" smooth="yes"/>
      <point x="229" y="113"/>
      <point x="200" y="129"/>
      <point x="166" y="129" type="curve" smooth="yes"/>
      <point x="131" y="129"/>
      <point x="103" y="113"/>
      <point x="103" y="61" type="curve" smooth="yes"/>
      <point x="103" y="10"/>
      <point x="131" y="-7"/>
    </contour>
  </outline>
</glyph>
<glyph name="quotedbl.guru" format="2">
  <advance width="401"/>
  <unicode hex="0022"/>
  <outline>
    <contour>
      <point x="86" y="464" type="line"/>
      <point x="131" y="464" type="line"/>
      <point x="159" y="714" type="line"/>
      <point x="58" y="714" type="line"/>
    </contour>
    <contour>
      <point x="271" y="464" type="line"/>
      <point x="316" y="464" type="line"/>
      <point x="344" y="714" type="line"/>
      <point x="243" y="714" type="line"/>
    </contour>
  </outline>
</glyph>
<glyph name="quotedbl.mono" format="2">
  <advance width="600"/>
  <unicode hex="0022"/>
  <outline>
    <contour>
      <point x="365" y="456" type="line"/>
      <point x="420" y="456" type="line"/>
      <point x="440" y="714" type="line"/>
      <point x="345" y="714" type="line"/>
    </contour>
    <contour>
      <point x="180" y="456" type="line"/>
      <point x="235" y="456" type="line"/>
      <point x="255" y="714" type="line"/>
      <point x="160" y="714" type="line"/>
    </contour>
  </outline>
</glyph>
<glyph name="numbersign.guru" format="2">
  <advance width="563"/>
  <unicode hex="0023"/>
  <outline>
    <contour>
      <point x="93" y="0" type="line"/>
      <point x="141" y="0" type="line"/>
      <point x="181" y="211" type="line"/>
      <point x="323" y="211" type="line"/>
      <point x="284" y="0" type="line"/>
      <point x="333" y="0" type="line"/>
      <point x="372" y="211" type="line"/>
      <point x="502" y="211" type="line"/>
      <point x="502" y="256" type="line"/>
      <point x="381" y="256" type="line"/>
      <point x="420" y="463" type="line"/>
      <point x="534" y="463" type="line"/>
      <point x="534" y="509" type="line"/>
      <point x="428" y="509" type="line"/>
      <point x="467" y="714" type="line"/>
      <point x="419" y="714" type="line"/>
      <point x="380" y="509" type="line"/>
      <point x="238" y="509" type="line"/>
      <point x="276" y="714" type="line"/>
      <point x="227" y="714" type="line"/>
      <point x="189" y="509" type="line"/>
      <point x="61" y="509" type="line"/>
      <point x="61" y="463" type="line"/>
      <point x="180" y="463" type="line"/>
      <point x="141" y="256" type="line"/>
      <point x="29" y="256" type="line"/>
      <point x="29" y="211" type="line"/>
      <point x="133" y="211" type="line"/>
    </contour>
    <contour>
      <point x="190" y="256" type="line"/>
      <point x="229" y="463" type="line"/>
      <point x="372" y="463" type="line"/>
      <point x="333" y="256" type="line"/>
    </contour>
  </outline>
</glyph>
<glyph name="numbersign.mono" format="2">
  <advance width="600"/>
  <unicode hex="0023"/>
  <outline>
    <contour>
      <point x="101" y="0" type="line"/>
      <point x="171" y="0" type="line"/>
      <point x="210" y="209" type="line"/>
      <point x="333" y="209" type="line"/>
      <point x="292" y="0" type="line"/>
      <point x="363" y="0" type="line"/>
      <point x="404" y="209" type="line"/>
      <point x="546" y="209" type="line"/>
      <point x="546" y="276" type="line"/>
      <point x="417" y="276" type="line"/>
      <point x="448" y="436" type="line"/>
      <point x="580" y="436" type="line"/>
      <point x="580" y="502" type="line"/>
      <point x="461" y="502" type="line"/>
      <point x="501" y="714" type="line"/>
      <point x="432" y="714" type="line"/>
      <point x="392" y="502" type="line"/>
      <point x="268" y="502" type="line"/>
      <point x="308" y="714" type="line"/>
      <point x="236" y="714" type="line"/>
      <point x="196" y="502" type="line"/>
      <point x="57" y="502" type="line"/>
      <point x="57" y="436" type="line"/>
      <point x="184" y="436" type="line"/>
      <point x="152" y="276" type="line"/>
      <point x="20" y="276" type="line"/>
      <point x="20" y="209" type="line"/>
      <point x="139" y="209" type="line"/>
    </contour>
    <contour>
      <point x="223" y="276" type="line"/>
      <point x="254" y="436" type="line"/>
      <point x="377" y="436" type="line"/>
      <point x="346" y="276" type="line"/>
    </contour>
  </outline>
</glyph>
<glyph name="numbersign.orya" format="2">
  <advance width="573"/>
  <unicode hex="0023"/>
  <outline>
    <contour>
      <point x="368" y="407" type="line"/>
      <point x="345" y="257" type="line"/>
      <point x="197" y="257" type="line"/>
      <point x="221" y="407" type="line"/>
    </contour>
    <contour>
      <point x="414" y="407" type="line"/>
      <point x="523" y="407" type="line"/>
      <point x="523" y="476" type="line"/>
      <point x="424" y="476" type="line"/>
      <point x="452" y="657" type="line"/>
      <point x="406" y="657" type="line"/>
      <point x="379" y="476" type="line"/>
      <point x="231" y="476" type="line"/>
      <point x="259" y="657" type="line"/>
      <point x="213" y="657" type="line"/>
      <point x="185" y="476" type="line"/>
      <point x="77" y="476" type="line"/>
      <point x="77" y="407" type="line"/>
      <point x="175" y="407" type="line"/>
      <point x="152" y="257" type="line"/>
      <point x="44" y="257" type="line"/>
      <point x="44" y="189" type="line"/>
      <point x="142" y="189" type="line"/>
      <point x="113" y="0" type="line"/>
      <point x="158" y="0" type="line"/>
      <point x="187" y="189" type="line"/>
      <point x="335" y="189" type="line"/>
      <point x="306" y="0" type="line"/>
      <point x="353" y="0" type="line"/>
      <point x="381" y="189" type="line"/>
      <point x="489" y="189" type="line"/>
      <point x="489" y="257" type="line"/>
      <point x="392" y="257" type="line"/>
    </contour>
  </outline>
</glyph>
<glyph name="dollar.mono" format="2">
  <advance width="600"/>
  <unicode hex="0024"/>
  <outline>
    <contour>
      <point x="263" y="34" type="curve"/>
      <point x="263" y="-58" type="line"/>
      <point x="327" y="-58" type="line"/>
      <point x="327" y="38" type="line"/>
      <point x="450" y="52"/>
      <point x="520" y="119"/>
      <point x="520" y="212" type="curve" smooth="yes"/>
      <point x="520" y="320"/>
      <point x="455" y="357"/>
      <point x="327" y="395" type="curve"/>
      <point x="327" y="611" type="line"/>
      <point x="376" y="607"/>
      <point x="423" y="593"/>
      <point x="466" y="576" type="curve"/>
      <point x="493" y="650" type="line"/>
      <point x="445" y="670"/>
      <point x="394" y="685"/>
      <point x="327" y="687" type="curve"/>
      <point x="327" y="759" type="line"/>
      <point x="263" y="759" type="line"/>
      <point x="263" y="686" type="line"/>
      <point x="151" y="678"/>
      <point x="80" y="615"/>
      <point x="80" y="515" type="curve" smooth="yes"/>
      <point x="80" y="413"/>
      <point x="142" y="367"/>
      <point x="263" y="328" type="curve"/>
      <point x="263" y="111" type="line"/>
      <point x="201" y="112"/>
      <point x="135" y="131"/>
      <point x="90" y="152" type="curve"/>
      <point x="90" y="67" type="line"/>
      <point x="133" y="47"/>
      <point x="196" y="35"/>
    </contour>
    <contour>
      <point x="327" y="116" type="curve"/>
      <point x="327" y="307" type="line"/>
      <point x="410" y="285"/>
      <point x="434" y="264"/>
      <point x="434" y="214" type="curve" smooth="yes"/>
      <point x="434" y="161"/>
      <point x="401" y="125"/>
    </contour>
    <contour>
      <point x="263" y="609" type="curve"/>
      <point x="263" y="417" type="line"/>
      <point x="189" y="437"/>
      <point x="166" y="464"/>
      <point x="166" y="515" type="curve" smooth="yes"/>
      <point x="166" y="567"/>
      <point x="196" y="603"/>
    </contour>
  </outline>
</glyph>
<glyph name="dollar.serif" format="2">
  <advance width="559"/>
  <unicode hex="0024"/>
  <outline>
    <contour>
      <point x="253" y="40" type="curve"/>
      <point x="253" y="-79" type="line"/>
      <point x="303" y="-79" type="line"/>
      <point x="303" y="42" type="line"/>
      <point x="422" y="54"/>
      <point x="489" y="110"/>
      <point x="489" y="210" type="curve" smooth="yes"/>
      <point x="489" y="305"/>
      <point x="423" y="352"/>
      <point x="303" y="405" type="curve"/>
      <point x="303" y="638" type="line"/>
      <point x="374" y="631"/>
      <point x="390" y="565"/>
      <point x="390" y="507" type="curve"/>
      <point x="438" y="507"/>
      <point x="469" y="529"/>
      <point x="469" y="572" type="curve" smooth="yes"/>
      <point x="469" y="634"/>
      <point x="423" y="681"/>
      <point x="303" y="684" type="curve"/>
      <point x="303" y="760" type="line"/>
      <point x="253" y="760" type="line"/>
      <point x="253" y="682" type="line"/>
      <point x="149" y="671"/>
      <point x="83" y="614"/>
      <point x="83" y="524" type="curve" smooth="yes"/>
      <point x="83" y="436"/>
      <point x="128" y="387"/>
      <point x="253" y="331" type="curve"/>
      <point x="253" y="84" type="line"/>
      <point x="166" y="84"/>
      <point x="141" y="160"/>
      <point x="128" y="243" type="curve"/>
      <point x="82" y="243"/>
      <point x="56" y="216"/>
      <point x="56" y="176" type="curve" smooth="yes"/>
      <point x="56" y="92"/>
      <point x="128" y="40"/>
    </contour>
    <contour>
      <point x="303" y="87" type="curve"/>
      <point x="303" y="309" type="line"/>
      <point x="372" y="278"/>
      <point x="397" y="248"/>
      <point x="397" y="195" type="curve" smooth="yes"/>
      <point x="397" y="138"/>
      <point x="363" y="97"/>
    </contour>
    <contour>
      <point x="253" y="636" type="curve"/>
      <point x="253" y="427" type="line"/>
      <point x="201" y="450"/>
      <point x="173" y="476"/>
      <point x="173" y="532" type="curve" smooth="yes"/>
      <point x="173" y="584"/>
      <point x="200" y="625"/>
    </contour>
  </outline>
</glyph>
<glyph name="percent.GGondi" format="2">
  <advance width="806"/>
  <unicode hex="0025"/>
  <outline>
    <contour>
      <point x="57" y="437" type="curve" smooth="yes"/>
      <point x="57" y="344"/>
      <point x="105" y="273"/>
      <point x="196" y="273" type="curve" smooth="yes"/>
      <point x="294" y="273"/>
      <point x="338" y="344"/>
      <point x="338" y="437" type="curve" smooth="yes"/>
      <point x="338" y="530"/>
      <point x="289" y="600"/>
      <point x="196" y="600" type="curve" smooth="yes"/>
      <point x="99" y="600"/>
      <point x="57" y="530"/>
    </contour>
    <contour>
      <point x="126" y="437" type="curve" smooth="yes"/>
      <point x="126" y="495"/>
      <point x="146" y="539"/>
      <point x="195" y="539" type="curve" smooth="yes"/>
      <point x="244" y="539"/>
      <point x="268" y="495"/>
      <point x="268" y="437" type="curve" smooth="yes"/>
      <point x="268" y="379"/>
      <point x="244" y="333"/>
      <point x="195" y="333" type="curve" smooth="yes"/>
      <point x="146" y="333"/>
      <point x="126" y="379"/>
    </contour>
    <contour>
      <point x="178" y="12" type="line"/>
      <point x="259" y="12" type="line"/>
      <point x="623" y="601" type="line"/>
      <point x="543" y="601" type="line"/>
    </contour>
    <contour>
      <point x="469" y="176" type="curve" smooth="yes"/>
      <point x="469" y="82"/>
      <point x="516" y="12"/>
      <point x="608" y="12" type="curve" smooth="yes"/>
      <point x="706" y="12"/>
      <point x="749" y="82"/>
      <point x="749" y="176" type="curve" smooth="yes"/>
      <point x="749" y="270"/>
      <point x="701" y="340"/>
      <point x="608" y="340" type="curve" smooth="yes"/>
      <point x="511" y="340"/>
      <point x="469" y="270"/>
    </contour>
    <contour>
      <point x="539" y="176" type="curve" smooth="yes"/>
      <point x="539" y="236"/>
      <point x="559" y="280"/>
      <point x="608" y="280" type="curve" smooth="yes"/>
      <point x="656" y="280"/>
      <point x="680" y="236"/>
      <point x="680" y="176" type="curve" smooth="yes"/>
      <point x="680" y="116"/>
      <point x="656" y="75"/>
      <point x="608" y="75" type="curve" smooth="yes"/>
      <point x="559" y="75"/>
      <point x="539" y="116"/>
    </contour>
  </outline>
</glyph>
<glyph name="percent.MGondi" format="2">
  <advance width="814"/>
  <unicode hex="0025"/>
  <outline>
    <contour>
      <point x="55" y="466" type="curve" smooth="yes"/>
      <point x="55" y="368"/>
      <point x="106" y="296"/>
      <point x="201" y="296" type="curve" smooth="yes"/>
      <point x="304" y="296"/>
      <point x="350" y="368"/>
      <point x="350" y="466" type="curve" smooth="yes"/>
      <point x="350" y="563"/>
      <point x="299" y="635"/>
      <point x="201" y="635" type="curve" smooth="yes"/>
      <point x="101" y="635"/>
      <point x="55" y="563"/>
    </contour>
    <contour>
      <point x="129" y="466" type="curve" smooth="yes"/>
      <point x="129" y="526"/>
      <point x="150" y="572"/>
      <point x="200" y="572" type="curve" smooth="yes"/>
      <point x="251" y="572"/>
      <point x="276" y="526"/>
      <point x="276" y="466" type="curve" smooth="yes"/>
      <point x="276" y="404"/>
      <point x="251" y="358"/>
      <point x="200" y="358" type="curve" smooth="yes"/>
      <point x="149" y="358"/>
      <point x="129" y="404"/>
    </contour>
    <contour>
      <point x="179" y="0" type="line"/>
      <point x="262" y="0" type="line"/>
      <point x="644" y="630" type="line"/>
      <point x="561" y="630" type="line"/>
    </contour>
    <contour>
      <point x="464" y="158" type="curve" smooth="yes"/>
      <point x="464" y="60"/>
      <point x="515" y="-12"/>
      <point x="610" y="-12" type="curve" smooth="yes"/>
      <point x="713" y="-12"/>
      <point x="759" y="60"/>
      <point x="759" y="158" type="curve" smooth="yes"/>
      <point x="759" y="255"/>
      <point x="708" y="327"/>
      <point x="610" y="327" type="curve" smooth="yes"/>
      <point x="510" y="327"/>
      <point x="464" y="255"/>
    </contour>
    <contour>
      <point x="538" y="158" type="curve" smooth="yes"/>
      <point x="538" y="218"/>
      <point x="559" y="264"/>
      <point x="609" y="264" type="curve" smooth="yes"/>
      <point x="660" y="264"/>
      <point x="685" y="218"/>
      <point x="685" y="158" type="curve" smooth="yes"/>
      <point x="685" y="96"/>
      <point x="660" y="50"/>
      <point x="609" y="50" type="curve" smooth="yes"/>
      <point x="558" y="50"/>
      <point x="538" y="96"/>
    </contour>
  </outline>
</glyph>
<glyph name="percent.guru" format="2">
  <advance width="896"/>
  <unicode hex="0025"/>
  <outline>
    <contour>
      <point x="209" y="280" type="curve" smooth="yes"/>
      <point x="324" y="280"/>
      <point x="372" y="370"/>
      <point x="372" y="503" type="curve" smooth="yes"/>
      <point x="372" y="638"/>
      <point x="319" y="724"/>
      <point x="210" y="724" type="curve" smooth="yes"/>
      <point x="94" y="724"/>
      <point x="46" y="637"/>
      <point x="46" y="503" type="curve" smooth="yes"/>
      <point x="46" y="367"/>
      <point x="93" y="280"/>
    </contour>
    <contour>
      <point x="235" y="0" type="line"/>
      <point x="289" y="0" type="line"/>
      <point x="657" y="714" type="line"/>
      <point x="603" y="714" type="line"/>
    </contour>
    <contour>
      <point x="208" y="318" type="curve" smooth="yes"/>
      <point x="142" y="318"/>
      <point x="114" y="385"/>
      <point x="114" y="503" type="curve" smooth="yes"/>
      <point x="114" y="610"/>
      <point x="139" y="686"/>
      <point x="209" y="686" type="curve" smooth="yes"/>
      <point x="275" y="686"/>
      <point x="303" y="622"/>
      <point x="303" y="503" type="curve" smooth="yes"/>
      <point x="303" y="393"/>
      <point x="279" y="318"/>
    </contour>
    <contour>
      <point x="687" y="-10" type="curve" smooth="yes"/>
      <point x="802" y="-10"/>
      <point x="850" y="80"/>
      <point x="850" y="213" type="curve" smooth="yes"/>
      <point x="850" y="348"/>
      <point x="797" y="434"/>
      <point x="688" y="434" type="curve" smooth="yes"/>
      <point x="572" y="434"/>
      <point x="524" y="347"/>
      <point x="524" y="213" type="curve" smooth="yes"/>
      <point x="524" y="77"/>
      <point x="571" y="-10"/>
    </contour>
    <contour>
      <point x="686" y="28" type="curve" smooth="yes"/>
      <point x="620" y="28"/>
      <point x="592" y="95"/>
      <point x="592" y="213" type="curve" smooth="yes"/>
      <point x="592" y="320"/>
      <point x="617" y="396"/>
      <point x="687" y="396" type="curve" smooth="yes"/>
      <point x="753" y="396"/>
      <point x="781" y="332"/>
      <point x="781" y="213" type="curve" smooth="yes"/>
      <point x="781" y="103"/>
      <point x="757" y="28"/>
    </contour>
  </outline>
</glyph>
<glyph name="percent.mono" format="2">
  <advance width="600"/>
  <unicode hex="0025"/>
  <outline>
    <contour>
      <point x="83" y="0" type="line"/>
      <point x="160" y="0" type="line"/>
      <point x="516" y="714" type="line"/>
      <point x="439" y="714" type="line"/>
    </contour>
    <contour>
      <point x="456" y="-9" type="curve" smooth="yes"/>
      <point x="544" y="-9"/>
      <point x="600" y="53"/>
      <point x="600" y="161" type="curve" smooth="yes"/>
      <point x="600" y="269"/>
      <point x="539" y="330"/>
      <point x="458" y="330" type="curve" smooth="yes"/>
      <point x="369" y="330"/>
      <point x="314" y="269"/>
      <point x="314" y="161" type="curve" smooth="yes"/>
      <point x="314" y="53"/>
      <point x="374" y="-9"/>
    </contour>
    <contour>
      <point x="457" y="49" type="curve" smooth="yes"/>
      <point x="411" y="49"/>
      <point x="388" y="84"/>
      <point x="388" y="161" type="curve" smooth="yes"/>
      <point x="388" y="239"/>
      <point x="411" y="271"/>
      <point x="457" y="271" type="curve" smooth="yes"/>
      <point x="502" y="271"/>
      <point x="525" y="239"/>
      <point x="525" y="161" type="curve" smooth="yes"/>
      <point x="525" y="84"/>
      <point x="502" y="49"/>
    </contour>
    <contour>
      <point x="142" y="383" type="curve" smooth="yes"/>
      <point x="230" y="383"/>
      <point x="286" y="445"/>
      <point x="286" y="553" type="curve" smooth="yes"/>
      <point x="286" y="661"/>
      <point x="225" y="722"/>
      <point x="144" y="722" type="curve" smooth="yes"/>
      <point x="55" y="722"/>
      <point x="0" y="661"/>
      <point x="0" y="553" type="curve" smooth="yes"/>
      <point x="0" y="445"/>
      <point x="60" y="383"/>
    </contour>
    <contour>
      <point x="143" y="441" type="curve" smooth="yes"/>
      <point x="97" y="441"/>
      <point x="74" y="476"/>
      <point x="74" y="553" type="curve" smooth="yes"/>
      <point x="74" y="631"/>
      <point x="97" y="663"/>
      <point x="143" y="663" type="curve" smooth="yes"/>
      <point x="188" y="663"/>
      <point x="211" y="631"/>
      <point x="211" y="553" type="curve" smooth="yes"/>
      <point x="211" y="476"/>
      <point x="188" y="441"/>
    </contour>
  </outline>
</glyph>
<glyph name="percent.orya" format="2">
  <advance width="831"/>
  <unicode hex="0025"/>
  <outline>
    <contour>
      <point x="179" y="0" type="line"/>
      <point x="252" y="0" type="line"/>
      <point x="652" y="657" type="line"/>
      <point x="579" y="657" type="line"/>
    </contour>
    <contour>
      <point x="45" y="477" type="curve" smooth="yes"/>
      <point x="45" y="373"/>
      <point x="113" y="295"/>
      <point x="202" y="295" type="curve" smooth="yes"/>
      <point x="294" y="295"/>
      <point x="365" y="377"/>
      <point x="365" y="485" type="curve" smooth="yes"/>
      <point x="365" y="587"/>
      <point x="298" y="665"/>
      <point x="208" y="665" type="curve" smooth="yes"/>
      <point x="117" y="665"/>
      <point x="45" y="583"/>
    </contour>
    <contour>
      <point x="112" y="502" type="curve" smooth="yes"/>
      <point x="112" y="565"/>
      <point x="147" y="608"/>
      <point x="190" y="608" type="curve" smooth="yes"/>
      <point x="248" y="608"/>
      <point x="297" y="540"/>
      <point x="297" y="461" type="curve" smooth="yes"/>
      <point x="297" y="396"/>
      <point x="265" y="351"/>
      <point x="219" y="351" type="curve" smooth="yes"/>
      <point x="162" y="351"/>
      <point x="112" y="420"/>
    </contour>
    <contour>
      <point x="475" y="172" type="curve" smooth="yes"/>
      <point x="475" y="68"/>
      <point x="543" y="-10"/>
      <point x="632" y="-10" type="curve" smooth="yes"/>
      <point x="724" y="-10"/>
      <point x="795" y="72"/>
      <point x="795" y="180" type="curve" smooth="yes"/>
      <point x="795" y="282"/>
      <point x="728" y="360"/>
      <point x="638" y="360" type="curve" smooth="yes"/>
      <point x="547" y="360"/>
      <point x="475" y="278"/>
    </contour>
    <contour>
      <point x="543" y="197" type="curve" smooth="yes"/>
      <point x="543" y="259"/>
      <point x="577" y="302"/>
      <point x="620" y="302" type="curve" smooth="yes"/>
      <point x="678" y="302"/>
      <point x="726" y="235"/>
      <point x="726" y="156" type="curve" smooth="yes"/>
      <point x="726" y="92"/>
      <point x="695" y="47"/>
      <point x="649" y="47" type="curve" smooth="yes"/>
      <point x="592" y="47"/>
      <point x="543" y="115"/>
    </contour>
  </outline>
</glyph>
<glyph name="ampersand.mono" format="2">
  <advance width="600"/>
  <unicode hex="0026"/>
  <outline>
    <contour>
      <point x="224" y="-10" type="curve" smooth="yes"/>
      <point x="397" y="-10"/>
      <point x="514" y="159"/>
      <point x="547" y="349" type="curve"/>
      <point x="464" y="349" type="line"/>
      <point x="445" y="230"/>
      <point x="357" y="67"/>
      <point x="234" y="67" type="curve" smooth="yes"/>
      <point x="166" y="67"/>
      <point x="125" y="117"/>
      <point x="125" y="181" type="curve" smooth="yes"/>
      <point x="125" y="262"/>
      <point x="189" y="313"/>
      <point x="248" y="359" type="curve" smooth="yes"/>
      <point x="318" y="414"/>
      <point x="399" y="479"/>
      <point x="399" y="580" type="curve" smooth="yes"/>
      <point x="399" y="665"/>
      <point x="342" y="725"/>
      <point x="249" y="725" type="curve" smooth="yes"/>
      <point x="156" y="725"/>
      <point x="99" y="666"/>
      <point x="99" y="578" type="curve" smooth="yes"/>
      <point x="99" y="497"/>
      <point x="147" y="422"/>
      <point x="192" y="364" type="curve" smooth="yes"/>
      <point x="474" y="0" type="line"/>
      <point x="581" y="0" type="line"/>
      <point x="244" y="420" type="line" smooth="yes"/>
      <point x="210" y="463"/>
      <point x="181" y="524"/>
      <point x="181" y="576" type="curve" smooth="yes"/>
      <point x="181" y="626"/>
      <point x="207" y="656"/>
      <point x="249" y="656" type="curve" smooth="yes"/>
      <point x="290" y="656"/>
      <point x="318" y="628"/>
      <point x="318" y="580" type="curve" smooth="yes"/>
      <point x="318" y="502"/>
      <point x="242" y="446"/>
      <point x="197" y="414" type="curve" smooth="yes"/>
      <point x="115" y="355"/>
      <point x="39" y="290"/>
      <point x="39" y="176" type="curve" smooth="yes"/>
      <point x="39" y="69"/>
      <point x="105" y="-10"/>
    </contour>
  </outline>
</glyph>
<glyph name="ampersand.serif" format="2">
  <advance width="742"/>
  <unicode hex="0026"/>
  <outline>
    <contour>
      <point x="274" y="-10" type="curve" smooth="yes"/>
      <point x="376" y="-10"/>
      <point x="442" y="33"/>
      <point x="490" y="88" type="curve"/>
      <point x="573" y="0" type="line"/>
      <point x="733" y="0" type="line"/>
      <point x="733" y="42" type="line"/>
      <point x="724" y="42" type="line" smooth="yes"/>
      <point x="670" y="42"/>
      <point x="650" y="47"/>
      <point x="631" y="67" type="curve" smooth="yes"/>
      <point x="538" y="166" type="line"/>
      <point x="561" y="216"/>
      <point x="575" y="268"/>
      <point x="587" y="311" type="curve" smooth="yes"/>
      <point x="604" y="372"/>
      <point x="647" y="379"/>
      <point x="692" y="379" type="curve" smooth="yes"/>
      <point x="701" y="379" type="line"/>
      <point x="701" y="421" type="line"/>
      <point x="521" y="421" type="line"/>
      <point x="521" y="382" type="line" smooth="yes"/>
      <point x="521" y="333"/>
      <point x="516" y="268"/>
      <point x="498" y="208" type="curve"/>
      <point x="316" y="401" type="line"/>
      <point x="438" y="453"/>
      <point x="485" y="496"/>
      <point x="485" y="582" type="curve" smooth="yes"/>
      <point x="485" y="659"/>
      <point x="436" y="724"/>
      <point x="308" y="724" type="curve" smooth="yes"/>
      <point x="175" y="724"/>
      <point x="119" y="665"/>
      <point x="119" y="577" type="curve" smooth="yes"/>
      <point x="119" y="512"/>
      <point x="145" y="465"/>
      <point x="196" y="405" type="curve"/>
      <point x="99" y="364"/>
      <point x="36" y="313"/>
      <point x="36" y="200" type="curve" smooth="yes"/>
      <point x="36" y="74"/>
      <point x="114" y="-10"/>
    </contour>
    <contour>
      <point x="283" y="46" type="curve"/>
      <point x="194" y="46"/>
      <point x="134" y="99"/>
      <point x="134" y="197" type="curve" smooth="yes"/>
      <point x="134" y="283"/>
      <point x="172" y="330"/>
      <point x="233" y="364" type="curve"/>
      <point x="454" y="127" type="line"/>
      <point x="416" y="80"/>
      <point x="362" y="46"/>
    </contour>
    <contour>
      <point x="282" y="439" type="curve"/>
      <point x="232" y="495"/>
      <point x="212" y="529"/>
      <point x="212" y="580" type="curve" smooth="yes"/>
      <point x="212" y="637"/>
      <point x="245" y="675"/>
      <point x="304" y="675" type="curve" smooth="yes"/>
      <point x="372" y="675"/>
      <point x="397" y="634"/>
      <point x="397" y="581" type="curve" smooth="yes"/>
      <point x="397" y="511"/>
      <point x="361" y="473"/>
    </contour>
  </outline>
</glyph>
<glyph name="quotesingle.GGondi" format="2">
  <advance width="314"/>
  <unicode hex="0027"/>
  <outline>
    <contour>
      <point x="116" y="695" type="line"/>
      <point x="138" y="465" type="line"/>
      <point x="191" y="465" type="line"/>
      <point x="213" y="695" type="line"/>
    </contour>
  </outline>
</glyph>
<glyph name="quotesingle.guru" format="2">
  <advance width="216"/>
  <unicode hex="0027"/>
  <outline>
    <contour>
      <point x="86" y="464" type="line"/>
      <point x="131" y="464" type="line"/>
      <point x="159" y="714" type="line"/>
      <point x="58" y="714" type="line"/>
    </contour>
  </outline>
</glyph>
<glyph name="quotesingle.orya" format="2">
  <advance width="251"/>
  <unicode hex="0027"/>
  <outline>
    <contour>
      <point x="95" y="847" type="curve" smooth="yes"/>
      <point x="65" y="847"/>
      <point x="48" y="830"/>
      <point x="48" y="789" type="curve" smooth="yes"/>
      <point x="48" y="748"/>
      <point x="63" y="653"/>
      <point x="68" y="609" type="curve" smooth="yes"/>
      <point x="79" y="521" type="line"/>
      <point x="111" y="521" type="line"/>
      <point x="122" y="609" type="line" smooth="yes"/>
      <point x="126" y="653"/>
      <point x="142" y="748"/>
      <point x="142" y="789" type="curve" smooth="yes"/>
      <point x="142" y="830"/>
      <point x="124" y="847"/>
    </contour>
  </outline>
</glyph>
<glyph name="parenleft.GGondi" format="2">
  <advance width="333"/>
  <unicode hex="0028"/>
  <outline>
    <contour>
      <point x="68" y="337" type="curve" smooth="yes"/>
      <point x="68" y="169"/>
      <point x="109" y="5"/>
      <point x="200" y="-120" type="curve"/>
      <point x="274" y="-120" type="line"/>
      <point x="189" y="12"/>
      <point x="145" y="175"/>
      <point x="145" y="336" type="curve" smooth="yes"/>
      <point x="145" y="500"/>
      <point x="191" y="659"/>
      <point x="273" y="787" type="curve"/>
      <point x="200" y="787" type="line"/>
      <point x="108" y="663"/>
      <point x="68" y="506"/>
    </contour>
  </outline>
</glyph>
<glyph name="parenleft.guru" format="2">
  <advance width="342"/>
  <unicode hex="0028"/>
  <outline>
    <contour>
      <point x="310" y="-127" type="curve"/>
      <point x="310" y="-82" type="line"/>
      <point x="174" y="-8"/>
      <point x="155" y="158"/>
      <point x="155" y="317" type="curve" smooth="yes"/>
      <point x="155" y="475"/>
      <point x="173" y="645"/>
      <point x="310" y="713" type="curve"/>
      <point x="310" y="759" type="line"/>
      <point x="129" y="688"/>
      <point x="57" y="558"/>
      <point x="57" y="317" type="curve" smooth="yes"/>
      <point x="57" y="75"/>
      <point x="129" y="-55"/>
    </contour>
  </outline>
</glyph>
<glyph name="parenleft.mono" format="2">
  <advance width="600"/>
  <unicode hex="0028"/>
  <outline>
    <contour>
      <point x="347" y="-158" type="curve"/>
      <point x="429" y="-158" type="line"/>
      <point x="337" y="-33"/>
      <point x="289" y="120"/>
      <point x="289" y="275" type="curve" smooth="yes"/>
      <point x="289" y="433"/>
      <point x="337" y="589"/>
      <point x="430" y="714" type="curve"/>
      <point x="347" y="714" type="line"/>
      <point x="246" y="593"/>
      <point x="200" y="437"/>
      <point x="200" y="274" type="curve" smooth="yes"/>
      <point x="200" y="113"/>
      <point x="246" y="-41"/>
    </contour>
  </outline>
</glyph>
<glyph name="parenleft.orya" format="2">
  <advance width="354"/>
  <unicode hex="0028"/>
  <outline>
    <contour>
      <point x="164" y="302" type="curve" smooth="yes"/>
      <point x="164" y="483"/>
      <point x="202" y="612"/>
      <point x="333" y="802" type="curve"/>
      <point x="312" y="820" type="line"/>
      <point x="159" y="669"/>
      <point x="87" y="502"/>
      <point x="87" y="302" type="curve" smooth="yes"/>
      <point x="87" y="102"/>
      <point x="159" y="-64"/>
      <point x="312" y="-215" type="curve"/>
      <point x="333" y="-198" type="line"/>
      <point x="203" y="-9"/>
      <point x="164" y="122"/>
    </contour>
  </outline>
</glyph>
<glyph name="parenright.GGondi" format="2">
  <advance width="333"/>
  <unicode hex="0029"/>
  <outline>
    <contour>
      <point x="59" y="787" type="line"/>
      <point x="144" y="654"/>
      <point x="187" y="492"/>
      <point x="187" y="330" type="curve" smooth="yes"/>
      <point x="187" y="169"/>
      <point x="142" y="8"/>
      <point x="60" y="-120" type="curve"/>
      <point x="134" y="-120" type="line"/>
      <point x="224" y="3"/>
      <point x="265" y="160"/>
      <point x="265" y="329" type="curve" smooth="yes"/>
      <point x="265" y="497"/>
      <point x="224" y="661"/>
      <point x="134" y="787" type="curve"/>
    </contour>
  </outline>
</glyph>
<glyph name="parenright.guru" format="2">
  <advance width="342"/>
  <unicode hex="0029"/>
  <outline>
    <contour>
      <point x="47" y="-127" type="line"/>
      <point x="228" y="-55"/>
      <point x="300" y="75"/>
      <point x="300" y="317" type="curve" smooth="yes"/>
      <point x="300" y="558"/>
      <point x="228" y="688"/>
      <point x="47" y="759" type="curve"/>
      <point x="47" y="713" type="line"/>
      <point x="185" y="645"/>
      <point x="203" y="475"/>
      <point x="203" y="317" type="curve" smooth="yes"/>
      <point x="203" y="158"/>
      <point x="183" y="-8"/>
      <point x="47" y="-82" type="curve"/>
    </contour>
  </outline>
</glyph>
<glyph name="parenright.serif" format="2">
  <advance width="346"/>
  <unicode hex="0029"/>
  <outline>
    <contour>
      <point x="32" y="-82" type="curve"/>
      <point x="32" y="-128" type="line"/>
      <point x="216" y="-55"/>
      <point x="289" y="76"/>
      <point x="289" y="317" type="curve" smooth="yes"/>
      <point x="289" y="557"/>
      <point x="216" y="687"/>
      <point x="32" y="760" type="curve"/>
      <point x="32" y="715" type="line"/>
      <point x="169" y="632"/>
      <point x="185" y="476"/>
      <point x="185" y="317" type="curve" smooth="yes"/>
      <point x="185" y="158"/>
      <point x="169" y="1"/>
    </contour>
  </outline>
</glyph>
<glyph name="asterisk.GGondi" format="2">
  <advance width="566"/>
  <unicode hex="002A"/>
  <outline>
    <contour>
      <point x="94" y="534" type="line"/>
      <point x="245" y="523" type="line"/>
      <point x="148" y="391" type="line"/>
      <point x="222" y="353" type="line"/>
      <point x="286" y="497" type="line"/>
      <point x="356" y="353" type="line"/>
      <point x="428" y="391" type="line"/>
      <point x="329" y="523" type="line"/>
      <point x="482" y="534" type="line"/>
      <point x="471" y="612" type="line"/>
      <point x="311" y="567" type="line"/>
      <point x="328" y="725" type="line"/>
      <point x="246" y="725" type="line"/>
      <point x="263" y="567" type="line"/>
      <point x="106" y="612" type="line"/>
    </contour>
  </outline>
</glyph>
<glyph name="asterisk.MGondi" format="2">
  <advance width="530"/>
  <unicode hex="002A"/>
  <outline>
    <contour>
      <point x="41" y="521" type="line"/>
      <point x="215" y="507" type="line"/>
      <point x="103" y="355" type="line"/>
      <point x="189" y="310" type="line"/>
      <point x="262" y="478" type="line"/>
      <point x="344" y="310" type="line"/>
      <point x="426" y="355" type="line"/>
      <point x="312" y="507" type="line"/>
      <point x="489" y="521" type="line"/>
      <point x="475" y="609" type="line"/>
      <point x="291" y="557" type="line"/>
      <point x="310" y="741" type="line"/>
      <point x="216" y="741" type="line"/>
      <point x="237" y="557" type="line"/>
      <point x="54" y="609" type="line"/>
    </contour>
  </outline>
</glyph>
<glyph name="asterisk.guru" format="2">
  <advance width="453"/>
  <unicode hex="002A"/>
  <outline>
    <contour>
      <point x="188" y="367" type="line"/>
      <point x="266" y="367" type="line"/>
      <point x="242" y="538" type="line"/>
      <point x="381" y="443" type="line"/>
      <point x="412" y="511" type="line"/>
      <point x="260" y="565" type="line"/>
      <point x="412" y="616" type="line"/>
      <point x="381" y="687" type="line"/>
      <point x="242" y="590" type="line"/>
      <point x="266" y="760" type="line"/>
      <point x="188" y="760" type="line"/>
      <point x="212" y="589" type="line"/>
      <point x="73" y="689" type="line"/>
      <point x="41" y="617" type="line"/>
      <point x="194" y="565" type="line"/>
      <point x="41" y="510" type="line"/>
      <point x="73" y="441" type="line"/>
      <point x="211" y="539" type="line"/>
    </contour>
  </outline>
</glyph>
<glyph name="asterisk.mono" format="2">
  <advance width="600"/>
  <unicode hex="002A"/>
  <outline>
    <contour>
      <point x="381" y="334" type="line"/>
      <point x="458" y="381" type="line"/>
      <point x="352" y="514" type="line"/>
      <point x="513" y="534" type="line"/>
      <point x="498" y="616" type="line"/>
      <point x="327" y="569" type="line"/>
      <point x="339" y="746" type="line"/>
      <point x="260" y="746" type="line"/>
      <point x="274" y="569" type="line"/>
      <point x="104" y="612" type="line"/>
      <point x="90" y="537" type="line"/>
      <point x="252" y="516" type="line"/>
      <point x="146" y="382" type="line"/>
      <point x="220" y="335" type="line"/>
      <point x="300" y="489" type="line"/>
    </contour>
  </outline>
</glyph>
<glyph name="asterisk.orya" format="2">
  <advance width="537"/>
  <unicode hex="002A"/>
  <outline>
    <contour>
      <point x="257" y="787" type="curve" smooth="yes"/>
      <point x="238" y="787"/>
      <point x="224" y="777"/>
      <point x="224" y="752" type="curve" smooth="yes"/>
      <point x="224" y="731"/>
      <point x="230" y="686"/>
      <point x="238" y="635" type="curve" smooth="yes"/>
      <point x="245" y="576" type="line"/>
      <point x="193" y="602" type="line" smooth="yes"/>
      <point x="135" y="629"/>
      <point x="94" y="654"/>
      <point x="71" y="654" type="curve" smooth="yes"/>
      <point x="52" y="654"/>
      <point x="40" y="638"/>
      <point x="40" y="620" type="curve" smooth="yes"/>
      <point x="40" y="584"/>
      <point x="87" y="582"/>
      <point x="181" y="564" type="curve" smooth="yes"/>
      <point x="239" y="555" type="line"/>
      <point x="197" y="512" type="line" smooth="yes"/>
      <point x="147" y="458"/>
      <point x="109" y="430"/>
      <point x="109" y="401" type="curve" smooth="yes"/>
      <point x="109" y="382"/>
      <point x="125" y="370"/>
      <point x="141" y="370" type="curve" smooth="yes"/>
      <point x="172" y="370"/>
      <point x="191" y="418"/>
      <point x="230" y="489" type="curve" smooth="yes"/>
      <point x="257" y="542" type="line"/>
      <point x="284" y="489" type="line" smooth="yes"/>
      <point x="325" y="415"/>
      <point x="342" y="370"/>
      <point x="374" y="370" type="curve" smooth="yes"/>
      <point x="390" y="370"/>
      <point x="405" y="383"/>
      <point x="405" y="401" type="curve" smooth="yes"/>
      <point x="405" y="429"/>
      <point x="366" y="459"/>
      <point x="317" y="512" type="curve" smooth="yes"/>
      <point x="276" y="556" type="line"/>
      <point x="333" y="566" type="line" smooth="yes"/>
      <point x="427" y="582"/>
      <point x="475" y="583"/>
      <point x="475" y="620" type="curve" smooth="yes"/>
      <point x="475" y="638"/>
      <point x="462" y="654"/>
      <point x="443" y="654" type="curve" smooth="yes"/>
      <point x="421" y="654"/>
      <point x="378" y="629"/>
      <point x="321" y="602" type="curve" smooth="yes"/>
      <point x="268" y="577" type="line"/>
      <point x="277" y="635" type="line" smooth="yes"/>
      <point x="282" y="686"/>
      <point x="291" y="732"/>
      <point x="291" y="752" type="curve" smooth="yes"/>
      <point x="291" y="777"/>
      <point x="276" y="787"/>
    </contour>
  </outline>
</glyph>
<glyph name="plus.GGondi" format="2">
  <advance width="551"/>
  <unicode hex="002B"/>
  <outline>
    <contour>
      <point x="50" y="266" type="line"/>
      <point x="237" y="266" type="line"/>
      <point x="237" y="77" type="line"/>
      <point x="314" y="77" type="line"/>
      <point x="314" y="266" type="line"/>
      <point x="501" y="266" type="line"/>
      <point x="501" y="339" type="line"/>
      <point x="314" y="339" type="line"/>
      <point x="314" y="528" type="line"/>
      <point x="237" y="528" type="line"/>
      <point x="237" y="339" type="line"/>
      <point x="50" y="339" type="line"/>
    </contour>
  </outline>
</glyph>
<glyph name="plus.guru" format="2">
  <advance width="563"/>
  <unicode hex="002B"/>
  <outline>
    <contour>
      <point x="257" y="140" type="line"/>
      <point x="305" y="140" type="line"/>
      <point x="305" y="333" type="line"/>
      <point x="500" y="333" type="line"/>
      <point x="500" y="381" type="line"/>
      <point x="305" y="381" type="line"/>
      <point x="305" y="575" type="line"/>
      <point x="257" y="575" type="line"/>
      <point x="257" y="381" type="line"/>
      <point x="63" y="381" type="line"/>
      <point x="63" y="333" type="line"/>
      <point x="257" y="333" type="line"/>
    </contour>
  </outline>
</glyph>
<glyph name="plus.mono" format="2">
  <advance width="600"/>
  <unicode hex="002B"/>
  <outline>
    <contour>
      <point x="265" y="121" type="line"/>
      <point x="337" y="121" type="line"/>
      <point x="337" y="317" type="line"/>
      <point x="520" y="317" type="line"/>
      <point x="520" y="388" type="line"/>
      <point x="337" y="388" type="line"/>
      <point x="337" y="585" type="line"/>
      <point x="265" y="585" type="line"/>
      <point x="265" y="388" type="line"/>
      <point x="80" y="388" type="line"/>
      <point x="80" y="317" type="line"/>
      <point x="265" y="317" type="line"/>
    </contour>
  </outline>
</glyph>
<glyph name="plus.orya" format="2">
  <advance width="572"/>
  <unicode hex="002B"/>
  <outline>
    <contour>
      <point x="50" y="297" type="line"/>
      <point x="251" y="297" type="line"/>
      <point x="251" y="89" type="line"/>
      <point x="319" y="89" type="line"/>
      <point x="319" y="297" type="line"/>
      <point x="520" y="297" type="line"/>
      <point x="520" y="364" type="line"/>
      <point x="319" y="364" type="line"/>
      <point x="319" y="573" type="line"/>
      <point x="251" y="573" type="line"/>
      <point x="251" y="364" type="line"/>
      <point x="50" y="364" type="line"/>
    </contour>
  </outline>
</glyph>
<glyph name="comma.GGondi" format="2">
  <advance width="244"/>
  <unicode hex="002C"/>
  <outline>
    <contour>
      <point x="36" y="-95" type="curve"/>
      <point x="96" y="-95" type="line"/>
      <point x="125" y="-30"/>
      <point x="155" y="50"/>
      <point x="170" y="114" type="curve"/>
      <point x="164" y="124" type="line"/>
      <point x="80" y="124" type="line"/>
      <point x="70" y="62"/>
      <point x="54" y="-24"/>
    </contour>
  </outline>
</glyph>
<glyph name="comma.guru" format="2">
  <advance width="246"/>
  <unicode hex="002C"/>
  <outline>
    <contour>
      <point x="40" y="-154" type="line"/>
      <point x="144" y="-124"/>
      <point x="183" y="-57"/>
      <point x="183" y="17" type="curve" smooth="yes"/>
      <point x="183" y="79"/>
      <point x="157" y="111"/>
      <point x="114" y="111" type="curve" smooth="yes"/>
      <point x="85" y="111"/>
      <point x="65" y="93"/>
      <point x="65" y="62" type="curve" smooth="yes"/>
      <point x="65" y="10"/>
      <point x="122" y="7"/>
      <point x="122" y="-28" type="curve" smooth="yes"/>
      <point x="122" y="-61"/>
      <point x="97" y="-99"/>
      <point x="40" y="-117" type="curve"/>
    </contour>
  </outline>
</glyph>
<glyph name="comma.mono" format="2">
  <advance width="600"/>
  <unicode hex="002C"/>
  <outline>
    <contour>
      <point x="211" y="-140" type="curve"/>
      <point x="285" y="-140" type="line"/>
      <point x="321" y="-60"/>
      <point x="360" y="39"/>
      <point x="380" y="117" type="curve"/>
      <point x="372" y="129" type="line"/>
      <point x="265" y="129" type="line"/>
      <point x="254" y="53"/>
      <point x="232" y="-53"/>
    </contour>
  </outline>
</glyph>
<glyph name="comma.orya" format="2">
  <advance width="278"/>
  <unicode hex="002C"/>
  <outline>
    <contour>
      <point x="67" y="47" type="curve"/>
      <point x="114" y="15"/>
      <point x="145" y="-9"/>
      <point x="145" y="-23" type="curve" smooth="yes"/>
      <point x="145" y="-38"/>
      <point x="96" y="-111"/>
      <point x="59" y="-155" type="curve"/>
      <point x="82" y="-176" type="line"/>
      <point x="154" y="-106"/>
      <point x="208" y="-28"/>
      <point x="208" y="30" type="curve" smooth="yes"/>
      <point x="208" y="76"/>
      <point x="172" y="120"/>
      <point x="132" y="120" type="curve" smooth="yes"/>
      <point x="100" y="120"/>
      <point x="78" y="90"/>
    </contour>
  </outline>
</glyph>
<glyph name="comma.serif" format="2">
  <advance width="250"/>
  <unicode hex="002C"/>
  <outline>
    <contour>
      <point x="30" y="-112" type="curve"/>
      <point x="30" y="-154" type="line"/>
      <point x="149" y="-119"/>
      <point x="194" y="-43"/>
      <point x="194" y="42" type="curve" smooth="yes"/>
      <point x="194" y="98"/>
      <point x="158" y="129"/>
      <point x="117" y="129" type="curve" smooth="yes"/>
      <point x="80" y="129"/>
      <point x="52" y="108"/>
      <point x="52" y="70" type="curve" smooth="yes"/>
      <point x="52" y="9"/>
      <point x="125" y="18"/>
      <point x="125" y="-22" type="curve"/>
      <point x="125" y="-61"/>
      <point x="95" y="-91"/>
    </contour>
  </outline>
</glyph>
<glyph name="hyphen.GGondi" format="2">
  <advance width="340"/>
  <unicode hex="002D"/>
  <outline>
    <contour>
      <point x="50" y="266" type="line"/>
      <point x="290" y="266" type="line"/>
      <point x="290" y="334" type="line"/>
      <point x="50" y="334" type="line"/>
    </contour>
  </outline>
</glyph>
<glyph name="hyphen.guru" format="2">
  <advance width="310"/>
  <unicode hex="002D"/>
  <outline>
    <contour>
      <point x="25" y="239" type="line"/>
      <point x="285" y="239" type="line"/>
      <point x="285" y="306" type="line"/>
      <point x="25" y="306" type="line"/>
    </contour>
  </outline>
</glyph>
<glyph name="hyphen.mono" format="2">
  <advance width="600"/>
  <unicode hex="002D"/>
  <outline>
    <contour>
      <point x="150" y="230" type="line"/>
      <point x="450" y="230" type="line"/>
      <point x="450" y="310" type="line"/>
      <point x="150" y="310" type="line"/>
    </contour>
  </outline>
</glyph>
<glyph name="hyphen.orya" format="2">
  <advance width="338"/>
  <unicode hex="002D"/>
  <outline>
    <contour>
      <point x="43" y="243" type="line"/>
      <point x="295" y="243" type="line"/>
      <point x="295" y="301" type="line"/>
      <point x="43" y="301" type="line"/>
    </contour>
  </outline>
</glyph>
<glyph name="period.GGondi" format="2">
  <advance width="228"/>
  <unicode hex="002E"/>
  <outline>
    <contour>
      <point x="58" y="75" type="curve" smooth="yes"/>
      <point x="58" y="31"/>
      <point x="82" y="13"/>
      <point x="113" y="13" type="curve" smooth="yes"/>
      <point x="144" y="13"/>
      <point x="170" y="31"/>
      <point x="170" y="75" type="curve" smooth="yes"/>
      <point x="170" y="120"/>
      <point x="144" y="136"/>
      <point x="113" y="136" type="curve" smooth="yes"/>
      <point x="82" y="136"/>
      <point x="58" y="120"/>
    </contour>
  </outline>
</glyph>
<glyph name="period.guru" format="2">
  <advance width="246"/>
  <unicode hex="002E"/>
  <outline>
    <contour>
      <point x="123" y="-7" type="curve" smooth="yes"/>
      <point x="153" y="-7"/>
      <point x="179" y="8"/>
      <point x="179" y="53" type="curve" smooth="yes"/>
      <point x="179" y="98"/>
      <point x="153" y="111"/>
      <point x="123" y="111" type="curve" smooth="yes"/>
      <point x="93" y="111"/>
      <point x="68" y="98"/>
      <point x="68" y="53" type="curve" smooth="yes"/>
      <point x="68" y="8"/>
      <point x="93" y="-7"/>
    </contour>
  </outline>
</glyph>
<glyph name="period.orya" format="2">
  <advance width="319"/>
  <unicode hex="002E"/>
  <outline>
    <contour>
      <point x="93" y="54" type="curve" smooth="yes"/>
      <point x="93" y="18"/>
      <point x="120" y="-10"/>
      <point x="156" y="-10" type="curve" smooth="yes"/>
      <point x="192" y="-10"/>
      <point x="219" y="18"/>
      <point x="219" y="54" type="curve" smooth="yes"/>
      <point x="219" y="89"/>
      <point x="191" y="120"/>
      <point x="156" y="120" type="curve" smooth="yes"/>
      <point x="121" y="120"/>
      <point x="93" y="89"/>
    </contour>
  </outline>
</glyph>
<glyph name="period.serif" format="2">
  <advance width="250"/>
  <unicode hex="002E"/>
  <outline>
    <contour>
      <point x="125" y="-7" type="curve" smooth="yes"/>
      <point x="159" y="-7"/>
      <point x="188" y="10"/>
      <point x="188" y="61" type="curve" smooth="yes"/>
      <point x="188" y="113"/>
      <point x="159" y="129"/>
      <point x="125" y="129" type="curve" smooth="yes"/>
      <point x="90" y="129"/>
      <point x="62" y="113"/>
      <point x="62" y="61" type="curve" smooth="yes"/>
      <point x="62" y="10"/>
      <point x="90" y="-7"/>
    </contour>
  </outline>
</glyph>
<glyph name="slash.GGondi" format="2">
  <advance width="397"/>
  <unicode hex="002F"/>
  <outline>
    <contour>
      <point x="42" y="-121" type="line"/>
      <point x="117" y="-121" type="line"/>
      <point x="355" y="788" type="line"/>
      <point x="281" y="788" type="line"/>
    </contour>
  </outline>
</glyph>
<glyph name="slash.guru" format="2">
  <advance width="288"/>
  <unicode hex="002F"/>
  <outline>
    <contour>
      <point x="0" y="-121" type="line"/>
      <point x="50" y="-121" type="line"/>
      <point x="288" y="760" type="line"/>
      <point x="239" y="760" type="line"/>
    </contour>
  </outline>
</glyph>
<glyph name="slash.mono" format="2">
  <advance width="600"/>
  <unicode hex="002F"/>
  <outline>
    <contour>
      <point x="120" y="0" type="line"/>
      <point x="206" y="0" type="line"/>
      <point x="480" y="714" type="line"/>
      <point x="394" y="714" type="line"/>
    </contour>
  </outline>
</glyph>
<glyph name="slash.orya" format="2">
  <advance width="424"/>
  <unicode hex="002F"/>
  <outline>
    <contour>
      <point x="293" y="772" type="line"/>
      <point x="3" y="-174" type="line"/>
      <point x="59" y="-174" type="line"/>
      <point x="350" y="772" type="line"/>
    </contour>
  </outline>
</glyph>
<glyph name="zero.guru" format="2">
  <advance width="563"/>
  <unicode hex="0030"/>
  <outline>
    <contour>
      <point x="282" y="-10" type="curve" smooth="yes"/>
      <point x="445" y="-10"/>
      <point x="515" y="122"/>
      <point x="515" y="358" type="curve" smooth="yes"/>
      <point x="515" y="597"/>
      <point x="444" y="724"/>
      <point x="283" y="724" type="curve" smooth="yes"/>
      <point x="112" y="724"/>
      <point x="48" y="594"/>
      <point x="48" y="359" type="curve" smooth="yes"/>
      <point x="48" y="117"/>
      <point x="113" y="-10"/>
    </contour>
    <contour>
      <point x="281" y="34" type="curve" smooth="yes"/>
      <point x="178" y="34"/>
      <point x="141" y="141"/>
      <point x="141" y="358" type="curve" smooth="yes"/>
      <point x="141" y="564"/>
      <point x="172" y="680"/>
      <point x="282" y="680" type="curve" smooth="yes"/>
      <point x="389" y="680"/>
      <point x="422" y="569"/>
      <point x="422" y="358" type="curve" smooth="yes"/>
      <point x="422" y="146"/>
      <point x="385" y="34"/>
    </contour>
  </outline>
</glyph>
<glyph name="zero.mono" format="2">
  <advance width="600"/>
  <unicode hex="0030"/>
  <outline>
    <contour>
      <point x="299" y="-10" type="curve" smooth="yes"/>
      <point x="472" y="-10"/>
      <point x="540" y="127"/>
      <point x="540" y="358" type="curve" smooth="yes"/>
      <point x="540" y="590"/>
      <point x="467" y="724"/>
      <point x="299" y="724" type="curve" smooth="yes"/>
      <point x="127" y="724"/>
      <point x="60" y="589"/>
      <point x="60" y="358" type="curve" smooth="yes"/>
      <point x="60" y="127"/>
      <point x="132" y="-10"/>
    </contour>
    <contour>
      <point x="185" y="100" type="line"/>
      <point x="458" y="560" type="line"/>
      <point x="406" y="626" type="line"/>
      <point x="126" y="152" type="line"/>
    </contour>
    <contour>
      <point x="299" y="69" type="curve" smooth="yes"/>
      <point x="187" y="69"/>
      <point x="144" y="172"/>
      <point x="144" y="358" type="curve" smooth="yes"/>
      <point x="144" y="553"/>
      <point x="191" y="645"/>
      <point x="299" y="645" type="curve" smooth="yes"/>
      <point x="409" y="645"/>
      <point x="459" y="547"/>
      <point x="459" y="358" type="curve" smooth="yes"/>
      <point x="459" y="161"/>
      <point x="408" y="69"/>
    </contour>
  </outline>
</glyph>
<glyph name="zero.orya" format="2">
  <advance width="521"/>
  <unicode hex="0030"/>
  <outline>
    <contour>
      <point x="261" y="-10" type="curve" smooth="yes"/>
      <point x="411" y="-10"/>
      <point x="476" y="112"/>
      <point x="476" y="329" type="curve" smooth="yes"/>
      <point x="476" y="550"/>
      <point x="410" y="667"/>
      <point x="262" y="667" type="curve" smooth="yes"/>
      <point x="104" y="667"/>
      <point x="45" y="547"/>
      <point x="45" y="330" type="curve" smooth="yes"/>
      <point x="45" y="107"/>
      <point x="105" y="-10"/>
    </contour>
    <contour>
      <point x="260" y="31" type="curve" smooth="yes"/>
      <point x="165" y="31"/>
      <point x="131" y="129"/>
      <point x="131" y="329" type="curve" smooth="yes"/>
      <point x="131" y="519"/>
      <point x="159" y="626"/>
      <point x="261" y="626" type="curve" smooth="yes"/>
      <point x="359" y="626"/>
      <point x="390" y="524"/>
      <point x="390" y="329" type="curve" smooth="yes"/>
      <point x="390" y="134"/>
      <point x="356" y="31"/>
    </contour>
  </outline>
</glyph>
<glyph name="one.guru" format="2">
  <advance width="563"/>
  <unicode hex="0031"/>
  <outline>
    <contour>
      <point x="109" y="0" type="line"/>
      <point x="492" y="0" type="line"/>
      <point x="492" y="38" type="line"/>
      <point x="402" y="38" type="line" smooth="yes"/>
      <point x="357" y="38"/>
      <point x="349" y="56"/>
      <point x="349" y="113" type="curve" smooth="yes"/>
      <point x="349" y="718" type="line"/>
      <point x="279" y="718" type="line"/>
      <point x="227" y="671" type="line" smooth="yes"/>
      <point x="166" y="615"/>
      <point x="122" y="589"/>
      <point x="65" y="582" type="curve"/>
      <point x="65" y="554"/>
      <point x="81" y="535"/>
      <point x="109" y="535" type="curve" smooth="yes"/>
      <point x="153" y="535"/>
      <point x="199" y="570"/>
      <point x="259" y="647" type="curve"/>
      <point x="259" y="113" type="line" smooth="yes"/>
      <point x="259" y="51"/>
      <point x="250" y="38"/>
      <point x="207" y="38" type="curve" smooth="yes"/>
      <point x="109" y="38" type="line"/>
    </contour>
  </outline>
</glyph>
<glyph name="one.mono" format="2">
  <advance width="600"/>
  <unicode hex="0031"/>
  <outline>
    <contour>
      <point x="283" y="446" type="curve" smooth="yes"/>
      <point x="283" y="0" type="line"/>
      <point x="369" y="0" type="line"/>
      <point x="369" y="714" type="line"/>
      <point x="296" y="714" type="line"/>
      <point x="97" y="613" type="line"/>
      <point x="136" y="545" type="line"/>
      <point x="219" y="588" type="line" smooth="yes"/>
      <point x="253" y="605"/>
      <point x="265" y="610"/>
      <point x="287" y="622" type="curve"/>
      <point x="285" y="578"/>
      <point x="283" y="502"/>
    </contour>
    <contour>
      <point x="133" y="0" type="line"/>
      <point x="520" y="0" type="line"/>
      <point x="520" y="60" type="line"/>
      <point x="369" y="70" type="line"/>
      <point x="283" y="70" type="line"/>
      <point x="133" y="60" type="line"/>
    </contour>
  </outline>
</glyph>
<glyph name="one.orya" format="2">
  <advance width="539"/>
  <unicode hex="0031"/>
  <outline>
    <contour>
      <point x="106" y="0" type="line"/>
      <point x="457" y="0" type="line"/>
      <point x="457" y="35" type="line"/>
      <point x="374" y="35" type="line" smooth="yes"/>
      <point x="333" y="35"/>
      <point x="326" y="51"/>
      <point x="326" y="103" type="curve" smooth="yes"/>
      <point x="326" y="657" type="line"/>
      <point x="262" y="657" type="line"/>
      <point x="214" y="614" type="line" smooth="yes"/>
      <point x="158" y="563"/>
      <point x="118" y="539"/>
      <point x="66" y="533" type="curve"/>
      <point x="66" y="507"/>
      <point x="81" y="490"/>
      <point x="106" y="490" type="curve" smooth="yes"/>
      <point x="147" y="490"/>
      <point x="189" y="522"/>
      <point x="244" y="592" type="curve"/>
      <point x="244" y="103" type="line" smooth="yes"/>
      <point x="244" y="47"/>
      <point x="235" y="35"/>
      <point x="196" y="35" type="curve" smooth="yes"/>
      <point x="106" y="35" type="line"/>
    </contour>
  </outline>
</glyph>
<glyph name="two.guru" format="2">
  <advance width="563"/>
  <unicode hex="0032"/>
  <outline>
    <contour>
      <point x="47" y="0" type="line"/>
      <point x="494" y="0" type="line"/>
      <point x="499" y="171" type="line"/>
      <point x="459" y="171" type="line"/>
      <point x="453" y="136" type="line" smooth="yes"/>
      <point x="444" y="83"/>
      <point x="426" y="68"/>
      <point x="384" y="68" type="curve" smooth="yes"/>
      <point x="119" y="68" type="line"/>
      <point x="251" y="213" type="line"/>
      <point x="429" y="377"/>
      <point x="472" y="439"/>
      <point x="472" y="544" type="curve" smooth="yes"/>
      <point x="472" y="642"/>
      <point x="406" y="724"/>
      <point x="258" y="724" type="curve" smooth="yes"/>
      <point x="122" y="724"/>
      <point x="59" y="648"/>
      <point x="59" y="592" type="curve" smooth="yes"/>
      <point x="59" y="545"/>
      <point x="93" y="528"/>
      <point x="132" y="528" type="curve"/>
      <point x="132" y="635"/>
      <point x="179" y="682"/>
      <point x="258" y="682" type="curve" smooth="yes"/>
      <point x="345" y="682"/>
      <point x="380" y="620"/>
      <point x="380" y="543" type="curve" smooth="yes"/>
      <point x="380" y="443"/>
      <point x="347" y="391"/>
      <point x="228" y="259" type="curve" smooth="yes"/>
      <point x="47" y="59" type="line"/>
    </contour>
  </outline>
</glyph>
<glyph name="two.mono" format="2">
  <advance width="600"/>
  <unicode hex="0032"/>
  <outline>
    <contour>
      <point x="70" y="0" type="line"/>
      <point x="545" y="0" type="line"/>
      <point x="545" y="80" type="line"/>
      <point x="191" y="80" type="line"/>
      <point x="191" y="84" type="line"/>
      <point x="344" y="233" type="line" smooth="yes"/>
      <point x="446" y="332"/>
      <point x="507" y="419"/>
      <point x="507" y="527" type="curve" smooth="yes"/>
      <point x="507" y="654"/>
      <point x="424" y="724"/>
      <point x="296" y="724" type="curve" smooth="yes"/>
      <point x="203" y="724"/>
      <point x="131" y="687"/>
      <point x="77" y="640" type="curve"/>
      <point x="127" y="578" type="line"/>
      <point x="175" y="617"/>
      <point x="230" y="645"/>
      <point x="293" y="645" type="curve" smooth="yes"/>
      <point x="365" y="645"/>
      <point x="417" y="609"/>
      <point x="417" y="524" type="curve" smooth="yes"/>
      <point x="417" y="434"/>
      <point x="359" y="361"/>
      <point x="260" y="263" type="curve" smooth="yes"/>
      <point x="70" y="76" type="line"/>
    </contour>
  </outline>
</glyph>
<glyph name="two.orya" format="2">
  <advance width="539"/>
  <unicode hex="0032"/>
  <outline>
    <contour>
      <point x="60" y="0" type="line"/>
      <point x="472" y="0" type="line"/>
      <point x="477" y="158" type="line"/>
      <point x="440" y="158" type="line"/>
      <point x="434" y="125" type="line" smooth="yes"/>
      <point x="426" y="77"/>
      <point x="409" y="63"/>
      <point x="371" y="63" type="curve" smooth="yes"/>
      <point x="126" y="63" type="line"/>
      <point x="248" y="196" type="line"/>
      <point x="412" y="348"/>
      <point x="452" y="405"/>
      <point x="452" y="501" type="curve" smooth="yes"/>
      <point x="452" y="592"/>
      <point x="391" y="667"/>
      <point x="255" y="667" type="curve" smooth="yes"/>
      <point x="129" y="667"/>
      <point x="71" y="597"/>
      <point x="71" y="546" type="curve" smooth="yes"/>
      <point x="71" y="502"/>
      <point x="102" y="487"/>
      <point x="138" y="487" type="curve"/>
      <point x="138" y="585"/>
      <point x="182" y="629"/>
      <point x="255" y="629" type="curve" smooth="yes"/>
      <point x="335" y="629"/>
      <point x="367" y="572"/>
      <point x="367" y="501" type="curve" smooth="yes"/>
      <point x="367" y="408"/>
      <point x="337" y="360"/>
      <point x="227" y="239" type="curve" smooth="yes"/>
      <point x="60" y="54" type="line"/>
    </contour>
  </outline>
</glyph>
<glyph name="three.guru" format="2">
  <advance width="563"/>
  <unicode hex="0033"/>
  <outline>
    <contour>
      <point x="252" y="-9" type="curve" smooth="yes"/>
      <point x="385" y="-9"/>
      <point x="495" y="52"/>
      <point x="495" y="196" type="curve" smooth="yes"/>
      <point x="495" y="317"/>
      <point x="403" y="365"/>
      <point x="320" y="378" type="curve"/>
      <point x="395" y="402"/>
      <point x="470" y="450"/>
      <point x="470" y="557" type="curve" smooth="yes"/>
      <point x="470" y="661"/>
      <point x="392" y="724"/>
      <point x="264" y="724" type="curve" smooth="yes"/>
      <point x="129" y="724"/>
      <point x="67" y="656"/>
      <point x="67" y="598" type="curve" smooth="yes"/>
      <point x="67" y="558"/>
      <point x="93" y="540"/>
      <point x="136" y="540" type="curve"/>
      <point x="137" y="620"/>
      <point x="180" y="682"/>
      <point x="260" y="682" type="curve" smooth="yes"/>
      <point x="331" y="682"/>
      <point x="377" y="633"/>
      <point x="377" y="552" type="curve" smooth="yes"/>
      <point x="377" y="454"/>
      <point x="321" y="394"/>
      <point x="218" y="394" type="curve" smooth="yes"/>
      <point x="173" y="394" type="line"/>
      <point x="173" y="351" type="line"/>
      <point x="217" y="351" type="line" smooth="yes"/>
      <point x="343" y="351"/>
      <point x="402" y="292"/>
      <point x="402" y="197" type="curve" smooth="yes"/>
      <point x="402" y="84"/>
      <point x="336" y="38"/>
      <point x="248" y="38" type="curve" smooth="yes"/>
      <point x="152" y="38"/>
      <point x="102" y="86"/>
      <point x="102" y="167" type="curve"/>
      <point x="75" y="167"/>
      <point x="48" y="151"/>
      <point x="48" y="112" type="curve" smooth="yes"/>
      <point x="48" y="48"/>
      <point x="108" y="-9"/>
    </contour>
  </outline>
</glyph>
<glyph name="three.mono" format="2">
  <advance width="600"/>
  <unicode hex="0033"/>
  <outline>
    <contour>
      <point x="261" y="-10" type="curve" smooth="yes"/>
      <point x="444" y="-10"/>
      <point x="525" y="78"/>
      <point x="525" y="198" type="curve" smooth="yes"/>
      <point x="525" y="300"/>
      <point x="466" y="358"/>
      <point x="354" y="373" type="curve"/>
      <point x="354" y="376" type="line"/>
      <point x="443" y="391"/>
      <point x="503" y="451"/>
      <point x="503" y="547" type="curve" smooth="yes"/>
      <point x="503" y="650"/>
      <point x="432" y="724"/>
      <point x="294" y="724" type="curve" smooth="yes"/>
      <point x="202" y="724"/>
      <point x="128" y="691"/>
      <point x="77" y="651" type="curve"/>
      <point x="122" y="590" type="line"/>
      <point x="162" y="617"/>
      <point x="220" y="645"/>
      <point x="288" y="645" type="curve" smooth="yes"/>
      <point x="369" y="645"/>
      <point x="412" y="606"/>
      <point x="412" y="539" type="curve" smooth="yes"/>
      <point x="412" y="462"/>
      <point x="356" y="409"/>
      <point x="253" y="409" type="curve" smooth="yes"/>
      <point x="179" y="409" type="line"/>
      <point x="179" y="329" type="line"/>
      <point x="253" y="329" type="line" smooth="yes"/>
      <point x="368" y="329"/>
      <point x="434" y="294"/>
      <point x="434" y="203" type="curve" smooth="yes"/>
      <point x="434" y="123"/>
      <point x="383" y="69"/>
      <point x="267" y="69" type="curve" smooth="yes"/>
      <point x="204" y="69"/>
      <point x="132" y="85"/>
      <point x="74" y="114" type="curve"/>
      <point x="74" y="29" type="line"/>
      <point x="132" y="-1"/>
      <point x="203" y="-10"/>
    </contour>
  </outline>
</glyph>
<glyph name="three.orya" format="2">
  <advance width="528"/>
  <unicode hex="0033"/>
  <outline>
    <contour>
      <point x="246" y="-9" type="curve" smooth="yes"/>
      <point x="369" y="-9"/>
      <point x="470" y="47"/>
      <point x="470" y="180" type="curve" smooth="yes"/>
      <point x="470" y="292"/>
      <point x="386" y="336"/>
      <point x="309" y="348" type="curve"/>
      <point x="378" y="370"/>
      <point x="447" y="415"/>
      <point x="447" y="513" type="curve" smooth="yes"/>
      <point x="447" y="609"/>
      <point x="375" y="667"/>
      <point x="257" y="667" type="curve" smooth="yes"/>
      <point x="133" y="667"/>
      <point x="76" y="605"/>
      <point x="76" y="551" type="curve" smooth="yes"/>
      <point x="76" y="514"/>
      <point x="100" y="498"/>
      <point x="139" y="498" type="curve"/>
      <point x="140" y="571"/>
      <point x="180" y="629"/>
      <point x="254" y="629" type="curve" smooth="yes"/>
      <point x="319" y="629"/>
      <point x="362" y="583"/>
      <point x="362" y="509" type="curve" smooth="yes"/>
      <point x="362" y="418"/>
      <point x="310" y="363"/>
      <point x="215" y="363" type="curve" smooth="yes"/>
      <point x="173" y="363" type="line"/>
      <point x="173" y="323" type="line"/>
      <point x="214" y="323" type="line" smooth="yes"/>
      <point x="330" y="323"/>
      <point x="385" y="269"/>
      <point x="385" y="181" type="curve" smooth="yes"/>
      <point x="385" y="77"/>
      <point x="324" y="34"/>
      <point x="243" y="34" type="curve" smooth="yes"/>
      <point x="154" y="34"/>
      <point x="108" y="79"/>
      <point x="108" y="153" type="curve"/>
      <point x="83" y="153"/>
      <point x="58" y="139"/>
      <point x="58" y="103" type="curve" smooth="yes"/>
      <point x="58" y="44"/>
      <point x="113" y="-9"/>
    </contour>
  </outline>
</glyph>
<glyph name="four.guru" format="2">
  <advance width="563"/>
  <unicode hex="0034"/>
  <outline>
    <contour>
      <point x="223" y="0" type="line"/>
      <point x="516" y="0" type="line"/>
      <point x="516" y="36" type="line"/>
      <point x="488" y="36" type="line" smooth="yes"/>
      <point x="440" y="36"/>
      <point x="421" y="47"/>
      <point x="421" y="118" type="curve" smooth="yes"/>
      <point x="421" y="196" type="line"/>
      <point x="542" y="196" type="line"/>
      <point x="542" y="241" type="line"/>
      <point x="421" y="241" type="line"/>
      <point x="421" y="714" type="line"/>
      <point x="336" y="714" type="line"/>
      <point x="19" y="237" type="line"/>
      <point x="19" y="196" type="line"/>
      <point x="332" y="196" type="line"/>
      <point x="332" y="118" type="line" smooth="yes"/>
      <point x="332" y="47"/>
      <point x="314" y="36"/>
      <point x="266" y="36" type="curve" smooth="yes"/>
      <point x="223" y="36" type="line"/>
    </contour>
    <contour>
      <point x="73" y="241" type="line"/>
      <point x="238" y="491" type="line" smooth="yes"/>
      <point x="264" y="528"/>
      <point x="324" y="624"/>
      <point x="337" y="652" type="curve"/>
      <point x="334" y="590"/>
      <point x="333" y="495"/>
      <point x="333" y="437" type="curve" smooth="yes"/>
      <point x="333" y="241" type="line"/>
    </contour>
  </outline>
</glyph>
<glyph name="four.mono" format="2">
  <advance width="600"/>
  <unicode hex="0034"/>
  <outline>
    <contour>
      <point x="360" y="0" type="line"/>
      <point x="446" y="0" type="line"/>
      <point x="446" y="160" type="line"/>
      <point x="550" y="160" type="line"/>
      <point x="550" y="237" type="line"/>
      <point x="446" y="237" type="line"/>
      <point x="446" y="718" type="line"/>
      <point x="344" y="718" type="line"/>
      <point x="50" y="234" type="line"/>
      <point x="50" y="160" type="line"/>
      <point x="360" y="160" type="line"/>
    </contour>
    <contour>
      <point x="137" y="237" type="line"/>
      <point x="318" y="538" type="line" smooth="yes"/>
      <point x="331" y="560"/>
      <point x="353" y="600"/>
      <point x="362" y="626" type="curve"/>
      <point x="366" y="626" type="line"/>
      <point x="364" y="581"/>
      <point x="360" y="488"/>
      <point x="360" y="415" type="curve" smooth="yes"/>
      <point x="360" y="237" type="line"/>
    </contour>
  </outline>
</glyph>
<glyph name="four.orya" format="2">
  <advance width="512"/>
  <unicode hex="0034"/>
  <outline>
    <contour>
      <point x="205" y="0" type="line"/>
      <point x="474" y="0" type="line"/>
      <point x="474" y="33" type="line"/>
      <point x="449" y="33" type="line" smooth="yes"/>
      <point x="404" y="33"/>
      <point x="387" y="43"/>
      <point x="387" y="109" type="curve" smooth="yes"/>
      <point x="387" y="180" type="line"/>
      <point x="498" y="180" type="line"/>
      <point x="498" y="222" type="line"/>
      <point x="387" y="222" type="line"/>
      <point x="387" y="657" type="line"/>
      <point x="309" y="657" type="line"/>
      <point x="17" y="218" type="line"/>
      <point x="17" y="180" type="line"/>
      <point x="305" y="180" type="line"/>
      <point x="305" y="109" type="line" smooth="yes"/>
      <point x="305" y="43"/>
      <point x="288" y="33"/>
      <point x="244" y="33" type="curve" smooth="yes"/>
      <point x="205" y="33" type="line"/>
    </contour>
    <contour>
      <point x="67" y="222" type="line"/>
      <point x="219" y="452" type="line" smooth="yes"/>
      <point x="242" y="486"/>
      <point x="298" y="574"/>
      <point x="310" y="600" type="curve"/>
      <point x="307" y="543"/>
      <point x="306" y="455"/>
      <point x="306" y="402" type="curve" smooth="yes"/>
      <point x="306" y="222" type="line"/>
    </contour>
  </outline>
</glyph>
<glyph name="five.guru" format="2">
  <advance width="563"/>
  <unicode hex="0035"/>
  <outline>
    <contour>
      <point x="249" y="-10" type="curve" smooth="yes"/>
      <point x="375" y="-10"/>
      <point x="492" y="59"/>
      <point x="492" y="219" type="curve" smooth="yes"/>
      <point x="492" y="359"/>
      <point x="393" y="429"/>
      <point x="257" y="429" type="curve" smooth="yes"/>
      <point x="211" y="429"/>
      <point x="168" y="421"/>
      <point x="139" y="410" type="curve"/>
      <point x="160" y="645" type="line"/>
      <point x="365" y="645" type="line" smooth="yes"/>
      <point x="408" y="645"/>
      <point x="414" y="640"/>
      <point x="420" y="599" type="curve" smooth="yes"/>
      <point x="425" y="566" type="line"/>
      <point x="464" y="566" type="line"/>
      <point x="460" y="714" type="line"/>
      <point x="121" y="714" type="line"/>
      <point x="91" y="374" type="line"/>
      <point x="118" y="361" type="line"/>
      <point x="153" y="375"/>
      <point x="193" y="384"/>
      <point x="241" y="384" type="curve" smooth="yes"/>
      <point x="337" y="384"/>
      <point x="400" y="329"/>
      <point x="400" y="218" type="curve" smooth="yes"/>
      <point x="400" y="96"/>
      <point x="337" y="36"/>
      <point x="239" y="36" type="curve" smooth="yes"/>
      <point x="162" y="36"/>
      <point x="109" y="85"/>
      <point x="109" y="156" type="curve"/>
      <point x="82" y="156"/>
      <point x="58" y="142"/>
      <point x="58" y="106" type="curve" smooth="yes"/>
      <point x="58" y="44"/>
      <point x="124" y="-10"/>
    </contour>
  </outline>
</glyph>
<glyph name="five.mono" format="2">
  <advance width="600"/>
  <unicode hex="0035"/>
  <outline>
    <contour>
      <point x="257" y="-10" type="curve" smooth="yes"/>
      <point x="424" y="-10"/>
      <point x="519" y="80"/>
      <point x="519" y="220" type="curve" smooth="yes"/>
      <point x="519" y="366"/>
      <point x="415" y="438"/>
      <point x="285" y="438" type="curve" smooth="yes"/>
      <point x="254" y="438"/>
      <point x="208" y="434"/>
      <point x="180" y="428" type="curve"/>
      <point x="199" y="634" type="line"/>
      <point x="478" y="634" type="line"/>
      <point x="478" y="714" type="line"/>
      <point x="122" y="714" type="line"/>
      <point x="95" y="378" type="line"/>
      <point x="139" y="350" type="line"/>
      <point x="172" y="358"/>
      <point x="218" y="365"/>
      <point x="256" y="365" type="curve" smooth="yes"/>
      <point x="360" y="365"/>
      <point x="427" y="314"/>
      <point x="427" y="214" type="curve" smooth="yes"/>
      <point x="427" y="115"/>
      <point x="361" y="69"/>
      <point x="249" y="69" type="curve" smooth="yes"/>
      <point x="186" y="69"/>
      <point x="125" y="84"/>
      <point x="80" y="114" type="curve"/>
      <point x="80" y="29" type="line"/>
      <point x="125" y="3"/>
      <point x="194" y="-10"/>
    </contour>
  </outline>
</glyph>
<glyph name="five.orya" format="2">
  <advance width="528"/>
  <unicode hex="0035"/>
  <outline>
    <contour>
      <point x="231" y="-10" type="curve" smooth="yes"/>
      <point x="347" y="-10"/>
      <point x="455" y="54"/>
      <point x="455" y="201" type="curve" smooth="yes"/>
      <point x="455" y="330"/>
      <point x="364" y="394"/>
      <point x="238" y="394" type="curve" smooth="yes"/>
      <point x="196" y="394"/>
      <point x="156" y="387"/>
      <point x="130" y="377" type="curve"/>
      <point x="149" y="593" type="line"/>
      <point x="338" y="593" type="line" smooth="yes"/>
      <point x="377" y="593"/>
      <point x="383" y="589"/>
      <point x="389" y="551" type="curve" smooth="yes"/>
      <point x="393" y="521" type="line"/>
      <point x="429" y="521" type="line"/>
      <point x="425" y="657" type="line"/>
      <point x="113" y="657" type="line"/>
      <point x="85" y="344" type="line"/>
      <point x="110" y="332" type="line"/>
      <point x="143" y="345"/>
      <point x="179" y="353"/>
      <point x="224" y="353" type="curve" smooth="yes"/>
      <point x="312" y="353"/>
      <point x="370" y="302"/>
      <point x="370" y="200" type="curve" smooth="yes"/>
      <point x="370" y="88"/>
      <point x="312" y="32"/>
      <point x="222" y="32" type="curve" smooth="yes"/>
      <point x="151" y="32"/>
      <point x="102" y="78"/>
      <point x="102" y="143" type="curve"/>
      <point x="77" y="143"/>
      <point x="55" y="130"/>
      <point x="55" y="97" type="curve" smooth="yes"/>
      <point x="55" y="40"/>
      <point x="116" y="-10"/>
    </contour>
  </outline>
</glyph>
<glyph name="six.guru" format="2">
  <advance width="563"/>
  <unicode hex="0036"/>
  <outline>
    <contour>
      <point x="295" y="-10" type="curve" smooth="yes"/>
      <point x="439" y="-10"/>
      <point x="509" y="85"/>
      <point x="509" y="225" type="curve" smooth="yes"/>
      <point x="509" y="359"/>
      <point x="429" y="433"/>
      <point x="313" y="433" type="curve" smooth="yes"/>
      <point x="245" y="433"/>
      <point x="191" y="407"/>
      <point x="149" y="377" type="curve"/>
      <point x="152" y="581"/>
      <point x="218" y="682"/>
      <point x="319" y="682" type="curve" smooth="yes"/>
      <point x="386" y="682"/>
      <point x="419" y="637"/>
      <point x="419" y="561" type="curve"/>
      <point x="467" y="561"/>
      <point x="485" y="586"/>
      <point x="485" y="618" type="curve" smooth="yes"/>
      <point x="485" y="671"/>
      <point x="439" y="724"/>
      <point x="322" y="724" type="curve" smooth="yes"/>
      <point x="165" y="724"/>
      <point x="64" y="603"/>
      <point x="64" y="334" type="curve" smooth="yes"/>
      <point x="64" y="100"/>
      <point x="152" y="-10"/>
    </contour>
    <contour>
      <point x="298" y="34" type="curve" smooth="yes"/>
      <point x="201" y="34"/>
      <point x="152" y="132"/>
      <point x="149" y="329" type="curve"/>
      <point x="179" y="353"/>
      <point x="230" y="388"/>
      <point x="295" y="388" type="curve" smooth="yes"/>
      <point x="379" y="388"/>
      <point x="424" y="327"/>
      <point x="424" y="221" type="curve" smooth="yes"/>
      <point x="424" y="99"/>
      <point x="381" y="34"/>
    </contour>
  </outline>
</glyph>
<glyph name="six.mono" format="2">
  <advance width="600"/>
  <unicode hex="0036"/>
  <outline>
    <contour>
      <point x="308" y="-10" type="curve" smooth="yes"/>
      <point x="450" y="-10"/>
      <point x="540" y="81"/>
      <point x="540" y="230" type="curve" smooth="yes"/>
      <point x="540" y="371"/>
      <point x="455" y="452"/>
      <point x="322" y="452" type="curve" smooth="yes"/>
      <point x="237" y="452"/>
      <point x="181" y="414"/>
      <point x="155" y="364" type="curve"/>
      <point x="149" y="364" type="line"/>
      <point x="155" y="519"/>
      <point x="203" y="648"/>
      <point x="395" y="648" type="curve" smooth="yes"/>
      <point x="425" y="648"/>
      <point x="458" y="644"/>
      <point x="481" y="636" type="curve"/>
      <point x="481" y="715" type="line"/>
      <point x="459" y="721"/>
      <point x="418" y="724"/>
      <point x="392" y="724" type="curve" smooth="yes"/>
      <point x="117" y="724"/>
      <point x="60" y="513"/>
      <point x="60" y="308" type="curve" smooth="yes"/>
      <point x="60" y="94"/>
      <point x="156" y="-10"/>
    </contour>
    <contour>
      <point x="307" y="65" type="curve" smooth="yes"/>
      <point x="202" y="65"/>
      <point x="149" y="160"/>
      <point x="149" y="247" type="curve" smooth="yes"/>
      <point x="149" y="312"/>
      <point x="213" y="382"/>
      <point x="310" y="382" type="curve" smooth="yes"/>
      <point x="405" y="382"/>
      <point x="454" y="329"/>
      <point x="454" y="230" type="curve" smooth="yes"/>
      <point x="454" y="112"/>
      <point x="393" y="65"/>
    </contour>
  </outline>
</glyph>
<glyph name="six.orya" format="2">
  <advance width="522"/>
  <unicode hex="0036"/>
  <outline>
    <contour>
      <point x="274" y="-10" type="curve" smooth="yes"/>
      <point x="407" y="-10"/>
      <point x="471" y="78"/>
      <point x="471" y="207" type="curve" smooth="yes"/>
      <point x="471" y="330"/>
      <point x="398" y="398"/>
      <point x="291" y="398" type="curve" smooth="yes"/>
      <point x="228" y="398"/>
      <point x="178" y="374"/>
      <point x="139" y="347" type="curve"/>
      <point x="142" y="535"/>
      <point x="203" y="628"/>
      <point x="296" y="628" type="curve" smooth="yes"/>
      <point x="358" y="628"/>
      <point x="388" y="587"/>
      <point x="388" y="516" type="curve"/>
      <point x="433" y="516"/>
      <point x="449" y="539"/>
      <point x="449" y="569" type="curve" smooth="yes"/>
      <point x="449" y="618"/>
      <point x="407" y="667"/>
      <point x="299" y="667" type="curve" smooth="yes"/>
      <point x="154" y="667"/>
      <point x="61" y="555"/>
      <point x="61" y="307" type="curve" smooth="yes"/>
      <point x="61" y="91"/>
      <point x="142" y="-10"/>
    </contour>
    <contour>
      <point x="277" y="31" type="curve" smooth="yes"/>
      <point x="187" y="31"/>
      <point x="142" y="121"/>
      <point x="139" y="303" type="curve"/>
      <point x="167" y="325"/>
      <point x="214" y="357"/>
      <point x="274" y="357" type="curve" smooth="yes"/>
      <point x="351" y="357"/>
      <point x="393" y="301"/>
      <point x="393" y="203" type="curve" smooth="yes"/>
      <point x="393" y="90"/>
      <point x="353" y="31"/>
    </contour>
  </outline>
</glyph>
<glyph name="seven.guru" format="2">
  <advance width="563"/>
  <unicode hex="0037"/>
  <outline>
    <contour>
      <point x="168" y="0" type="line"/>
      <point x="231" y="0" type="line"/>
      <point x="506" y="675" type="line"/>
      <point x="506" y="714" type="line"/>
      <point x="59" y="714" type="line"/>
      <point x="54" y="535" type="line"/>
      <point x="95" y="535" type="line"/>
      <point x="100" y="593" type="line" smooth="yes"/>
      <point x="104" y="635"/>
      <point x="118" y="645"/>
      <point x="154" y="645" type="curve" smooth="yes"/>
      <point x="447" y="645" type="line"/>
    </contour>
  </outline>
</glyph>
<glyph name="seven.mono" format="2">
  <advance width="600"/>
  <unicode hex="0037"/>
  <outline>
    <contour>
      <point x="174" y="0" type="line"/>
      <point x="269" y="0" type="line"/>
      <point x="540" y="643" type="line"/>
      <point x="540" y="714" type="line"/>
      <point x="60" y="714" type="line"/>
      <point x="60" y="634" type="line"/>
      <point x="449" y="634" type="line"/>
    </contour>
  </outline>
</glyph>
<glyph name="seven.orya" format="2">
  <advance width="523"/>
  <unicode hex="0037"/>
  <outline>
    <contour>
      <point x="164" y="0" type="line"/>
      <point x="222" y="0" type="line"/>
      <point x="475" y="621" type="line"/>
      <point x="475" y="657" type="line"/>
      <point x="64" y="657" type="line"/>
      <point x="59" y="492" type="line"/>
      <point x="97" y="492" type="line"/>
      <point x="101" y="546" type="line" smooth="yes"/>
      <point x="105" y="584"/>
      <point x="118" y="594"/>
      <point x="151" y="594" type="curve" smooth="yes"/>
      <point x="421" y="594" type="line"/>
    </contour>
  </outline>
</glyph>
<glyph name="eight.guru" format="2">
  <advance width="563"/>
  <unicode hex="0038"/>
  <outline>
    <contour>
      <point x="277" y="-10" type="curve" smooth="yes"/>
      <point x="423" y="-10"/>
      <point x="512" y="59"/>
      <point x="512" y="174" type="curve" smooth="yes"/>
      <point x="512" y="274"/>
      <point x="466" y="324"/>
      <point x="346" y="382" type="curve"/>
      <point x="440" y="422"/>
      <point x="489" y="472"/>
      <point x="489" y="562" type="curve" smooth="yes"/>
      <point x="489" y="651"/>
      <point x="422" y="724"/>
      <point x="285" y="724" type="curve" smooth="yes"/>
      <point x="150" y="724"/>
      <point x="76" y="653"/>
      <point x="76" y="552" type="curve" smooth="yes"/>
      <point x="76" y="458"/>
      <point x="132" y="412"/>
      <point x="220" y="369" type="curve"/>
      <point x="118" y="332"/>
      <point x="51" y="274"/>
      <point x="51" y="171" type="curve" smooth="yes"/>
      <point x="51" y="65"/>
      <point x="122" y="-10"/>
    </contour>
    <contour>
      <point x="297" y="404" type="curve"/>
      <point x="211" y="442"/>
      <point x="162" y="479"/>
      <point x="162" y="561" type="curve" smooth="yes"/>
      <point x="162" y="636"/>
      <point x="208" y="683"/>
      <point x="285" y="683" type="curve" smooth="yes"/>
      <point x="372" y="683"/>
      <point x="409" y="625"/>
      <point x="409" y="560" type="curve" smooth="yes"/>
      <point x="409" y="481"/>
      <point x="373" y="436"/>
    </contour>
    <contour>
      <point x="279" y="32" type="curve" smooth="yes"/>
      <point x="187" y="32"/>
      <point x="133" y="81"/>
      <point x="133" y="175" type="curve" smooth="yes"/>
      <point x="133" y="251"/>
      <point x="178" y="310"/>
      <point x="267" y="345" type="curve"/>
      <point x="385" y="292"/>
      <point x="423" y="239"/>
      <point x="423" y="165" type="curve" smooth="yes"/>
      <point x="423" y="76"/>
      <point x="365" y="32"/>
    </contour>
  </outline>
</glyph>
<glyph name="eight.mono" format="2">
  <advance width="600"/>
  <unicode hex="0038"/>
  <outline>
    <contour>
      <point x="295" y="-10" type="curve" smooth="yes"/>
      <point x="440" y="-10"/>
      <point x="531" y="69"/>
      <point x="531" y="180" type="curve" smooth="yes"/>
      <point x="531" y="278"/>
      <point x="461" y="333"/>
      <point x="373" y="378" type="curve"/>
      <point x="450" y="414"/>
      <point x="508" y="466"/>
      <point x="508" y="554" type="curve" smooth="yes"/>
      <point x="508" y="666"/>
      <point x="413" y="724"/>
      <point x="301" y="724" type="curve" smooth="yes"/>
      <point x="189" y="724"/>
      <point x="91" y="666"/>
      <point x="91" y="554" type="curve" smooth="yes"/>
      <point x="91" y="468"/>
      <point x="149" y="412"/>
      <point x="214" y="374" type="curve"/>
      <point x="134" y="337"/>
      <point x="68" y="280"/>
      <point x="68" y="179" type="curve" smooth="yes"/>
      <point x="68" y="62"/>
      <point x="157" y="-10"/>
    </contour>
    <contour>
      <point x="298" y="63" type="curve"/>
      <point x="199" y="63"/>
      <point x="156" y="112"/>
      <point x="156" y="180" type="curve" smooth="yes"/>
      <point x="156" y="256"/>
      <point x="206" y="304"/>
      <point x="287" y="340" type="curve"/>
      <point x="392" y="290"/>
      <point x="444" y="256"/>
      <point x="444" y="185" type="curve" smooth="yes"/>
      <point x="444" y="114"/>
      <point x="393" y="63"/>
    </contour>
    <contour>
      <point x="301" y="414" type="curve"/>
      <point x="239" y="442"/>
      <point x="178" y="474"/>
      <point x="178" y="549" type="curve" smooth="yes"/>
      <point x="178" y="615"/>
      <point x="226" y="649"/>
      <point x="299" y="649" type="curve" smooth="yes"/>
      <point x="374" y="649"/>
      <point x="421" y="614"/>
      <point x="421" y="549" type="curve" smooth="yes"/>
      <point x="421" y="480"/>
      <point x="368" y="443"/>
    </contour>
  </outline>
</glyph>
<glyph name="eight.orya" format="2">
  <advance width="517"/>
  <unicode hex="0038"/>
  <outline>
    <contour>
      <point x="255" y="-10" type="curve" smooth="yes"/>
      <point x="389" y="-10"/>
      <point x="471" y="54"/>
      <point x="471" y="160" type="curve" smooth="yes"/>
      <point x="471" y="252"/>
      <point x="429" y="298"/>
      <point x="318" y="352" type="curve"/>
      <point x="405" y="389"/>
      <point x="450" y="435"/>
      <point x="450" y="518" type="curve" smooth="yes"/>
      <point x="450" y="600"/>
      <point x="388" y="667"/>
      <point x="262" y="667" type="curve" smooth="yes"/>
      <point x="137" y="667"/>
      <point x="69" y="602"/>
      <point x="69" y="509" type="curve" smooth="yes"/>
      <point x="69" y="422"/>
      <point x="121" y="379"/>
      <point x="202" y="340" type="curve"/>
      <point x="108" y="306"/>
      <point x="46" y="252"/>
      <point x="46" y="157" type="curve" smooth="yes"/>
      <point x="46" y="59"/>
      <point x="112" y="-10"/>
    </contour>
    <contour>
      <point x="273" y="372" type="curve"/>
      <point x="194" y="407"/>
      <point x="148" y="441"/>
      <point x="148" y="517" type="curve" smooth="yes"/>
      <point x="148" y="586"/>
      <point x="191" y="629"/>
      <point x="262" y="629" type="curve" smooth="yes"/>
      <point x="342" y="629"/>
      <point x="376" y="576"/>
      <point x="376" y="516" type="curve" smooth="yes"/>
      <point x="376" y="443"/>
      <point x="343" y="402"/>
    </contour>
    <contour>
      <point x="256" y="29" type="curve" smooth="yes"/>
      <point x="171" y="29"/>
      <point x="122" y="74"/>
      <point x="122" y="161" type="curve" smooth="yes"/>
      <point x="122" y="231"/>
      <point x="163" y="285"/>
      <point x="245" y="318" type="curve"/>
      <point x="354" y="269"/>
      <point x="389" y="220"/>
      <point x="389" y="151" type="curve" smooth="yes"/>
      <point x="389" y="69"/>
      <point x="336" y="29"/>
    </contour>
  </outline>
</glyph>
<glyph name="nine.guru" format="2">
  <advance width="563"/>
  <unicode hex="0039"/>
  <outline>
    <contour>
      <point x="229" y="-10" type="curve" smooth="yes"/>
      <point x="423" y="-10"/>
      <point x="499" y="135"/>
      <point x="499" y="386" type="curve" smooth="yes"/>
      <point x="499" y="616"/>
      <point x="408" y="724"/>
      <point x="264" y="724" type="curve" smooth="yes"/>
      <point x="128" y="724"/>
      <point x="54" y="628"/>
      <point x="54" y="490" type="curve" smooth="yes"/>
      <point x="54" y="364"/>
      <point x="124" y="282"/>
      <point x="253" y="282" type="curve" smooth="yes"/>
      <point x="333" y="282"/>
      <point x="379" y="314"/>
      <point x="414" y="347" type="curve"/>
      <point x="411" y="138"/>
      <point x="353" y="32"/>
      <point x="238" y="32" type="curve" smooth="yes"/>
      <point x="173" y="32"/>
      <point x="141" y="64"/>
      <point x="118" y="125" type="curve"/>
      <point x="93" y="120"/>
      <point x="84" y="101"/>
      <point x="84" y="82" type="curve" smooth="yes"/>
      <point x="84" y="36"/>
      <point x="127" y="-10"/>
    </contour>
    <contour>
      <point x="272" y="330" type="curve" smooth="yes"/>
      <point x="185" y="330"/>
      <point x="139" y="394"/>
      <point x="139" y="492" type="curve" smooth="yes"/>
      <point x="139" y="604"/>
      <point x="177" y="679"/>
      <point x="268" y="679" type="curve" smooth="yes"/>
      <point x="365" y="679"/>
      <point x="413" y="588"/>
      <point x="414" y="396" type="curve"/>
      <point x="376" y="355"/>
      <point x="337" y="330"/>
    </contour>
  </outline>
</glyph>
<glyph name="nine.mono" format="2">
  <advance width="600"/>
  <unicode hex="0039"/>
  <outline>
    <contour>
      <point x="217" y="-10" type="curve" smooth="yes"/>
      <point x="484" y="-10"/>
      <point x="540" y="211"/>
      <point x="540" y="391" type="curve" smooth="yes"/>
      <point x="540" y="626"/>
      <point x="441" y="724"/>
      <point x="294" y="724" type="curve" smooth="yes"/>
      <point x="150" y="724"/>
      <point x="60" y="633"/>
      <point x="60" y="488" type="curve" smooth="yes"/>
      <point x="60" y="343"/>
      <point x="144" y="262"/>
      <point x="278" y="262" type="curve" smooth="yes"/>
      <point x="361" y="262"/>
      <point x="418" y="300"/>
      <point x="445" y="350" type="curve"/>
      <point x="451" y="350" type="line"/>
      <point x="445" y="196"/>
      <point x="394" y="66"/>
      <point x="213" y="66" type="curve" smooth="yes"/>
      <point x="181" y="66"/>
      <point x="152" y="70"/>
      <point x="129" y="78" type="curve"/>
      <point x="129" y="-1" type="line"/>
      <point x="151" y="-7"/>
      <point x="186" y="-10"/>
    </contour>
    <contour>
      <point x="287" y="332" type="curve" smooth="yes"/>
      <point x="199" y="332"/>
      <point x="146" y="379"/>
      <point x="146" y="487" type="curve" smooth="yes"/>
      <point x="146" y="596"/>
      <point x="203" y="649"/>
      <point x="293" y="649" type="curve" smooth="yes"/>
      <point x="403" y="649"/>
      <point x="451" y="545"/>
      <point x="451" y="477" type="curve" smooth="yes"/>
      <point x="451" y="392"/>
      <point x="381" y="332"/>
    </contour>
  </outline>
</glyph>
<glyph name="nine.orya" format="2">
  <advance width="522"/>
  <unicode hex="0039"/>
  <outline>
    <contour>
      <point x="212" y="-10" type="curve" smooth="yes"/>
      <point x="391" y="-10"/>
      <point x="461" y="124"/>
      <point x="461" y="355" type="curve" smooth="yes"/>
      <point x="461" y="567"/>
      <point x="377" y="667"/>
      <point x="244" y="667" type="curve" smooth="yes"/>
      <point x="119" y="667"/>
      <point x="51" y="579"/>
      <point x="51" y="451" type="curve" smooth="yes"/>
      <point x="51" y="335"/>
      <point x="116" y="259"/>
      <point x="234" y="259" type="curve" smooth="yes"/>
      <point x="308" y="259"/>
      <point x="350" y="288"/>
      <point x="383" y="319" type="curve"/>
      <point x="380" y="127"/>
      <point x="326" y="29"/>
      <point x="220" y="29" type="curve" smooth="yes"/>
      <point x="161" y="29"/>
      <point x="131" y="58"/>
      <point x="110" y="115" type="curve"/>
      <point x="87" y="110"/>
      <point x="79" y="93"/>
      <point x="79" y="75" type="curve" smooth="yes"/>
      <point x="79" y="33"/>
      <point x="118" y="-10"/>
    </contour>
    <contour>
      <point x="251" y="303" type="curve" smooth="yes"/>
      <point x="172" y="303"/>
      <point x="130" y="362"/>
      <point x="130" y="453" type="curve" smooth="yes"/>
      <point x="130" y="556"/>
      <point x="165" y="626"/>
      <point x="248" y="626" type="curve" smooth="yes"/>
      <point x="337" y="626"/>
      <point x="382" y="542"/>
      <point x="383" y="364" type="curve"/>
      <point x="348" y="326"/>
      <point x="312" y="303"/>
    </contour>
  </outline>
</glyph>
<glyph name="colon.GGondi" format="2">
  <advance width="249"/>
  <unicode hex="003A"/>
  <outline>
    <contour>
      <point x="68" y="75" type="curve" smooth="yes"/>
      <point x="68" y="31"/>
      <point x="92" y="13"/>
      <point x="123" y="13" type="curve" smooth="yes"/>
      <point x="154" y="13"/>
      <point x="180" y="31"/>
      <point x="180" y="75" type="curve" smooth="yes"/>
      <point x="180" y="120"/>
      <point x="154" y="136"/>
      <point x="123" y="136" type="curve" smooth="yes"/>
      <point x="92" y="136"/>
      <point x="68" y="120"/>
    </contour>
    <contour>
      <point x="68" y="416" type="curve" smooth="yes"/>
      <point x="68" y="372"/>
      <point x="92" y="354"/>
      <point x="123" y="354" type="curve" smooth="yes"/>
      <point x="154" y="354"/>
      <point x="180" y="372"/>
      <point x="180" y="416" type="curve" smooth="yes"/>
      <point x="180" y="461"/>
      <point x="154" y="477"/>
      <point x="123" y="477" type="curve" smooth="yes"/>
      <point x="92" y="477"/>
      <point x="68" y="461"/>
    </contour>
  </outline>
</glyph>
<glyph name="colon.guru" format="2">
  <advance width="261"/>
  <unicode hex="003A"/>
  <outline>
    <contour>
      <point x="129" y="408" type="curve" smooth="yes"/>
      <point x="159" y="408"/>
      <point x="185" y="422"/>
      <point x="185" y="467" type="curve" smooth="yes"/>
      <point x="185" y="513"/>
      <point x="159" y="526"/>
      <point x="129" y="526" type="curve" smooth="yes"/>
      <point x="99" y="526"/>
      <point x="73" y="513"/>
      <point x="73" y="467" type="curve" smooth="yes"/>
      <point x="73" y="422"/>
      <point x="99" y="408"/>
    </contour>
    <contour>
      <point x="129" y="-7" type="curve" smooth="yes"/>
      <point x="159" y="-7"/>
      <point x="185" y="8"/>
      <point x="185" y="53" type="curve" smooth="yes"/>
      <point x="185" y="98"/>
      <point x="159" y="111"/>
      <point x="129" y="111" type="curve" smooth="yes"/>
      <point x="99" y="111"/>
      <point x="73" y="98"/>
      <point x="73" y="53" type="curve" smooth="yes"/>
      <point x="73" y="8"/>
      <point x="99" y="-7"/>
    </contour>
  </outline>
</glyph>
<glyph name="colon.mono" format="2">
  <advance width="600"/>
  <unicode hex="003A"/>
  <outline>
    <contour>
      <point x="301" y="410" type="curve" smooth="yes"/>
      <point x="335" y="410"/>
      <point x="362" y="430"/>
      <point x="362" y="478" type="curve" smooth="yes"/>
      <point x="362" y="528"/>
      <point x="335" y="546"/>
      <point x="301" y="546" type="curve" smooth="yes"/>
      <point x="266" y="546"/>
      <point x="239" y="528"/>
      <point x="239" y="478" type="curve" smooth="yes"/>
      <point x="239" y="430"/>
      <point x="266" y="410"/>
    </contour>
    <contour>
      <point x="300" y="-10" type="curve" smooth="yes"/>
      <point x="334" y="-10"/>
      <point x="361" y="10"/>
      <point x="361" y="58" type="curve" smooth="yes"/>
      <point x="361" y="108"/>
      <point x="334" y="126"/>
      <point x="300" y="126" type="curve" smooth="yes"/>
      <point x="265" y="126"/>
      <point x="238" y="108"/>
      <point x="238" y="58" type="curve" smooth="yes"/>
      <point x="238" y="10"/>
      <point x="265" y="-10"/>
    </contour>
  </outline>
</glyph>
<glyph name="semicolon.guru" format="2">
  <advance width="261"/>
  <unicode hex="003B"/>
  <outline>
    <contour>
      <point x="129" y="408" type="curve" smooth="yes"/>
      <point x="159" y="408"/>
      <point x="185" y="422"/>
      <point x="185" y="467" type="curve" smooth="yes"/>
      <point x="185" y="513"/>
      <point x="159" y="526"/>
      <point x="129" y="526" type="curve" smooth="yes"/>
      <point x="99" y="526"/>
      <point x="73" y="513"/>
      <point x="73" y="467" type="curve" smooth="yes"/>
      <point x="73" y="422"/>
      <point x="99" y="408"/>
    </contour>
    <contour>
      <point x="48" y="-154" type="line"/>
      <point x="152" y="-124"/>
      <point x="191" y="-57"/>
      <point x="191" y="17" type="curve" smooth="yes"/>
      <point x="191" y="79"/>
      <point x="165" y="111"/>
      <point x="122" y="111" type="curve" smooth="yes"/>
      <point x="93" y="111"/>
      <point x="73" y="93"/>
      <point x="73" y="62" type="curve" smooth="yes"/>
      <point x="73" y="10"/>
      <point x="130" y="7"/>
      <point x="130" y="-28" type="curve" smooth="yes"/>
      <point x="130" y="-62"/>
      <point x="105" y="-99"/>
      <point x="48" y="-117" type="curve"/>
    </contour>
  </outline>
</glyph>
<glyph name="semicolon.mono" format="2">
  <advance width="600"/>
  <unicode hex="003B"/>
  <outline>
    <contour>
      <point x="211" y="-140" type="curve"/>
      <point x="285" y="-140" type="line"/>
      <point x="321" y="-60"/>
      <point x="360" y="39"/>
      <point x="380" y="117" type="curve"/>
      <point x="372" y="129" type="line"/>
      <point x="265" y="129" type="line"/>
      <point x="254" y="53"/>
      <point x="232" y="-53"/>
    </contour>
    <contour>
      <point x="323" y="410" type="curve" smooth="yes"/>
      <point x="357" y="410"/>
      <point x="385" y="430"/>
      <point x="385" y="478" type="curve" smooth="yes"/>
      <point x="385" y="528"/>
      <point x="357" y="546"/>
      <point x="323" y="546" type="curve" smooth="yes"/>
      <point x="288" y="546"/>
      <point x="261" y="528"/>
      <point x="261" y="478" type="curve" smooth="yes"/>
      <point x="261" y="430"/>
      <point x="288" y="410"/>
    </contour>
  </outline>
</glyph>
<glyph name="less.GGondi" format="2">
  <advance width="551"/>
  <unicode hex="003C"/>
  <outline>
    <contour>
      <point x="50" y="264" type="line"/>
      <point x="501" y="57" type="line"/>
      <point x="501" y="136" type="line"/>
      <point x="145" y="293" type="line"/>
      <point x="501" y="469" type="line"/>
      <point x="501" y="548" type="line"/>
      <point x="50" y="313" type="line"/>
    </contour>
  </outline>
</glyph>
<glyph name="less.guru" format="2">
  <advance width="563"/>
  <unicode hex="003C"/>
  <outline>
    <contour>
      <point x="500" y="107" type="line"/>
      <point x="500" y="160" type="line"/>
      <point x="128" y="357" type="line"/>
      <point x="500" y="556" type="line"/>
      <point x="500" y="609" type="line"/>
      <point x="63" y="375" type="line"/>
      <point x="63" y="340" type="line"/>
    </contour>
  </outline>
</glyph>
<glyph name="less.orya" format="2">
  <advance width="572"/>
  <unicode hex="003C"/>
  <outline>
    <contour>
      <point x="521" y="85" type="line"/>
      <point x="521" y="163" type="line"/>
      <point x="144" y="330" type="line"/>
      <point x="521" y="499" type="line"/>
      <point x="521" y="576" type="line"/>
      <point x="50" y="355" type="line"/>
      <point x="50" y="306" type="line"/>
    </contour>
  </outline>
</glyph>
<glyph name="equal.GGondi" format="2">
  <advance width="551"/>
  <unicode hex="003D"/>
  <outline>
    <contour>
      <point x="50" y="166" type="line"/>
      <point x="501" y="166" type="line"/>
      <point x="501" y="239" type="line"/>
      <point x="50" y="239" type="line"/>
    </contour>
    <contour>
      <point x="50" y="366" type="line"/>
      <point x="501" y="366" type="line"/>
      <point x="501" y="439" type="line"/>
      <point x="50" y="439" type="line"/>
    </contour>
  </outline>
</glyph>
<glyph name="equal.MGondi" format="2">
  <advance width="572"/>
  <unicode hex="003D"/>
  <outline>
    <contour>
      <point x="56" y="217" type="line"/>
      <point x="514" y="217" type="line"/>
      <point x="514" y="288" type="line"/>
      <point x="56" y="288" type="line"/>
    </contour>
    <contour>
      <point x="56" y="416" type="line"/>
      <point x="514" y="416" type="line"/>
      <point x="514" y="487" type="line"/>
      <point x="56" y="487" type="line"/>
    </contour>
  </outline>
</glyph>
<glyph name="equal.guru" format="2">
  <advance width="563"/>
  <unicode hex="003D"/>
  <outline>
    <contour>
      <point x="63" y="440" type="line"/>
      <point x="499" y="440" type="line"/>
      <point x="499" y="488" type="line"/>
      <point x="63" y="488" type="line"/>
    </contour>
    <contour>
      <point x="63" y="226" type="line"/>
      <point x="499" y="226" type="line"/>
      <point x="499" y="274" type="line"/>
      <point x="63" y="274" type="line"/>
    </contour>
  </outline>
</glyph>
<glyph name="equal.mono" format="2">
  <advance width="600"/>
  <unicode hex="003D"/>
  <outline>
    <contour>
      <point x="70" y="407" type="line"/>
      <point x="530" y="407" type="line"/>
      <point x="530" y="487" type="line"/>
      <point x="70" y="487" type="line"/>
    </contour>
    <contour>
      <point x="70" y="217" type="line"/>
      <point x="530" y="217" type="line"/>
      <point x="530" y="297" type="line"/>
      <point x="70" y="297" type="line"/>
    </contour>
  </outline>
</glyph>
<glyph name="equal.orya" format="2">
  <advance width="572"/>
  <unicode hex="003D"/>
  <outline>
    <contour>
      <point x="56" y="397" type="line"/>
      <point x="514" y="397" type="line"/>
      <point x="514" y="464" type="line"/>
      <point x="56" y="464" type="line"/>
    </contour>
    <contour>
      <point x="56" y="198" type="line"/>
      <point x="514" y="198" type="line"/>
      <point x="514" y="265" type="line"/>
      <point x="56" y="265" type="line"/>
    </contour>
  </outline>
</glyph>
<glyph name="greater.GGondi" format="2">
  <advance width="551"/>
  <unicode hex="003E"/>
  <outline>
    <contour>
      <point x="50" y="57" type="line"/>
      <point x="501" y="264" type="line"/>
      <point x="501" y="313" type="line"/>
      <point x="50" y="548" type="line"/>
      <point x="50" y="469" type="line"/>
      <point x="406" y="293" type="line"/>
      <point x="50" y="136" type="line"/>
    </contour>
  </outline>
</glyph>
<glyph name="greater.MGondi" format="2">
  <advance width="572"/>
  <unicode hex="003E"/>
  <outline>
    <contour>
      <point x="50" y="116" type="line"/>
      <point x="521" y="323" type="line"/>
      <point x="521" y="373" type="line"/>
      <point x="50" y="608" type="line"/>
      <point x="50" y="530" type="line"/>
      <point x="427" y="351" type="line"/>
      <point x="50" y="194" type="line"/>
    </contour>
  </outline>
</glyph>
<glyph name="greater.guru" format="2">
  <advance width="563"/>
  <unicode hex="003E"/>
  <outline>
    <contour>
      <point x="63" y="107" type="line"/>
      <point x="500" y="340" type="line"/>
      <point x="500" y="375" type="line"/>
      <point x="63" y="609" type="line"/>
      <point x="63" y="556" type="line"/>
      <point x="433" y="357" type="line"/>
      <point x="63" y="160" type="line"/>
    </contour>
  </outline>
</glyph>
<glyph name="greater.orya" format="2">
  <advance width="572"/>
  <unicode hex="003E"/>
  <outline>
    <contour>
      <point x="50" y="85" type="line"/>
      <point x="521" y="306" type="line"/>
      <point x="521" y="355" type="line"/>
      <point x="50" y="576" type="line"/>
      <point x="50" y="498" type="line"/>
      <point x="427" y="332" type="line"/>
      <point x="50" y="162" type="line"/>
    </contour>
  </outline>
</glyph>
<glyph name="question.GGondi" format="2">
  <advance width="484"/>
  <unicode hex="003F"/>
  <outline>
    <contour>
      <point x="71" y="630" type="curve"/>
      <point x="99" y="565" type="line"/>
      <point x="140" y="585"/>
      <point x="185" y="604"/>
      <point x="234" y="604" type="curve" smooth="yes"/>
      <point x="299" y="604"/>
      <point x="335" y="565"/>
      <point x="335" y="508" type="curve" smooth="yes"/>
      <point x="335" y="445"/>
      <point x="311" y="419"/>
      <point x="255" y="371" type="curve" smooth="yes"/>
      <point x="196" y="321"/>
      <point x="179" y="284"/>
      <point x="179" y="216" type="curve" smooth="yes"/>
      <point x="179" y="200" type="line"/>
      <point x="241" y="200" type="line"/>
      <point x="241" y="208" type="line" smooth="yes"/>
      <point x="241" y="260"/>
      <point x="256" y="282"/>
      <point x="316" y="334" type="curve" smooth="yes"/>
      <point x="380" y="390"/>
      <point x="412" y="430"/>
      <point x="412" y="509" type="curve" smooth="yes"/>
      <point x="412" y="613"/>
      <point x="344" y="674"/>
      <point x="234" y="674" type="curve" smooth="yes"/>
      <point x="176" y="674"/>
      <point x="119" y="654"/>
    </contour>
    <contour>
      <point x="155" y="75" type="curve" smooth="yes"/>
      <point x="155" y="31"/>
      <point x="179" y="13"/>
      <point x="210" y="13" type="curve" smooth="yes"/>
      <point x="241" y="13"/>
      <point x="267" y="31"/>
      <point x="267" y="75" type="curve" smooth="yes"/>
      <point x="267" y="120"/>
      <point x="241" y="136"/>
      <point x="210" y="136" type="curve" smooth="yes"/>
      <point x="179" y="136"/>
      <point x="155" y="120"/>
    </contour>
  </outline>
</glyph>
<glyph name="question.MGondi" format="2">
  <advance width="434"/>
  <unicode hex="003F"/>
  <outline>
    <contour>
      <point x="64" y="625" type="curve"/>
      <point x="95" y="555" type="line"/>
      <point x="135" y="577"/>
      <point x="177" y="597"/>
      <point x="235" y="597" type="curve" smooth="yes"/>
      <point x="300" y="597"/>
      <point x="336" y="560"/>
      <point x="336" y="511" type="curve" smooth="yes"/>
      <point x="336" y="467"/>
      <point x="318" y="442"/>
      <point x="256" y="388" type="curve" smooth="yes"/>
      <point x="190" y="331"/>
      <point x="172" y="287"/>
      <point x="172" y="218" type="curve" smooth="yes"/>
      <point x="172" y="191" type="line"/>
      <point x="242" y="191" type="line"/>
      <point x="242" y="208" type="line" smooth="yes"/>
      <point x="242" y="265"/>
      <point x="255" y="287"/>
      <point x="322" y="348" type="curve" smooth="yes"/>
      <point x="381" y="401"/>
      <point x="420" y="436"/>
      <point x="420" y="515" type="curve" smooth="yes"/>
      <point x="420" y="613"/>
      <point x="347" y="674"/>
      <point x="239" y="674" type="curve" smooth="yes"/>
      <point x="167" y="674"/>
      <point x="111" y="653"/>
    </contour>
    <contour>
      <point x="149" y="54" type="curve" smooth="yes"/>
      <point x="149" y="6"/>
      <point x="175" y="-14"/>
      <point x="211" y="-14" type="curve" smooth="yes"/>
      <point x="244" y="-14"/>
      <point x="272" y="6"/>
      <point x="272" y="54" type="curve" smooth="yes"/>
      <point x="272" y="103"/>
      <point x="244" y="121"/>
      <point x="211" y="121" type="curve" smooth="yes"/>
      <point x="175" y="121"/>
      <point x="149" y="103"/>
    </contour>
  </outline>
</glyph>
<glyph name="question.guru" format="2">
  <advance width="471"/>
  <unicode hex="003F"/>
  <outline>
    <contour>
      <point x="196" y="195" type="line"/>
      <point x="243" y="195" type="line"/>
      <point x="254" y="323" type="line"/>
      <point x="375" y="377"/>
      <point x="432" y="438"/>
      <point x="432" y="546" type="curve" smooth="yes"/>
      <point x="432" y="652"/>
      <point x="352" y="724"/>
      <point x="224" y="724" type="curve" smooth="yes"/>
      <point x="84" y="724"/>
      <point x="33" y="650"/>
      <point x="33" y="603" type="curve" smooth="yes"/>
      <point x="33" y="560"/>
      <point x="60" y="544"/>
      <point x="111" y="544" type="curve"/>
      <point x="111" y="622"/>
      <point x="141" y="682"/>
      <point x="225" y="682" type="curve" smooth="yes"/>
      <point x="295" y="682"/>
      <point x="337" y="630"/>
      <point x="337" y="552" type="curve" smooth="yes"/>
      <point x="337" y="456"/>
      <point x="296" y="395"/>
      <point x="185" y="342" type="curve"/>
    </contour>
    <contour>
      <point x="218" y="-7" type="curve" smooth="yes"/>
      <point x="247" y="-7"/>
      <point x="272" y="8"/>
      <point x="272" y="54" type="curve" smooth="yes"/>
      <point x="272" y="100"/>
      <point x="247" y="114"/>
      <point x="218" y="114" type="curve" smooth="yes"/>
      <point x="188" y="114"/>
      <point x="163" y="100"/>
      <point x="163" y="54" type="curve" smooth="yes"/>
      <point x="163" y="8"/>
      <point x="188" y="-7"/>
    </contour>
  </outline>
</glyph>
<glyph name="question.mono" format="2">
  <advance width="600"/>
  <unicode hex="003F"/>
  <outline>
    <contour>
      <point x="230" y="220" type="curve" smooth="yes"/>
      <point x="230" y="202" type="line"/>
      <point x="308" y="202" type="line"/>
      <point x="308" y="211" type="line" smooth="yes"/>
      <point x="308" y="268"/>
      <point x="319" y="292"/>
      <point x="398" y="350" type="curve" smooth="yes"/>
      <point x="475" y="407"/>
      <point x="510" y="454"/>
      <point x="510" y="549" type="curve" smooth="yes"/>
      <point x="510" y="656"/>
      <point x="427" y="724"/>
      <point x="293" y="724" type="curve" smooth="yes"/>
      <point x="204" y="724"/>
      <point x="144" y="701"/>
      <point x="90" y="677" type="curve"/>
      <point x="122" y="602" type="line"/>
      <point x="176" y="627"/>
      <point x="228" y="646"/>
      <point x="298" y="646" type="curve" smooth="yes"/>
      <point x="381" y="646"/>
      <point x="425" y="603"/>
      <point x="425" y="545" type="curve" smooth="yes"/>
      <point x="425" y="472"/>
      <point x="399" y="440"/>
      <point x="331" y="392" type="curve" smooth="yes"/>
      <point x="254" y="337"/>
      <point x="230" y="295"/>
    </contour>
    <contour>
      <point x="273" y="-10" type="curve" smooth="yes"/>
      <point x="307" y="-10"/>
      <point x="335" y="10"/>
      <point x="335" y="58" type="curve" smooth="yes"/>
      <point x="335" y="108"/>
      <point x="307" y="126"/>
      <point x="273" y="126" type="curve" smooth="yes"/>
      <point x="238" y="126"/>
      <point x="211" y="108"/>
      <point x="211" y="58" type="curve" smooth="yes"/>
      <point x="211" y="10"/>
      <point x="238" y="-10"/>
    </contour>
  </outline>
</glyph>
<glyph name="question.orya" format="2">
  <advance width="454"/>
  <unicode hex="003F"/>
  <outline>
    <contour>
      <point x="182" y="201" type="line"/>
      <point x="230" y="201" type="line"/>
      <point x="232" y="301" type="line"/>
      <point x="338" y="347"/>
      <point x="402" y="407"/>
      <point x="402" y="505" type="curve" smooth="yes"/>
      <point x="402" y="606"/>
      <point x="322" y="666"/>
      <point x="210" y="666" type="curve" smooth="yes"/>
      <point x="97" y="666"/>
      <point x="44" y="621"/>
      <point x="44" y="564" type="curve" smooth="yes"/>
      <point x="44" y="527"/>
      <point x="75" y="508"/>
      <point x="118" y="508" type="curve"/>
      <point x="118" y="569"/>
      <point x="144" y="622"/>
      <point x="217" y="622" type="curve" smooth="yes"/>
      <point x="287" y="622"/>
      <point x="316" y="581"/>
      <point x="316" y="520" type="curve" smooth="yes"/>
      <point x="316" y="449"/>
      <point x="284" y="379"/>
      <point x="178" y="336" type="curve"/>
    </contour>
    <component base="period.orya" xOffset="53" yOffset="-6"/>
  </outline>
</glyph>
<glyph name="at.mono" format="2">
  <advance width="600"/>
  <unicode hex="0040"/>
  <outline>
    <contour>
      <point x="324" y="-89" type="curve" smooth="yes"/>
      <point x="396" y="-89"/>
      <point x="448" y="-73"/>
      <point x="496" y="-49" type="curve"/>
      <point x="496" y="16" type="line"/>
      <point x="449" y="-6"/>
      <point x="394" y="-22"/>
      <point x="327" y="-22" type="curve" smooth="yes"/>
      <point x="166" y="-22"/>
      <point x="84" y="100"/>
      <point x="84" y="297" type="curve" smooth="yes"/>
      <point x="84" y="508"/>
      <point x="165" y="648"/>
      <point x="318" y="648" type="curve" smooth="yes"/>
      <point x="437" y="648"/>
      <point x="518" y="543"/>
      <point x="518" y="358" type="curve" smooth="yes"/>
      <point x="518" y="256"/>
      <point x="505" y="171"/>
      <point x="469" y="171" type="curve" smooth="yes"/>
      <point x="451" y="171"/>
      <point x="434" y="188"/>
      <point x="434" y="257" type="curve" smooth="yes"/>
      <point x="434" y="267"/>
      <point x="434" y="283"/>
      <point x="435" y="294" type="curve" smooth="yes"/>
      <point x="446" y="497" type="line"/>
      <point x="421" y="508"/>
      <point x="369" y="520"/>
      <point x="321" y="520" type="curve" smooth="yes"/>
      <point x="215" y="520"/>
      <point x="149" y="427"/>
      <point x="149" y="296" type="curve" smooth="yes"/>
      <point x="149" y="184"/>
      <point x="195" y="108"/>
      <point x="276" y="108" type="curve" smooth="yes"/>
      <point x="332" y="108"/>
      <point x="369" y="147"/>
      <point x="388" y="196" type="curve"/>
      <point x="390" y="196" type="line"/>
      <point x="396" y="150"/>
      <point x="422" y="108"/>
      <point x="467" y="108" type="curve" smooth="yes"/>
      <point x="554" y="108"/>
      <point x="585" y="235"/>
      <point x="585" y="357" type="curve" smooth="yes"/>
      <point x="585" y="578"/>
      <point x="480" y="714"/>
      <point x="319" y="714" type="curve" smooth="yes"/>
      <point x="121" y="714"/>
      <point x="15" y="539"/>
      <point x="15" y="294" type="curve" smooth="yes"/>
      <point x="15" y="61"/>
      <point x="123" y="-89"/>
    </contour>
    <contour>
      <point x="289" y="171" type="curve" smooth="yes"/>
      <point x="252" y="171"/>
      <point x="227" y="207"/>
      <point x="227" y="294" type="curve" smooth="yes"/>
      <point x="227" y="375"/>
      <point x="251" y="457"/>
      <point x="317" y="457" type="curve" smooth="yes"/>
      <point x="336" y="457"/>
      <point x="354" y="452"/>
      <point x="367" y="447" type="curve"/>
      <point x="360" y="323" type="line" smooth="yes"/>
      <point x="355" y="233"/>
      <point x="338" y="171"/>
    </contour>
  </outline>
</glyph>
<glyph name="at.serif" format="2">
  <advance width="921"/>
  <unicode hex="0040"/>
  <outline>
    <contour>
      <point x="432" y="-142" type="curve" smooth="yes"/>
      <point x="555" y="-142"/>
      <point x="653" y="-93"/>
      <point x="719" y="-43" type="curve"/>
      <point x="696" y="-7" type="line"/>
      <point x="638" y="-49"/>
      <point x="551" y="-90"/>
      <point x="442" y="-90" type="curve" smooth="yes"/>
      <point x="281" y="-90"/>
      <point x="144" y="-2"/>
      <point x="144" y="220" type="curve" smooth="yes"/>
      <point x="144" y="494"/>
      <point x="329" y="663"/>
      <point x="524" y="663" type="curve" smooth="yes"/>
      <point x="690" y="663"/>
      <point x="807" y="570"/>
      <point x="807" y="395" type="curve" smooth="yes"/>
      <point x="807" y="226"/>
      <point x="737" y="130"/>
      <point x="678" y="130" type="curve" smooth="yes"/>
      <point x="646" y="130"/>
      <point x="617" y="151"/>
      <point x="617" y="198" type="curve" smooth="yes"/>
      <point x="617" y="225"/>
      <point x="624" y="265"/>
      <point x="624" y="265" type="curve"/>
      <point x="675" y="520" type="line"/>
      <point x="651" y="520" type="line"/>
      <point x="611" y="499" type="line"/>
      <point x="591" y="515"/>
      <point x="560" y="529"/>
      <point x="517" y="529" type="curve" smooth="yes"/>
      <point x="333" y="529"/>
      <point x="262" y="355"/>
      <point x="262" y="248" type="curve" smooth="yes"/>
      <point x="262" y="131"/>
      <point x="333" y="77"/>
      <point x="414" y="77" type="curve" smooth="yes"/>
      <point x="482" y="77"/>
      <point x="521" y="116"/>
      <point x="549" y="168" type="curve"/>
      <point x="554" y="168" type="line"/>
      <point x="573" y="111"/>
      <point x="613" y="77"/>
      <point x="672" y="77" type="curve" smooth="yes"/>
      <point x="764" y="77"/>
      <point x="868" y="199"/>
      <point x="868" y="392" type="curve" smooth="yes"/>
      <point x="868" y="573"/>
      <point x="754" y="714"/>
      <point x="530" y="714" type="curve" smooth="yes"/>
      <point x="257" y="714"/>
      <point x="65" y="501"/>
      <point x="65" y="218" type="curve" smooth="yes"/>
      <point x="65" y="-24"/>
      <point x="218" y="-142"/>
    </contour>
    <contour>
      <point x="431" y="130" type="curve" smooth="yes"/>
      <point x="386" y="130"/>
      <point x="355" y="164"/>
      <point x="355" y="234" type="curve" smooth="yes"/>
      <point x="355" y="319"/>
      <point x="401" y="488"/>
      <point x="521" y="488" type="curve" smooth="yes"/>
      <point x="545" y="488"/>
      <point x="569" y="477"/>
      <point x="577" y="458" type="curve"/>
      <point x="539" y="255" type="line" smooth="yes"/>
      <point x="528" y="194"/>
      <point x="499" y="130"/>
    </contour>
  </outline>
</glyph>
<glyph name="A.mono" format="2">
  <advance width="600"/>
  <unicode hex="0041"/>
  <anchor x="300" y="0" name="bottom"/>
  <anchor x="540" y="10" name="ogonek"/>
  <anchor x="300" y="714" name="top"/>
  <anchor x="580" y="714" name="topright"/>
  <outline>
    <contour>
      <point x="20" y="0" type="line"/>
      <point x="111" y="0" type="line"/>
      <point x="270" y="512" type="line" smooth="yes"/>
      <point x="277" y="534"/>
      <point x="291" y="581"/>
      <point x="299" y="622" type="curve"/>
      <point x="308" y="581"/>
      <point x="322" y="535"/>
      <point x="329" y="512" type="curve" smooth="yes"/>
      <point x="488" y="0" type="line"/>
      <point x="580" y="0" type="line"/>
      <point x="347" y="717" type="line"/>
      <point x="252" y="717" type="line"/>
    </contour>
    <contour>
      <point x="154" y="219" type="line"/>
      <point x="437" y="219" type="line"/>
      <point x="411" y="299" type="line"/>
      <point x="184" y="299" type="line"/>
    </contour>
  </outline>
</glyph>
<glyph name="A.serif" format="2">
  <advance width="705"/>
  <unicode hex="0041"/>
  <anchor x="582" y="0" name="bottom"/>
  <anchor x="353" y="714" name="top"/>
  <anchor x="555" y="714" name="topright"/>
  <outline>
    <contour>
      <point x="0" y="0" type="line"/>
      <point x="244" y="0" type="line"/>
      <point x="244" y="42" type="line"/>
      <point x="221" y="42" type="line" smooth="yes"/>
      <point x="177" y="42"/>
      <point x="155" y="57"/>
      <point x="155" y="91" type="curve" smooth="yes"/>
      <point x="155" y="102"/>
      <point x="158" y="118"/>
      <point x="164" y="134" type="curve" smooth="yes"/>
      <point x="202" y="239" type="line"/>
      <point x="465" y="239" type="line"/>
      <point x="505" y="127" type="line" smooth="yes"/>
      <point x="510" y="112"/>
      <point x="513" y="101"/>
      <point x="513" y="90" type="curve" smooth="yes"/>
      <point x="513" y="57"/>
      <point x="493" y="42"/>
      <point x="453" y="42" type="curve" smooth="yes"/>
      <point x="430" y="42" type="line"/>
      <point x="430" y="0" type="line"/>
      <point x="705" y="0" type="line"/>
      <point x="705" y="42" type="line"/>
      <point x="692" y="42" type="line" smooth="yes"/>
      <point x="653" y="42"/>
      <point x="636" y="53"/>
      <point x="621" y="95" type="curve" smooth="yes"/>
      <point x="395" y="714" type="line"/>
      <point x="317" y="714" type="line"/>
      <point x="95" y="120" type="line" smooth="yes"/>
      <point x="71" y="56"/>
      <point x="58" y="42"/>
      <point x="19" y="42" type="curve" smooth="yes"/>
      <point x="0" y="42" type="line"/>
    </contour>
    <contour>
      <point x="221" y="289" type="line"/>
      <point x="289" y="473" type="line" smooth="yes"/>
      <point x="312" y="535"/>
      <point x="325" y="574"/>
      <point x="335" y="622" type="curve"/>
      <point x="346" y="574"/>
      <point x="364" y="523"/>
      <point x="385" y="464" type="curve" smooth="yes"/>
      <point x="447" y="289" type="line"/>
    </contour>
  </outline>
</glyph>
<glyph name="B.serif" format="2">
  <advance width="654"/>
  <unicode hex="0042"/>
  <anchor x="327" y="0" name="bottom"/>
  <anchor x="327" y="714" name="top"/>
  <anchor x="634" y="714" name="topright"/>
  <outline>
    <contour>
      <point x="38" y="0" type="line"/>
      <point x="336" y="0" type="line" smooth="yes"/>
      <point x="509" y="0"/>
      <point x="593" y="64"/>
      <point x="593" y="193" type="curve" smooth="yes"/>
      <point x="593" y="299"/>
      <point x="530" y="358"/>
      <point x="439" y="374" type="curve"/>
      <point x="439" y="378" type="line"/>
      <point x="510" y="401"/>
      <point x="563" y="446"/>
      <point x="563" y="535" type="curve" smooth="yes"/>
      <point x="563" y="658"/>
      <point x="479" y="714"/>
      <point x="306" y="714" type="curve" smooth="yes"/>
      <point x="38" y="714" type="line"/>
      <point x="38" y="672" type="line"/>
      <point x="51" y="672" type="line" smooth="yes"/>
      <point x="95" y="672"/>
      <point x="133" y="663"/>
      <point x="133" y="604" type="curve" smooth="yes"/>
      <point x="133" y="114" type="line" smooth="yes"/>
      <point x="133" y="51"/>
      <point x="96" y="42"/>
      <point x="51" y="42" type="curve" smooth="yes"/>
      <point x="38" y="42" type="line"/>
    </contour>
    <contour>
      <point x="331" y="50" type="curve" smooth="yes"/>
      <point x="234" y="50" type="line"/>
      <point x="234" y="349" type="line"/>
      <point x="333" y="349" type="line" smooth="yes"/>
      <point x="450" y="349"/>
      <point x="486" y="300"/>
      <point x="486" y="196" type="curve" smooth="yes"/>
      <point x="486" y="89"/>
      <point x="444" y="50"/>
    </contour>
    <contour>
      <point x="303" y="399" type="curve" smooth="yes"/>
      <point x="234" y="399" type="line"/>
      <point x="234" y="664" type="line"/>
      <point x="301" y="664" type="line" smooth="yes"/>
      <point x="414" y="664"/>
      <point x="456" y="633"/>
      <point x="456" y="535" type="curve" smooth="yes"/>
      <point x="456" y="439"/>
      <point x="420" y="399"/>
    </contour>
  </outline>
</glyph>
<glyph name="C.mono" format="2">
  <advance width="600"/>
  <unicode hex="0043"/>
  <anchor x="351" y="0" name="bottom"/>
  <anchor x="359" y="714" name="top"/>
  <anchor x="580" y="714" name="topright"/>
  <outline>
    <contour>
      <point x="365" y="-10" type="curve" smooth="yes"/>
      <point x="419" y="-10"/>
      <point x="465" y="-1"/>
      <point x="519" y="19" type="curve"/>
      <point x="519" y="104" type="line"/>
      <point x="467" y="82"/>
      <point x="412" y="73"/>
      <point x="367" y="73" type="curve" smooth="yes"/>
      <point x="219" y="73"/>
      <point x="158" y="180"/>
      <point x="158" y="357" type="curve" smooth="yes"/>
      <point x="158" y="542"/>
      <point x="233" y="644"/>
      <point x="369" y="644" type="curve" smooth="yes"/>
      <point x="418" y="644"/>
      <point x="475" y="631"/>
      <point x="516" y="609" type="curve"/>
      <point x="550" y="682" type="line"/>
      <point x="499" y="709"/>
      <point x="438" y="724"/>
      <point x="369" y="724" type="curve" smooth="yes"/>
      <point x="175" y="724"/>
      <point x="66" y="583"/>
      <point x="66" y="357" type="curve" smooth="yes"/>
      <point x="66" y="141"/>
      <point x="155" y="-10"/>
    </contour>
  </outline>
</glyph>
<glyph name="C.serif" format="2">
  <advance width="614"/>
  <unicode hex="0043"/>
  <anchor x="357" y="0" name="bottom"/>
  <anchor x="375" y="714" name="top"/>
  <anchor x="594" y="714" name="topright"/>
  <outline>
    <contour>
      <point x="361" y="-10" type="curve" smooth="yes"/>
      <point x="509" y="-10"/>
      <point x="576" y="52"/>
      <point x="576" y="102" type="curve" smooth="yes"/>
      <point x="576" y="122"/>
      <point x="568" y="134"/>
      <point x="557" y="141" type="curve"/>
      <point x="523" y="96"/>
      <point x="473" y="56"/>
      <point x="376" y="56" type="curve" smooth="yes"/>
      <point x="229" y="56"/>
      <point x="168" y="179"/>
      <point x="168" y="358" type="curve" smooth="yes"/>
      <point x="168" y="558"/>
      <point x="225" y="671"/>
      <point x="376" y="671" type="curve" smooth="yes"/>
      <point x="463" y="671"/>
      <point x="493" y="604"/>
      <point x="493" y="542" type="curve"/>
      <point x="542" y="542"/>
      <point x="580" y="569"/>
      <point x="580" y="612" type="curve" smooth="yes"/>
      <point x="580" y="676"/>
      <point x="514" y="724"/>
      <point x="378" y="724" type="curve" smooth="yes"/>
      <point x="167" y="724"/>
      <point x="57" y="574"/>
      <point x="57" y="358" type="curve" smooth="yes"/>
      <point x="57" y="137"/>
      <point x="162" y="-10"/>
    </contour>
  </outline>
</glyph>
<glyph name="D.mono" format="2">
  <advance width="600"/>
  <unicode hex="0044"/>
  <anchor x="264" y="0" name="bottom"/>
  <anchor x="299" y="357" name="center"/>
  <anchor x="277" y="714" name="top"/>
  <anchor x="600" y="714" name="topright"/>
  <outline>
    <contour>
      <point x="70" y="0" type="line"/>
      <point x="223" y="0" type="line" smooth="yes"/>
      <point x="432" y="0"/>
      <point x="555" y="123"/>
      <point x="555" y="364" type="curve" smooth="yes"/>
      <point x="555" y="593"/>
      <point x="432" y="714"/>
      <point x="243" y="714" type="curve" smooth="yes"/>
      <point x="70" y="714" type="line"/>
    </contour>
    <contour>
      <point x="214" y="78" type="curve" smooth="yes"/>
      <point x="160" y="78" type="line"/>
      <point x="160" y="636" type="line"/>
      <point x="233" y="636" type="line" smooth="yes"/>
      <point x="376" y="636"/>
      <point x="463" y="550"/>
      <point x="463" y="361" type="curve" smooth="yes"/>
      <point x="463" y="175"/>
      <point x="384" y="78"/>
    </contour>
  </outline>
</glyph>
<glyph name="E.display" format="2">
  <advance width="523"/>
  <unicode hex="0045"/>
  <anchor x="283" y="0" name="bottom"/>
  <anchor x="287" y="714" name="top"/>
  <anchor x="504" y="714" name="topright"/>
  <outline>
    <contour>
      <point x="467" y="0" type="line"/>
      <point x="467" y="79" type="line"/>
      <point x="180" y="79" type="line"/>
      <point x="180" y="334" type="line"/>
      <point x="450" y="334" type="line"/>
      <point x="450" y="412" type="line"/>
      <point x="180" y="412" type="line"/>
      <point x="180" y="635" type="line"/>
      <point x="467" y="635" type="line"/>
      <point x="467" y="714" type="line"/>
      <point x="91" y="714" type="line"/>
      <point x="91" y="0" type="line"/>
    </contour>
  </outline>
</glyph>
<glyph name="E.mono" format="2">
  <advance width="600"/>
  <unicode hex="0045"/>
  <anchor x="304" y="0" name="bottom"/>
  <anchor x="457" y="10" name="ogonek"/>
  <anchor x="306" y="714" name="top"/>
  <anchor x="20" y="714" name="topleft"/>
  <anchor x="580" y="714" name="topright"/>
  <outline>
    <contour>
      <point x="95" y="0" type="line"/>
      <point x="515" y="0" type="line"/>
      <point x="515" y="80" type="line"/>
      <point x="185" y="80" type="line"/>
      <point x="185" y="333" type="line"/>
      <point x="496" y="333" type="line"/>
      <point x="496" y="413" type="line"/>
      <point x="185" y="413" type="line"/>
      <point x="185" y="634" type="line"/>
      <point x="515" y="634" type="line"/>
      <point x="515" y="714" type="line"/>
      <point x="95" y="714" type="line"/>
    </contour>
  </outline>
</glyph>
<glyph name="E.serif" format="2">
  <advance width="623"/>
  <unicode hex="0045"/>
  <anchor x="312" y="0" name="bottom"/>
  <anchor x="312" y="714" name="top"/>
  <anchor x="603" y="714" name="topright"/>
  <outline>
    <contour>
      <point x="38" y="0" type="line"/>
      <point x="574" y="0" type="line"/>
      <point x="581" y="175" type="line"/>
      <point x="529" y="175" type="line"/>
      <point x="522" y="132" type="line" smooth="yes"/>
      <point x="515" y="88"/>
      <point x="490" y="50"/>
      <point x="427" y="50" type="curve" smooth="yes"/>
      <point x="234" y="50" type="line"/>
      <point x="234" y="349" type="line"/>
      <point x="475" y="349" type="line"/>
      <point x="475" y="398" type="line"/>
      <point x="234" y="398" type="line"/>
      <point x="234" y="664" type="line"/>
      <point x="402" y="664" type="line" smooth="yes"/>
      <point x="462" y="664"/>
      <point x="485" y="626"/>
      <point x="490" y="582" type="curve" smooth="yes"/>
      <point x="495" y="539" type="line"/>
      <point x="547" y="539" type="line"/>
      <point x="542" y="714" type="line"/>
      <point x="38" y="714" type="line"/>
      <point x="38" y="672" type="line"/>
      <point x="51" y="672" type="line" smooth="yes"/>
      <point x="96" y="672"/>
      <point x="133" y="663"/>
      <point x="133" y="600" type="curve" smooth="yes"/>
      <point x="133" y="109" type="line" smooth="yes"/>
      <point x="133" y="50"/>
      <point x="95" y="42"/>
      <point x="51" y="42" type="curve" smooth="yes"/>
      <point x="38" y="42" type="line"/>
    </contour>
  </outline>
</glyph>
<glyph name="F.mono" format="2">
  <advance width="600"/>
  <unicode hex="0046"/>
  <anchor x="317" y="0" name="bottom"/>
  <anchor x="317" y="714" name="top"/>
  <anchor x="580" y="714" name="topright"/>
  <outline>
    <contour>
      <point x="95" y="0" type="line"/>
      <point x="185" y="0" type="line"/>
      <point x="185" y="302" type="line"/>
      <point x="496" y="302" type="line"/>
      <point x="496" y="382" type="line"/>
      <point x="185" y="382" type="line"/>
      <point x="185" y="634" type="line"/>
      <point x="515" y="634" type="line"/>
      <point x="515" y="714" type="line"/>
      <point x="95" y="714" type="line"/>
    </contour>
  </outline>
</glyph>
<glyph name="G.mono" format="2">
  <advance width="600"/>
  <unicode hex="0047"/>
  <anchor x="337" y="0" name="bottom"/>
  <anchor x="322" y="714" name="top"/>
  <anchor x="580" y="714" name="topright"/>
  <outline>
    <contour>
      <point x="340" y="-10" type="curve" smooth="yes"/>
      <point x="415" y="-10"/>
      <point x="481" y="7"/>
      <point x="530" y="27" type="curve"/>
      <point x="530" y="377" type="line"/>
      <point x="313" y="377" type="line"/>
      <point x="313" y="297" type="line"/>
      <point x="443" y="297" type="line"/>
      <point x="443" y="85" type="line"/>
      <point x="417" y="78"/>
      <point x="386" y="70"/>
      <point x="344" y="70" type="curve" smooth="yes"/>
      <point x="189" y="70"/>
      <point x="137" y="190"/>
      <point x="137" y="350" type="curve" smooth="yes"/>
      <point x="137" y="537"/>
      <point x="209" y="643"/>
      <point x="354" y="643" type="curve" smooth="yes"/>
      <point x="411" y="643"/>
      <point x="456" y="628"/>
      <point x="490" y="607" type="curve"/>
      <point x="522" y="682" type="line"/>
      <point x="473" y="709"/>
      <point x="420" y="724"/>
      <point x="352" y="724" type="curve" smooth="yes"/>
      <point x="151" y="724"/>
      <point x="45" y="585"/>
      <point x="45" y="346" type="curve" smooth="yes"/>
      <point x="45" y="114"/>
      <point x="145" y="-10"/>
    </contour>
  </outline>
</glyph>
<glyph name="I.mono" format="2">
  <advance width="600"/>
  <unicode hex="0049"/>
  <anchor x="300" y="0" name="bottom"/>
  <anchor x="367" y="10" name="ogonek"/>
  <anchor x="300" y="714" name="top"/>
  <anchor x="20" y="714" name="topleft"/>
  <anchor x="580" y="714" name="topright"/>
  <outline>
    <contour>
      <point x="110" y="0" type="line"/>
      <point x="490" y="0" type="line"/>
      <point x="490" y="62" type="line"/>
      <point x="344" y="75" type="line"/>
      <point x="344" y="639" type="line"/>
      <point x="490" y="652" type="line"/>
      <point x="490" y="714" type="line"/>
      <point x="110" y="714" type="line"/>
      <point x="110" y="652" type="line"/>
      <point x="254" y="639" type="line"/>
      <point x="254" y="75" type="line"/>
      <point x="110" y="62" type="line"/>
    </contour>
  </outline>
</glyph>
<glyph name="J.mono" format="2">
  <advance width="600"/>
  <unicode hex="004A"/>
  <anchor x="300" y="0" name="bottom"/>
  <anchor x="420" y="714" name="top"/>
  <anchor x="580" y="714" name="topright"/>
  <outline>
    <contour>
      <point x="252" y="-10" type="curve" smooth="yes"/>
      <point x="392" y="-10"/>
      <point x="465" y="72"/>
      <point x="465" y="217" type="curve" smooth="yes"/>
      <point x="465" y="714" type="line"/>
      <point x="375" y="714" type="line"/>
      <point x="375" y="229" type="line" smooth="yes"/>
      <point x="375" y="115"/>
      <point x="324" y="73"/>
      <point x="245" y="73" type="curve" smooth="yes"/>
      <point x="191" y="73"/>
      <point x="131" y="91"/>
      <point x="100" y="104" type="curve"/>
      <point x="100" y="19" type="line"/>
      <point x="137" y="2"/>
      <point x="201" y="-10"/>
    </contour>
  </outline>
</glyph>
<glyph name="J.serif" format="2">
  <advance width="357"/>
  <unicode hex="004A"/>
  <anchor x="109" y="-240" name="bottom"/>
  <anchor x="182" y="714" name="top"/>
  <anchor x="337" y="714" name="topright"/>
  <outline>
    <contour>
      <point x="-11" y="-240" type="line"/>
      <point x="6" y="-240" type="line" smooth="yes"/>
      <point x="134" y="-240"/>
      <point x="234" y="-187"/>
      <point x="234" y="-8" type="curve" smooth="yes"/>
      <point x="234" y="600" type="line"/>
      <point x="234" y="663"/>
      <point x="271" y="672"/>
      <point x="316" y="672" type="curve" smooth="yes"/>
      <point x="329" y="672" type="line"/>
      <point x="329" y="714" type="line"/>
      <point x="38" y="714" type="line"/>
      <point x="38" y="672" type="line"/>
      <point x="51" y="672" type="line" smooth="yes"/>
      <point x="95" y="672"/>
      <point x="133" y="663"/>
      <point x="133" y="604" type="curve" smooth="yes"/>
      <point x="133" y="-9" type="line" smooth="yes"/>
      <point x="133" y="-150"/>
      <point x="84" y="-193"/>
      <point x="-2" y="-193" type="curve" smooth="yes"/>
      <point x="-11" y="-193" type="line"/>
    </contour>
  </outline>
</glyph>
<glyph name="K.mono" format="2">
  <advance width="600"/>
  <unicode hex="004B"/>
  <anchor x="310" y="0" name="bottom"/>
  <anchor x="300" y="714" name="top"/>
  <anchor x="580" y="714" name="topright"/>
  <outline>
    <contour>
      <point x="70" y="0" type="line"/>
      <point x="160" y="0" type="line"/>
      <point x="160" y="237" type="line"/>
      <point x="241" y="330" type="line"/>
      <point x="447" y="0" type="line"/>
      <point x="550" y="0" type="line"/>
      <point x="302" y="391" type="line"/>
      <point x="541" y="714" type="line"/>
      <point x="438" y="714" type="line"/>
      <point x="234" y="441" type="line" smooth="yes"/>
      <point x="206" y="403"/>
      <point x="183" y="366"/>
      <point x="160" y="330" type="curve"/>
      <point x="160" y="714" type="line"/>
      <point x="70" y="714" type="line"/>
    </contour>
  </outline>
</glyph>
<glyph name="K.serif" format="2">
  <advance width="700"/>
  <unicode hex="004B"/>
  <anchor x="399" y="0" name="bottom"/>
  <anchor x="370" y="714" name="top"/>
  <anchor x="680" y="714" name="topright"/>
  <outline>
    <contour>
      <point x="38" y="0" type="line"/>
      <point x="329" y="0" type="line"/>
      <point x="329" y="42" type="line"/>
      <point x="316" y="42" type="line" smooth="yes"/>
      <point x="271" y="42"/>
      <point x="234" y="51"/>
      <point x="234" y="114" type="curve" smooth="yes"/>
      <point x="234" y="253" type="line"/>
      <point x="319" y="337" type="line"/>
      <point x="491" y="90" type="line" smooth="yes"/>
      <point x="541" y="18"/>
      <point x="567" y="0"/>
      <point x="701" y="0" type="curve" smooth="yes"/>
      <point x="712" y="0" type="line"/>
      <point x="712" y="42" type="line"/>
      <point x="710" y="42" type="line" smooth="yes"/>
      <point x="673" y="42"/>
      <point x="638" y="70"/>
      <point x="600" y="122" type="curve" smooth="yes"/>
      <point x="389" y="416" type="line"/>
      <point x="534" y="579" type="line" smooth="yes"/>
      <point x="586" y="637"/>
      <point x="622" y="673"/>
      <point x="668" y="673" type="curve"/>
      <point x="668" y="714" type="line"/>
      <point x="447" y="714" type="line"/>
      <point x="447" y="673" type="line"/>
      <point x="480" y="673"/>
      <point x="496" y="668"/>
      <point x="496" y="651" type="curve" smooth="yes"/>
      <point x="496" y="632"/>
      <point x="484" y="604"/>
      <point x="441" y="555" type="curve" smooth="yes"/>
      <point x="234" y="318" type="line"/>
      <point x="234" y="600" type="line" smooth="yes"/>
      <point x="234" y="663"/>
      <point x="271" y="672"/>
      <point x="316" y="672" type="curve" smooth="yes"/>
      <point x="329" y="672" type="line"/>
      <point x="329" y="714" type="line"/>
      <point x="38" y="714" type="line"/>
      <point x="38" y="672" type="line"/>
      <point x="51" y="672" type="line" smooth="yes"/>
      <point x="95" y="672"/>
      <point x="133" y="663"/>
      <point x="133" y="604" type="curve" smooth="yes"/>
      <point x="133" y="109" type="line" smooth="yes"/>
      <point x="133" y="50"/>
      <point x="95" y="42"/>
      <point x="51" y="42" type="curve" smooth="yes"/>
      <point x="38" y="42" type="line"/>
    </contour>
  </outline>
</glyph>
<glyph name="L.mono" format="2">
  <advance width="600"/>
  <unicode hex="004C"/>
  <anchor x="330" y="0" name="bottom"/>
  <anchor x="300" y="357" name="center"/>
  <anchor x="161" y="714" name="top"/>
  <anchor x="446" y="714" name="topright"/>
  <outline>
    <contour>
      <point x="115" y="0" type="line"/>
      <point x="515" y="0" type="line"/>
      <point x="515" y="83" type="line"/>
      <point x="205" y="83" type="line"/>
      <point x="205" y="714" type="line"/>
      <point x="115" y="714" type="line"/>
    </contour>
  </outline>
</glyph>
<glyph name="L.serif" format="2">
  <advance width="623"/>
  <unicode hex="004C"/>
  <anchor x="312" y="0" name="bottom"/>
  <anchor x="184" y="357" name="center"/>
  <anchor x="180" y="714" name="top"/>
  <anchor x="603" y="714" name="topright"/>
  <outline>
    <contour>
      <point x="38" y="0" type="line"/>
      <point x="574" y="0" type="line"/>
      <point x="581" y="215" type="line"/>
      <point x="529" y="215" type="line"/>
      <point x="519" y="140" type="line" smooth="yes"/>
      <point x="513" y="97"/>
      <point x="491" y="50"/>
      <point x="431" y="50" type="curve" smooth="yes"/>
      <point x="234" y="50" type="line"/>
      <point x="234" y="604" type="line" smooth="yes"/>
      <point x="234" y="663"/>
      <point x="272" y="672"/>
      <point x="316" y="672" type="curve" smooth="yes"/>
      <point x="329" y="672" type="line"/>
      <point x="329" y="714" type="line"/>
      <point x="38" y="714" type="line"/>
      <point x="38" y="672" type="line"/>
      <point x="51" y="672" type="line" smooth="yes"/>
      <point x="96" y="672"/>
      <point x="133" y="663"/>
      <point x="133" y="600" type="curve" smooth="yes"/>
      <point x="133" y="114" type="line"/>
      <point x="133" y="51"/>
      <point x="96" y="42"/>
      <point x="51" y="42" type="curve" smooth="yes"/>
      <point x="38" y="42" type="line"/>
    </contour>
  </outline>
</glyph>
<glyph name="M.mono" format="2">
  <advance width="600"/>
  <unicode hex="004D"/>
  <anchor x="300" y="0" name="bottom"/>
  <anchor x="305" y="714" name="top"/>
  <anchor x="600" y="714" name="topright"/>
  <outline>
    <contour>
      <point x="50" y="0" type="line"/>
      <point x="135" y="0" type="line"/>
      <point x="135" y="387" type="line" smooth="yes"/>
      <point x="135" y="463"/>
      <point x="130" y="566"/>
      <point x="121" y="625" type="curve"/>
      <point x="125" y="625" type="line"/>
      <point x="258" y="178" type="line"/>
      <point x="341" y="178" type="line"/>
      <point x="473" y="624" type="line"/>
      <point x="477" y="624" type="line"/>
      <point x="468" y="553"/>
      <point x="465" y="465"/>
      <point x="465" y="387" type="curve" smooth="yes"/>
      <point x="465" y="0" type="line"/>
      <point x="550" y="0" type="line"/>
      <point x="550" y="714" type="line"/>
      <point x="420" y="714" type="line"/>
      <point x="301" y="295" type="line"/>
      <point x="298" y="295" type="line"/>
      <point x="179" y="714" type="line"/>
      <point x="50" y="714" type="line"/>
    </contour>
  </outline>
</glyph>
<glyph name="M.serif" format="2">
  <advance width="938"/>
  <unicode hex="004D"/>
  <anchor x="462" y="0" name="bottom"/>
  <anchor x="469" y="714" name="top"/>
  <anchor x="918" y="714" name="topright"/>
  <outline>
    <contour>
      <point x="38" y="0" type="line"/>
      <point x="269" y="0" type="line"/>
      <point x="269" y="42" type="line"/>
      <point x="266" y="42" type="line" smooth="yes"/>
      <point x="221" y="42"/>
      <point x="194" y="51"/>
      <point x="194" y="114" type="curve" smooth="yes"/>
      <point x="194" y="637" type="line"/>
      <point x="426" y="0" type="line"/>
      <point x="480" y="0" type="line"/>
      <point x="709" y="639" type="line"/>
      <point x="709" y="105" type="line"/>
      <point x="706" y="50"/>
      <point x="680" y="42"/>
      <point x="637" y="42" type="curve" smooth="yes"/>
      <point x="634" y="42" type="line"/>
      <point x="634" y="0" type="line"/>
      <point x="900" y="0" type="line"/>
      <point x="900" y="42" type="line"/>
      <point x="887" y="42" type="line" smooth="yes"/>
      <point x="842" y="42"/>
      <point x="805" y="51"/>
      <point x="805" y="114" type="curve" smooth="yes"/>
      <point x="805" y="600" type="line"/>
      <point x="805" y="663"/>
      <point x="842" y="672"/>
      <point x="887" y="672" type="curve" smooth="yes"/>
      <point x="900" y="672" type="line"/>
      <point x="900" y="714" type="line"/>
      <point x="678" y="714" type="line"/>
      <point x="473" y="142" type="line"/>
      <point x="266" y="714" type="line"/>
      <point x="38" y="714" type="line"/>
      <point x="38" y="672" type="line"/>
      <point x="51" y="672" type="line" smooth="yes"/>
      <point x="95" y="672"/>
      <point x="133" y="663"/>
      <point x="133" y="604" type="curve" smooth="yes"/>
      <point x="133" y="109" type="line" smooth="yes"/>
      <point x="133" y="50"/>
      <point x="95" y="42"/>
      <point x="51" y="42" type="curve" smooth="yes"/>
      <point x="38" y="42" type="line"/>
    </contour>
  </outline>
</glyph>
<glyph name="N.mono" format="2">
  <advance width="600"/>
  <unicode hex="004E"/>
  <anchor x="300" y="0" name="bottom"/>
  <anchor x="305" y="714" name="top"/>
  <anchor x="600" y="714" name="topright"/>
  <outline>
    <contour>
      <point x="70" y="0" type="line"/>
      <point x="157" y="0" type="line"/>
      <point x="157" y="398" type="line" smooth="yes"/>
      <point x="157" y="473"/>
      <point x="150" y="547"/>
      <point x="144" y="622" type="curve"/>
      <point x="148" y="622" type="line"/>
      <point x="421" y="0" type="line"/>
      <point x="530" y="0" type="line"/>
      <point x="530" y="714" type="line"/>
      <point x="443" y="714" type="line"/>
      <point x="443" y="336" type="line" smooth="yes"/>
      <point x="443" y="255"/>
      <point x="445" y="197"/>
      <point x="452" y="119" type="curve"/>
      <point x="449" y="119" type="line"/>
      <point x="189" y="714" type="line"/>
      <point x="70" y="714" type="line"/>
    </contour>
  </outline>
</glyph>
<glyph name="N.serif" format="2">
  <advance width="763"/>
  <unicode hex="004E"/>
  <anchor x="382" y="0" name="bottom"/>
  <anchor x="382" y="714" name="top"/>
  <anchor x="743" y="714" name="topright"/>
  <outline>
    <contour>
      <point x="38" y="0" type="line"/>
      <point x="289" y="0" type="line"/>
      <point x="289" y="42" type="line"/>
      <point x="276" y="42" type="line" smooth="yes"/>
      <point x="231" y="42"/>
      <point x="194" y="51"/>
      <point x="194" y="114" type="curve" smooth="yes"/>
      <point x="194" y="576" type="line"/>
      <point x="569" y="0" type="line"/>
      <point x="640" y="0" type="line"/>
      <point x="640" y="600" type="line" smooth="yes"/>
      <point x="640" y="663"/>
      <point x="677" y="672"/>
      <point x="722" y="672" type="curve" smooth="yes"/>
      <point x="735" y="672" type="line"/>
      <point x="735" y="714" type="line"/>
      <point x="484" y="714" type="line"/>
      <point x="484" y="672" type="line"/>
      <point x="497" y="672" type="line" smooth="yes"/>
      <point x="541" y="672"/>
      <point x="579" y="663"/>
      <point x="579" y="604" type="curve"/>
      <point x="579" y="161" type="line"/>
      <point x="221" y="714" type="line"/>
      <point x="38" y="714" type="line"/>
      <point x="38" y="672" type="line"/>
      <point x="51" y="672" type="line" smooth="yes"/>
      <point x="95" y="672"/>
      <point x="133" y="663"/>
      <point x="133" y="604" type="curve"/>
      <point x="133" y="114" type="line" smooth="yes"/>
      <point x="133" y="51"/>
      <point x="96" y="42"/>
      <point x="51" y="42" type="curve" smooth="yes"/>
      <point x="38" y="42" type="line"/>
    </contour>
  </outline>
</glyph>
<glyph name="O.mono" format="2">
  <advance width="600"/>
  <unicode hex="004F"/>
  <anchor x="300" y="0" name="bottom"/>
  <anchor x="300" y="357" name="center"/>
  <anchor x="299" y="10" name="ogonek"/>
  <anchor x="300" y="714" name="top"/>
  <anchor x="20" y="714" name="topleft"/>
  <anchor x="600" y="714" name="topright"/>
  <outline>
    <contour>
      <point x="299" y="-10" type="curve" smooth="yes"/>
      <point x="477" y="-10"/>
      <point x="555" y="137"/>
      <point x="555" y="359" type="curve" smooth="yes"/>
      <point x="555" y="579"/>
      <point x="478" y="726"/>
      <point x="300" y="726" type="curve" smooth="yes"/>
      <point x="122" y="726"/>
      <point x="45" y="576"/>
      <point x="45" y="357" type="curve" smooth="yes"/>
      <point x="45" y="138"/>
      <point x="121" y="-10"/>
    </contour>
    <contour>
      <point x="301" y="70" type="curve" smooth="yes"/>
      <point x="181" y="70"/>
      <point x="137" y="178"/>
      <point x="137" y="358" type="curve" smooth="yes"/>
      <point x="137" y="537"/>
      <point x="181" y="646"/>
      <point x="302" y="646" type="curve" smooth="yes"/>
      <point x="421" y="646"/>
      <point x="463" y="539"/>
      <point x="463" y="358" type="curve" smooth="yes"/>
      <point x="463" y="178"/>
      <point x="421" y="70"/>
    </contour>
  </outline>
</glyph>
<glyph name="O.serif" format="2">
  <advance width="742"/>
  <unicode hex="004F"/>
  <anchor x="371" y="0" name="bottom"/>
  <anchor x="371" y="357" name="center"/>
  <anchor x="371" y="714" name="top"/>
  <anchor x="722" y="714" name="topright"/>
  <outline>
    <contour>
      <point x="371" y="-10" type="curve" smooth="yes"/>
      <point x="573" y="-10"/>
      <point x="685" y="137"/>
      <point x="685" y="358" type="curve" smooth="yes"/>
      <point x="685" y="580"/>
      <point x="573" y="725"/>
      <point x="372" y="725" type="curve" smooth="yes"/>
      <point x="159" y="725"/>
      <point x="56" y="580"/>
      <point x="56" y="359" type="curve" smooth="yes"/>
      <point x="56" y="137"/>
      <point x="159" y="-10"/>
    </contour>
    <contour>
      <point x="371" y="44" type="curve" smooth="yes"/>
      <point x="223" y="44"/>
      <point x="167" y="160"/>
      <point x="167" y="358" type="curve" smooth="yes"/>
      <point x="167" y="556"/>
      <point x="223" y="671"/>
      <point x="372" y="671" type="curve" smooth="yes"/>
      <point x="520" y="671"/>
      <point x="574" y="556"/>
      <point x="574" y="358" type="curve" smooth="yes"/>
      <point x="574" y="160"/>
      <point x="520" y="44"/>
    </contour>
  </outline>
</glyph>
<glyph name="P.mono" format="2">
  <advance width="600"/>
  <unicode hex="0050"/>
  <anchor x="300" y="0" name="bottom"/>
  <anchor x="300" y="714" name="top"/>
  <anchor x="600" y="714" name="topright"/>
  <outline>
    <contour>
      <point x="95" y="0" type="line"/>
      <point x="185" y="0" type="line"/>
      <point x="185" y="275" type="line"/>
      <point x="286" y="275" type="line" smooth="yes"/>
      <point x="480" y="275"/>
      <point x="545" y="386"/>
      <point x="545" y="505" type="curve" smooth="yes"/>
      <point x="545" y="638"/>
      <point x="470" y="714"/>
      <point x="299" y="714" type="curve" smooth="yes"/>
      <point x="95" y="714" type="line"/>
    </contour>
    <contour>
      <point x="276" y="353" type="curve" smooth="yes"/>
      <point x="185" y="353" type="line"/>
      <point x="185" y="636" type="line"/>
      <point x="291" y="636" type="line" smooth="yes"/>
      <point x="401" y="636"/>
      <point x="453" y="598"/>
      <point x="453" y="500" type="curve" smooth="yes"/>
      <point x="453" y="395"/>
      <point x="394" y="353"/>
    </contour>
  </outline>
</glyph>
<glyph name="P.serif" format="2">
  <advance width="604"/>
  <unicode hex="0050"/>
  <anchor x="184" y="0" name="bottom"/>
  <anchor x="302" y="714" name="top"/>
  <anchor x="589" y="714" name="topright"/>
  <outline>
    <contour>
      <point x="38" y="0" type="line"/>
      <point x="349" y="0" type="line"/>
      <point x="349" y="42" type="line"/>
      <point x="316" y="42" type="line" smooth="yes"/>
      <point x="272" y="42"/>
      <point x="234" y="50"/>
      <point x="234" y="109" type="curve" smooth="yes"/>
      <point x="234" y="278" type="line"/>
      <point x="297" y="278" type="line" smooth="yes"/>
      <point x="495" y="278"/>
      <point x="565" y="386"/>
      <point x="565" y="505" type="curve" smooth="yes"/>
      <point x="565" y="635"/>
      <point x="487" y="714"/>
      <point x="319" y="714" type="curve"/>
      <point x="38" y="714" type="line"/>
      <point x="38" y="672" type="line"/>
      <point x="51" y="672" type="line" smooth="yes"/>
      <point x="95" y="672"/>
      <point x="133" y="663"/>
      <point x="133" y="604" type="curve" smooth="yes"/>
      <point x="133" y="114" type="line"/>
      <point x="133" y="51"/>
      <point x="96" y="42"/>
      <point x="51" y="42" type="curve" smooth="yes"/>
      <point x="38" y="42" type="line"/>
    </contour>
    <contour>
      <point x="287" y="325" type="curve" smooth="yes"/>
      <point x="234" y="325" type="line"/>
      <point x="234" y="666" type="line"/>
      <point x="302" y="666" type="line" smooth="yes"/>
      <point x="415" y="666"/>
      <point x="457" y="613"/>
      <point x="457" y="501" type="curve" smooth="yes"/>
      <point x="457" y="374"/>
      <point x="408" y="325"/>
    </contour>
  </outline>
</glyph>
<glyph name="Q.serif" format="2">
  <advance width="742"/>
  <unicode hex="0051"/>
  <anchor x="371" y="-230" name="bottom"/>
  <anchor x="371" y="714" name="top"/>
  <anchor x="722" y="714" name="topright"/>
  <outline>
    <contour>
      <point x="559" y="-230" type="curve" smooth="yes"/>
      <point x="602" y="-230" type="line"/>
      <point x="602" y="-183" type="line"/>
      <point x="586" y="-183" type="line" smooth="yes"/>
      <point x="505" y="-183"/>
      <point x="449" y="-141"/>
      <point x="438" y="-4" type="curve"/>
      <point x="597" y="25"/>
      <point x="685" y="163"/>
      <point x="685" y="358" type="curve" smooth="yes"/>
      <point x="685" y="580"/>
      <point x="573" y="725"/>
      <point x="372" y="725" type="curve" smooth="yes"/>
      <point x="159" y="725"/>
      <point x="56" y="580"/>
      <point x="56" y="359" type="curve" smooth="yes"/>
      <point x="56" y="152"/>
      <point x="145" y="11"/>
      <point x="328" y="-8" type="curve"/>
      <point x="341" y="-179"/>
      <point x="453" y="-230"/>
    </contour>
    <contour>
      <point x="371" y="44" type="curve" smooth="yes"/>
      <point x="223" y="44"/>
      <point x="167" y="160"/>
      <point x="167" y="358" type="curve" smooth="yes"/>
      <point x="167" y="556"/>
      <point x="223" y="671"/>
      <point x="372" y="671" type="curve" smooth="yes"/>
      <point x="520" y="671"/>
      <point x="574" y="556"/>
      <point x="574" y="358" type="curve" smooth="yes"/>
      <point x="574" y="160"/>
      <point x="520" y="44"/>
    </contour>
  </outline>
</glyph>
<glyph name="R.mono" format="2">
  <advance width="600"/>
  <unicode hex="0052"/>
  <anchor x="330" y="0" name="bottom"/>
  <anchor x="300" y="714" name="top"/>
  <anchor x="580" y="714" name="topright"/>
  <outline>
    <contour>
      <point x="95" y="0" type="line"/>
      <point x="185" y="0" type="line"/>
      <point x="185" y="292" type="line"/>
      <point x="297" y="292" type="line"/>
      <point x="469" y="0" type="line"/>
      <point x="569" y="0" type="line"/>
      <point x="378" y="318" type="line"/>
      <point x="453" y="346"/>
      <point x="513" y="401"/>
      <point x="513" y="514" type="curve" smooth="yes"/>
      <point x="513" y="647"/>
      <point x="430" y="714"/>
      <point x="262" y="714" type="curve" smooth="yes"/>
      <point x="95" y="714" type="line"/>
    </contour>
    <contour>
      <point x="259" y="370" type="curve" smooth="yes"/>
      <point x="185" y="370" type="line"/>
      <point x="185" y="636" type="line"/>
      <point x="257" y="636" type="line" smooth="yes"/>
      <point x="371" y="636"/>
      <point x="420" y="600"/>
      <point x="420" y="506" type="curve" smooth="yes"/>
      <point x="420" y="417"/>
      <point x="376" y="370"/>
    </contour>
  </outline>
</glyph>
<glyph name="R.serif" format="2">
  <advance width="656"/>
  <unicode hex="0052"/>
  <anchor x="368" y="0" name="bottom"/>
  <anchor x="328" y="714" name="top"/>
  <anchor x="636" y="714" name="topright"/>
  <outline>
    <contour>
      <point x="38" y="0" type="line"/>
      <point x="329" y="0" type="line"/>
      <point x="329" y="42" type="line"/>
      <point x="316" y="42" type="line" smooth="yes"/>
      <point x="272" y="42"/>
      <point x="234" y="50"/>
      <point x="234" y="109" type="curve" smooth="yes"/>
      <point x="234" y="315" type="line"/>
      <point x="317" y="315" type="line"/>
      <point x="452" y="90" type="line" smooth="yes"/>
      <point x="497" y="14"/>
      <point x="523" y="0"/>
      <point x="648" y="0" type="curve" smooth="yes"/>
      <point x="662" y="0" type="line"/>
      <point x="662" y="42" type="line"/>
      <point x="659" y="42" type="line" smooth="yes"/>
      <point x="617" y="42"/>
      <point x="588" y="69"/>
      <point x="554" y="122" type="curve"/>
      <point x="417" y="339" type="line"/>
      <point x="488" y="363"/>
      <point x="564" y="414"/>
      <point x="564" y="521" type="curve" smooth="yes"/>
      <point x="564" y="650"/>
      <point x="480" y="714"/>
      <point x="307" y="714" type="curve" smooth="yes"/>
      <point x="38" y="714" type="line"/>
      <point x="38" y="672" type="line"/>
      <point x="51" y="672" type="line" smooth="yes"/>
      <point x="95" y="672"/>
      <point x="133" y="663"/>
      <point x="133" y="604" type="curve" smooth="yes"/>
      <point x="133" y="109" type="line" smooth="yes"/>
      <point x="133" y="50"/>
      <point x="95" y="42"/>
      <point x="51" y="42" type="curve" smooth="yes"/>
      <point x="38" y="42" type="line"/>
    </contour>
    <contour>
      <point x="304" y="362" type="curve" smooth="yes"/>
      <point x="234" y="362" type="line"/>
      <point x="234" y="666" type="line"/>
      <point x="302" y="666" type="line" smooth="yes"/>
      <point x="415" y="666"/>
      <point x="457" y="625"/>
      <point x="457" y="518" type="curve" smooth="yes"/>
      <point x="457" y="414"/>
      <point x="421" y="362"/>
    </contour>
  </outline>
</glyph>
<glyph name="S.mono" format="2">
  <advance width="600"/>
  <unicode hex="0053"/>
  <anchor x="300" y="0" name="bottom"/>
  <anchor x="319" y="714" name="top"/>
  <anchor x="580" y="714" name="topright"/>
  <outline>
    <contour>
      <point x="281" y="-10" type="curve" smooth="yes"/>
      <point x="445" y="-10"/>
      <point x="529" y="64"/>
      <point x="529" y="191" type="curve" smooth="yes"/>
      <point x="529" y="314"/>
      <point x="450" y="349"/>
      <point x="336" y="398" type="curve" smooth="yes"/>
      <point x="235" y="441"/>
      <point x="193" y="461"/>
      <point x="193" y="532" type="curve" smooth="yes"/>
      <point x="193" y="614"/>
      <point x="249" y="644"/>
      <point x="327" y="644" type="curve" smooth="yes"/>
      <point x="381" y="644"/>
      <point x="441" y="630"/>
      <point x="486" y="609" type="curve"/>
      <point x="515" y="684" type="line"/>
      <point x="467" y="707"/>
      <point x="401" y="724"/>
      <point x="329" y="724" type="curve" smooth="yes"/>
      <point x="187" y="724"/>
      <point x="101" y="657"/>
      <point x="101" y="534" type="curve" smooth="yes"/>
      <point x="101" y="409"/>
      <point x="189" y="368"/>
      <point x="274" y="331" type="curve" smooth="yes"/>
      <point x="402" y="275"/>
      <point x="437" y="259"/>
      <point x="437" y="192" type="curve" smooth="yes"/>
      <point x="437" y="110"/>
      <point x="385" y="67"/>
      <point x="283" y="67" type="curve" smooth="yes"/>
      <point x="210" y="67"/>
      <point x="134" y="89"/>
      <point x="85" y="110" type="curve"/>
      <point x="85" y="27" type="line"/>
      <point x="127" y="6"/>
      <point x="205" y="-10"/>
    </contour>
  </outline>
</glyph>
<glyph name="S.serif" format="2">
  <advance width="544"/>
  <unicode hex="0053"/>
  <anchor x="272" y="0" name="bottom"/>
  <anchor x="272" y="714" name="top"/>
  <anchor x="524" y="714" name="topright"/>
  <outline>
    <contour>
      <point x="247" y="-10" type="curve" smooth="yes"/>
      <point x="397" y="-10"/>
      <point x="493" y="64"/>
      <point x="493" y="191" type="curve" smooth="yes"/>
      <point x="493" y="294"/>
      <point x="424" y="350"/>
      <point x="307" y="398" type="curve" smooth="yes"/>
      <point x="191" y="445"/>
      <point x="152" y="480"/>
      <point x="152" y="560" type="curve" smooth="yes"/>
      <point x="152" y="629"/>
      <point x="197" y="674"/>
      <point x="274" y="674" type="curve"/>
      <point x="358" y="674"/>
      <point x="386" y="609"/>
      <point x="386" y="547" type="curve"/>
      <point x="434" y="547"/>
      <point x="465" y="569"/>
      <point x="465" y="612" type="curve" smooth="yes"/>
      <point x="465" y="670"/>
      <point x="397" y="724"/>
      <point x="278" y="724" type="curve" smooth="yes"/>
      <point x="152" y="724"/>
      <point x="59" y="657"/>
      <point x="59" y="543" type="curve" smooth="yes"/>
      <point x="59" y="433"/>
      <point x="119" y="372"/>
      <point x="243" y="321" type="curve" smooth="yes"/>
      <point x="360" y="273"/>
      <point x="398" y="238"/>
      <point x="398" y="165" type="curve" smooth="yes"/>
      <point x="398" y="84"/>
      <point x="344" y="39"/>
      <point x="255" y="39" type="curve" smooth="yes"/>
      <point x="161" y="39"/>
      <point x="124" y="115"/>
      <point x="120" y="198" type="curve"/>
      <point x="74" y="198"/>
      <point x="48" y="171"/>
      <point x="48" y="131" type="curve" smooth="yes"/>
      <point x="48" y="47"/>
      <point x="116" y="-10"/>
    </contour>
  </outline>
</glyph>
<glyph name="U.mono" format="2">
  <advance width="600"/>
  <unicode hex="0055"/>
  <anchor x="300" y="0" name="bottom"/>
  <anchor x="540" y="10" name="ogonek"/>
  <anchor x="300" y="714" name="top"/>
  <anchor x="580" y="714" name="topright"/>
  <outline>
    <contour>
      <point x="298" y="-10" type="curve" smooth="yes"/>
      <point x="470" y="-10"/>
      <point x="530" y="103"/>
      <point x="530" y="252" type="curve" smooth="yes"/>
      <point x="530" y="714" type="line"/>
      <point x="440" y="714" type="line"/>
      <point x="440" y="260" type="line" smooth="yes"/>
      <point x="440" y="153"/>
      <point x="414" y="70"/>
      <point x="300" y="70" type="curve" smooth="yes"/>
      <point x="192" y="70"/>
      <point x="160" y="146"/>
      <point x="160" y="259" type="curve" smooth="yes"/>
      <point x="160" y="714" type="line"/>
      <point x="70" y="714" type="line"/>
      <point x="70" y="254" type="line" smooth="yes"/>
      <point x="70" y="94"/>
      <point x="133" y="-10"/>
    </contour>
  </outline>
</glyph>
<glyph name="U.serif" format="2">
  <advance width="717"/>
  <unicode hex="0055"/>
  <anchor x="359" y="0" name="bottom"/>
  <anchor x="379" y="714" name="top"/>
  <anchor x="703" y="714" name="topright"/>
  <outline>
    <contour>
      <point x="362" y="-10" type="curve" smooth="yes"/>
      <point x="521" y="-10"/>
      <point x="607" y="71"/>
      <point x="607" y="204" type="curve" smooth="yes"/>
      <point x="607" y="600" type="line" smooth="yes"/>
      <point x="607" y="663"/>
      <point x="644" y="672"/>
      <point x="689" y="672" type="curve" smooth="yes"/>
      <point x="702" y="672" type="line"/>
      <point x="702" y="714" type="line"/>
      <point x="451" y="714" type="line"/>
      <point x="451" y="672" type="line"/>
      <point x="464" y="672" type="line" smooth="yes"/>
      <point x="508" y="672"/>
      <point x="546" y="663"/>
      <point x="546" y="604" type="curve" smooth="yes"/>
      <point x="546" y="206" type="line" smooth="yes"/>
      <point x="546" y="115"/>
      <point x="493" y="50"/>
      <point x="378" y="50" type="curve" smooth="yes"/>
      <point x="281" y="50"/>
      <point x="211" y="94"/>
      <point x="211" y="210" type="curve" smooth="yes"/>
      <point x="211" y="600" type="line"/>
      <point x="211" y="663"/>
      <point x="248" y="672"/>
      <point x="293" y="672" type="curve" smooth="yes"/>
      <point x="306" y="672" type="line"/>
      <point x="306" y="714" type="line"/>
      <point x="15" y="714" type="line"/>
      <point x="15" y="672" type="line"/>
      <point x="28" y="672" type="line" smooth="yes"/>
      <point x="72" y="672"/>
      <point x="110" y="663"/>
      <point x="110" y="604" type="curve" smooth="yes"/>
      <point x="110" y="216" type="line" smooth="yes"/>
      <point x="110" y="53"/>
      <point x="204" y="-10"/>
    </contour>
  </outline>
</glyph>
<glyph name="V.mono" format="2">
  <advance width="600"/>
  <unicode hex="0056"/>
  <anchor x="300" y="0" name="bottom"/>
  <anchor x="300" y="714" name="top"/>
  <anchor x="580" y="714" name="topright"/>
  <outline>
    <contour>
      <point x="255" y="0" type="line"/>
      <point x="349" y="0" type="line"/>
      <point x="575" y="714" type="line"/>
      <point x="480" y="714" type="line"/>
      <point x="346" y="253" type="line" smooth="yes"/>
      <point x="328" y="192"/>
      <point x="314" y="134"/>
      <point x="304" y="87" type="curve"/>
      <point x="301" y="87" type="line"/>
      <point x="290" y="135"/>
      <point x="276" y="191"/>
      <point x="258" y="250" type="curve" smooth="yes"/>
      <point x="119" y="714" type="line"/>
      <point x="25" y="714" type="line"/>
    </contour>
  </outline>
</glyph>
<glyph name="V.serif" format="2">
  <advance width="675"/>
  <unicode hex="0056"/>
  <anchor x="338" y="0" name="bottom"/>
  <anchor x="348" y="714" name="top"/>
  <anchor x="655" y="714" name="topright"/>
  <outline>
    <contour>
      <point x="84" y="619" type="curve"/>
      <point x="300" y="0" type="line"/>
      <point x="373" y="0" type="line"/>
      <point x="580" y="594" type="line"/>
      <point x="602" y="659"/>
      <point x="617" y="672"/>
      <point x="656" y="672" type="curve" smooth="yes"/>
      <point x="675" y="672" type="line"/>
      <point x="675" y="714" type="line"/>
      <point x="431" y="714" type="line"/>
      <point x="431" y="672" type="line"/>
      <point x="454" y="672" type="line" smooth="yes"/>
      <point x="498" y="672"/>
      <point x="520" y="657"/>
      <point x="520" y="623" type="curve" smooth="yes"/>
      <point x="520" y="612"/>
      <point x="516" y="596"/>
      <point x="511" y="580" type="curve" smooth="yes"/>
      <point x="401" y="262" type="line" smooth="yes"/>
      <point x="379" y="200"/>
      <point x="365" y="146"/>
      <point x="355" y="98" type="curve"/>
      <point x="344" y="146"/>
      <point x="330" y="203"/>
      <point x="310" y="262" type="curve" smooth="yes"/>
      <point x="200" y="587" type="line"/>
      <point x="195" y="602"/>
      <point x="192" y="613"/>
      <point x="192" y="624" type="curve" smooth="yes"/>
      <point x="192" y="657"/>
      <point x="212" y="672"/>
      <point x="252" y="672" type="curve" smooth="yes"/>
      <point x="275" y="672" type="line"/>
      <point x="275" y="714" type="line"/>
      <point x="0" y="714" type="line"/>
      <point x="0" y="672" type="line"/>
      <point x="13" y="672" type="line" smooth="yes"/>
      <point x="52" y="672"/>
      <point x="70" y="661"/>
    </contour>
  </outline>
</glyph>
<glyph name="W.mono" format="2">
  <advance width="600"/>
  <unicode hex="0057"/>
  <anchor x="300" y="0" name="bottom"/>
  <anchor x="300" y="714" name="top"/>
  <anchor x="580" y="714" name="topright"/>
  <outline>
    <contour>
      <point x="105" y="0" type="line"/>
      <point x="201" y="0" type="line"/>
      <point x="277" y="328" type="line" smooth="yes"/>
      <point x="291" y="389"/>
      <point x="298" y="434"/>
      <point x="300" y="450" type="curve"/>
      <point x="302" y="450" type="line"/>
      <point x="305" y="434"/>
      <point x="313" y="388"/>
      <point x="327" y="328" type="curve" smooth="yes"/>
      <point x="406" y="0" type="line"/>
      <point x="503" y="0" type="line"/>
      <point x="575" y="714" type="line"/>
      <point x="492" y="714" type="line"/>
      <point x="483" y="610"/>
      <point x="474" y="506"/>
      <point x="465" y="402" type="curve" smooth="yes"/>
      <point x="454" y="273"/>
      <point x="448" y="146"/>
      <point x="446" y="98" type="curve"/>
      <point x="444" y="98" type="line"/>
      <point x="437" y="144"/>
      <point x="417" y="233"/>
      <point x="400" y="302" type="curve" smooth="yes"/>
      <point x="344" y="536" type="line"/>
      <point x="258" y="536" type="line"/>
      <point x="204" y="304" type="line" smooth="yes"/>
      <point x="190" y="242"/>
      <point x="169" y="144"/>
      <point x="161" y="98" type="curve"/>
      <point x="159" y="98" type="line"/>
      <point x="158" y="146"/>
      <point x="148" y="297"/>
      <point x="138" y="399" type="curve" smooth="yes"/>
      <point x="128" y="504"/>
      <point x="118" y="609"/>
      <point x="108" y="714" type="curve"/>
      <point x="25" y="714" type="line"/>
    </contour>
  </outline>
</glyph>
<glyph name="W.serif" format="2">
  <advance width="1047"/>
  <unicode hex="0057"/>
  <anchor x="524" y="0" name="bottom"/>
  <anchor x="540" y="714" name="top"/>
  <anchor x="1027" y="714" name="topright"/>
  <outline>
    <contour>
      <point x="93" y="619" type="curve" smooth="yes"/>
      <point x="276" y="0" type="line"/>
      <point x="368" y="0" type="line"/>
      <point x="521" y="560" type="line"/>
      <point x="684" y="0" type="line"/>
      <point x="774" y="0" type="line"/>
      <point x="943" y="594" type="line" smooth="yes"/>
      <point x="962" y="660"/>
      <point x="980" y="672"/>
      <point x="1019" y="672" type="curve" smooth="yes"/>
      <point x="1038" y="672" type="line"/>
      <point x="1038" y="714" type="line"/>
      <point x="794" y="714" type="line"/>
      <point x="794" y="672" type="line"/>
      <point x="817" y="672" type="line" smooth="yes"/>
      <point x="861" y="672"/>
      <point x="883" y="657"/>
      <point x="883" y="623" type="curve" smooth="yes"/>
      <point x="883" y="612"/>
      <point x="876" y="587"/>
      <point x="872" y="571" type="curve" smooth="yes"/>
      <point x="784" y="262" type="line" smooth="yes"/>
      <point x="766" y="198"/>
      <point x="754" y="146"/>
      <point x="744" y="98" type="curve"/>
      <point x="735" y="144"/>
      <point x="720" y="208"/>
      <point x="701" y="274" type="curve" smooth="yes"/>
      <point x="576" y="707" type="line"/>
      <point x="504" y="707" type="line"/>
      <point x="385" y="278" type="line" smooth="yes"/>
      <point x="367" y="214"/>
      <point x="354" y="150"/>
      <point x="344" y="98" type="curve"/>
      <point x="333" y="146"/>
      <point x="318" y="207"/>
      <point x="301" y="267" type="curve" smooth="yes"/>
      <point x="209" y="587" type="line" smooth="yes"/>
      <point x="205" y="602"/>
      <point x="201" y="613"/>
      <point x="201" y="624" type="curve" smooth="yes"/>
      <point x="201" y="657"/>
      <point x="221" y="672"/>
      <point x="261" y="672" type="curve" smooth="yes"/>
      <point x="284" y="672" type="line"/>
      <point x="284" y="714" type="line"/>
      <point x="9" y="714" type="line"/>
      <point x="9" y="672" type="line"/>
      <point x="22" y="672" type="line" smooth="yes"/>
      <point x="61" y="672"/>
      <point x="80" y="661"/>
    </contour>
  </outline>
</glyph>
<glyph name="X.mono" format="2">
  <advance width="600"/>
  <unicode hex="0058"/>
  <anchor x="300" y="0" name="bottom"/>
  <anchor x="300" y="714" name="top"/>
  <anchor x="580" y="714" name="topright"/>
  <outline>
    <contour>
      <point x="35" y="0" type="line"/>
      <point x="131" y="0" type="line"/>
      <point x="301" y="296" type="line"/>
      <point x="472" y="0" type="line"/>
      <point x="565" y="0" type="line"/>
      <point x="343" y="368" type="line"/>
      <point x="550" y="714" type="line"/>
      <point x="455" y="714" type="line"/>
      <point x="300" y="441" type="line"/>
      <point x="147" y="714" type="line"/>
      <point x="50" y="714" type="line"/>
      <point x="258" y="369" type="line"/>
    </contour>
  </outline>
</glyph>
<glyph name="Y.mono" format="2">
  <advance width="600"/>
  <unicode hex="0059"/>
  <anchor x="300" y="0" name="bottom"/>
  <anchor x="300" y="714" name="top"/>
  <anchor x="20" y="714" name="topleft"/>
  <anchor x="580" y="714" name="topright"/>
  <outline>
    <contour>
      <point x="257" y="0" type="line"/>
      <point x="343" y="0" type="line"/>
      <point x="343" y="278" type="line"/>
      <point x="565" y="714" type="line"/>
      <point x="469" y="714" type="line"/>
      <point x="301" y="353" type="line"/>
      <point x="134" y="714" type="line"/>
      <point x="35" y="714" type="line"/>
      <point x="257" y="278" type="line"/>
    </contour>
  </outline>
</glyph>
<glyph name="Y.serif" format="2">
  <advance width="625"/>
  <unicode hex="0059"/>
  <anchor x="313" y="0" name="bottom"/>
  <anchor x="313" y="714" name="top"/>
  <anchor x="605" y="714" name="topright"/>
  <outline>
    <contour>
      <point x="159" y="0" type="line"/>
      <point x="470" y="0" type="line"/>
      <point x="470" y="42" type="line"/>
      <point x="447" y="42" type="line" smooth="yes"/>
      <point x="402" y="42"/>
      <point x="365" y="51"/>
      <point x="365" y="114" type="curve" smooth="yes"/>
      <point x="365" y="298" type="line"/>
      <point x="533" y="594" type="line" smooth="yes"/>
      <point x="567" y="654"/>
      <point x="588" y="672"/>
      <point x="616" y="672" type="curve" smooth="yes"/>
      <point x="628" y="672" type="line"/>
      <point x="628" y="714" type="line"/>
      <point x="384" y="714" type="line"/>
      <point x="384" y="672" type="line"/>
      <point x="413" y="672" type="line" smooth="yes"/>
      <point x="451" y="672"/>
      <point x="473" y="657"/>
      <point x="473" y="628" type="curve" smooth="yes"/>
      <point x="473" y="612"/>
      <point x="468" y="591"/>
      <point x="455" y="568" type="curve" smooth="yes"/>
      <point x="391" y="453" type="line" smooth="yes"/>
      <point x="368" y="411"/>
      <point x="343" y="367"/>
      <point x="331" y="339" type="curve"/>
      <point x="320" y="370"/>
      <point x="304" y="412"/>
      <point x="281" y="453" type="curve" smooth="yes"/>
      <point x="207" y="587" type="line" smooth="yes"/>
      <point x="199" y="601"/>
      <point x="189" y="621"/>
      <point x="189" y="640" type="curve" smooth="yes"/>
      <point x="189" y="657"/>
      <point x="197" y="672"/>
      <point x="233" y="672" type="curve" smooth="yes"/>
      <point x="270" y="672" type="line"/>
      <point x="270" y="714" type="line"/>
      <point x="-5" y="714" type="line"/>
      <point x="-5" y="672" type="line"/>
      <point x="8" y="672" type="line" smooth="yes"/>
      <point x="42" y="672"/>
      <point x="57" y="657"/>
      <point x="79" y="619" type="curve" smooth="yes"/>
      <point x="264" y="298" type="line"/>
      <point x="264" y="109" type="line" smooth="yes"/>
      <point x="264" y="50"/>
      <point x="226" y="42"/>
      <point x="182" y="42" type="curve" smooth="yes"/>
      <point x="159" y="42" type="line"/>
    </contour>
  </outline>
</glyph>
<glyph name="Z.mono" format="2">
  <advance width="600"/>
  <unicode hex="005A"/>
  <anchor x="312" y="0" name="bottom"/>
  <anchor x="312" y="714" name="top"/>
  <anchor x="580" y="714" name="topright"/>
  <outline>
    <contour>
      <point x="95" y="0" type="line"/>
      <point x="505" y="0" type="line"/>
      <point x="505" y="80" type="line"/>
      <point x="192" y="80" type="line"/>
      <point x="505" y="643" type="line"/>
      <point x="505" y="714" type="line"/>
      <point x="115" y="714" type="line"/>
      <point x="115" y="636" type="line"/>
      <point x="412" y="636" type="line"/>
      <point x="95" y="71" type="line"/>
    </contour>
  </outline>
</glyph>
<glyph name="bracketleft.guru" format="2">
  <advance width="356"/>
  <unicode hex="005B"/>
  <outline>
    <contour>
      <point x="100" y="-128" type="line"/>
      <point x="319" y="-128" type="line"/>
      <point x="319" y="-92" type="line"/>
      <point x="260" y="-92" type="line" smooth="yes"/>
      <point x="212" y="-92"/>
      <point x="193" y="-81"/>
      <point x="193" y="-10" type="curve" smooth="yes"/>
      <point x="193" y="642" type="line" smooth="yes"/>
      <point x="193" y="713"/>
      <point x="212" y="724"/>
      <point x="260" y="724" type="curve" smooth="yes"/>
      <point x="319" y="724" type="line"/>
      <point x="319" y="760" type="line"/>
      <point x="100" y="760" type="line"/>
    </contour>
  </outline>
</glyph>
<glyph name="bracketleft.mono" format="2">
  <advance width="600"/>
  <unicode hex="005B"/>
  <outline>
    <contour>
      <point x="240" y="-158" type="line"/>
      <point x="465" y="-158" type="line"/>
      <point x="465" y="-86" type="line"/>
      <point x="326" y="-86" type="line"/>
      <point x="326" y="642" type="line"/>
      <point x="465" y="642" type="line"/>
      <point x="465" y="714" type="line"/>
      <point x="240" y="714" type="line"/>
    </contour>
  </outline>
</glyph>
<glyph name="bracketleft.orya" format="2">
  <advance width="389"/>
  <unicode hex="005B"/>
  <outline>
    <contour>
      <point x="180" y="728" type="curve"/>
      <point x="303" y="740" type="line"/>
      <point x="303" y="777" type="line"/>
      <point x="108" y="777" type="line"/>
      <point x="111" y="663"/>
      <point x="111" y="547"/>
      <point x="111" y="433" type="curve" smooth="yes"/>
      <point x="111" y="172" type="line" smooth="yes"/>
      <point x="111" y="55"/>
      <point x="111" y="-61"/>
      <point x="108" y="-173" type="curve"/>
      <point x="303" y="-173" type="line"/>
      <point x="303" y="-136" type="line"/>
      <point x="181" y="-124" type="line"/>
      <point x="178" y="-25"/>
      <point x="178" y="74"/>
      <point x="178" y="172" type="curve" smooth="yes"/>
      <point x="178" y="433" type="line" smooth="yes"/>
      <point x="178" y="532"/>
      <point x="178" y="631"/>
    </contour>
  </outline>
</glyph>
<glyph name="backslash.guru" format="2">
  <advance width="288"/>
  <unicode hex="005C"/>
  <outline>
    <contour>
      <point x="238" y="-121" type="line"/>
      <point x="288" y="-121" type="line"/>
      <point x="50" y="760" type="line"/>
      <point x="0" y="760" type="line"/>
    </contour>
  </outline>
</glyph>
<glyph name="backslash.orya" format="2">
  <advance width="424"/>
  <unicode hex="005C"/>
  <outline>
    <contour>
      <point x="293" y="-174" type="line"/>
      <point x="350" y="-174" type="line"/>
      <point x="58" y="772" type="line"/>
      <point x="3" y="772" type="line"/>
    </contour>
  </outline>
</glyph>
<glyph name="bracketright.guru" format="2">
  <advance width="356"/>
  <unicode hex="005D"/>
  <outline>
    <contour>
      <point x="37" y="-128" type="line"/>
      <point x="256" y="-128" type="line"/>
      <point x="256" y="760" type="line"/>
      <point x="37" y="760" type="line"/>
      <point x="37" y="724" type="line"/>
      <point x="97" y="724" type="line" smooth="yes"/>
      <point x="145" y="724"/>
      <point x="163" y="713"/>
      <point x="163" y="642" type="curve" smooth="yes"/>
      <point x="163" y="-10" type="line" smooth="yes"/>
      <point x="163" y="-81"/>
      <point x="145" y="-92"/>
      <point x="97" y="-92" type="curve" smooth="yes"/>
      <point x="37" y="-92" type="line"/>
    </contour>
  </outline>
</glyph>
<glyph name="asciicircum.guru" format="2">
  <advance width="563"/>
  <unicode hex="005E"/>
  <outline>
    <contour>
      <point x="49" y="259" type="line"/>
      <point x="102" y="259" type="line"/>
      <point x="280" y="644" type="line"/>
      <point x="460" y="259" type="line"/>
      <point x="513" y="259" type="line"/>
      <point x="297" y="714" type="line"/>
      <point x="263" y="714" type="line"/>
    </contour>
  </outline>
</glyph>
<glyph name="asciicircum.mono" format="2">
  <advance width="600"/>
  <unicode hex="005E"/>
  <outline>
    <contour>
      <point x="50" y="267" type="line"/>
      <point x="128" y="267" type="line"/>
      <point x="290" y="626" type="line"/>
      <point x="472" y="267" type="line"/>
      <point x="550" y="267" type="line"/>
      <point x="314" y="719" type="line"/>
      <point x="264" y="719" type="line"/>
    </contour>
  </outline>
</glyph>
<glyph name="asciicircum.orya" format="2">
  <advance width="572"/>
  <unicode hex="005E"/>
  <outline>
    <contour>
      <point x="40" y="273" type="line"/>
      <point x="118" y="273" type="line"/>
      <point x="289" y="632" type="line"/>
      <point x="453" y="273" type="line"/>
      <point x="532" y="273" type="line"/>
      <point x="313" y="724" type="line"/>
      <point x="264" y="724" type="line"/>
    </contour>
  </outline>
</glyph>
<glyph name="underscore.mono" format="2">
  <advance width="600"/>
  <unicode hex="005F"/>
  <outline>
    <contour>
      <point x="0" y="-154" type="line"/>
      <point x="600" y="-154" type="line"/>
      <point x="600" y="-74" type="line"/>
      <point x="0" y="-74" type="line"/>
    </contour>
  </outline>
</glyph>
<glyph name="underscore.orya" format="2">
  <advance width="411"/>
  <unicode hex="005F"/>
  <outline>
    <contour>
      <point x="-1.953" y="-158.203" type="line"/>
      <point x="413.086" y="-158.203" type="line"/>
      <point x="413" y="-101" type="line"/>
      <point x="-2" y="-101" type="line"/>
    </contour>
  </outline>
</glyph>
<glyph name="grave.mono" format="2">
  <advance width="600"/>
  <unicode hex="0060"/>
  <outline>
    <contour>
      <point x="331" y="606" type="curve"/>
      <point x="390" y="606" type="line"/>
      <point x="390" y="618" type="line"/>
      <point x="359" y="655"/>
      <point x="316" y="721"/>
      <point x="294" y="766" type="curve"/>
      <point x="189" y="766" type="line"/>
      <point x="189" y="756" type="line"/>
      <point x="212" y="719"/>
      <point x="285" y="642"/>
    </contour>
  </outline>
</glyph>
<glyph name="grave.serif" format="2">
  <advance width="274"/>
  <unicode hex="0060"/>
  <outline>
    <contour>
      <point x="196" y="606" type="curve"/>
      <point x="234" y="606" type="line"/>
      <point x="234" y="619" type="line"/>
      <point x="205" y="657"/>
      <point x="168" y="721"/>
      <point x="147" y="766" type="curve"/>
      <point x="40" y="766" type="line"/>
      <point x="40" y="756" type="line"/>
      <point x="65" y="721"/>
      <point x="143" y="642"/>
    </contour>
  </outline>
</glyph>
<glyph name="a.mono" format="2">
  <advance width="600"/>
  <unicode hex="0061"/>
  <anchor x="300" y="0" name="bottom"/>
  <anchor x="540" y="10" name="ogonek"/>
  <anchor x="305" y="536" name="top"/>
  <anchor x="580" y="536" name="topright"/>
  <outline>
    <contour>
      <point x="246" y="-10" type="curve" smooth="yes"/>
      <point x="324" y="-10"/>
      <point x="380" y="18"/>
      <point x="424" y="74" type="curve"/>
      <point x="428" y="74" type="line"/>
      <point x="438" y="0" type="line"/>
      <point x="510" y="0" type="line"/>
      <point x="510" y="359" type="line" smooth="yes"/>
      <point x="510" y="487"/>
      <point x="434" y="546"/>
      <point x="300" y="546" type="curve" smooth="yes"/>
      <point x="219" y="546"/>
      <point x="158" y="524"/>
      <point x="108" y="499" type="curve"/>
      <point x="139" y="431" type="line"/>
      <point x="185" y="458"/>
      <point x="237" y="473"/>
      <point x="295" y="473" type="curve" smooth="yes"/>
      <point x="376" y="473"/>
      <point x="428" y="444"/>
      <point x="428" y="348" type="curve" smooth="yes"/>
      <point x="428" y="326" type="line"/>
      <point x="313" y="323" type="line" smooth="yes"/>
      <point x="156" y="319"/>
      <point x="70" y="263"/>
      <point x="70" y="147" type="curve" smooth="yes"/>
      <point x="70" y="42"/>
      <point x="141" y="-10"/>
    </contour>
    <contour>
      <point x="261" y="63" type="curve" smooth="yes"/>
      <point x="197" y="63"/>
      <point x="155" y="88"/>
      <point x="155" y="150" type="curve" smooth="yes"/>
      <point x="155" y="216"/>
      <point x="204" y="255"/>
      <point x="332" y="259" type="curve" smooth="yes"/>
      <point x="428" y="262" type="line"/>
      <point x="428" y="214" type="line" smooth="yes"/>
      <point x="428" y="111"/>
      <point x="350" y="63"/>
    </contour>
  </outline>
</glyph>
<glyph name="a.serif" format="2">
  <advance width="563"/>
  <unicode hex="0061"/>
  <anchor x="438" y="0" name="bottom"/>
  <anchor x="282" y="536" name="top"/>
  <anchor x="543" y="536" name="topright"/>
  <outline>
    <contour>
      <point x="205" y="-10" type="curve" smooth="yes"/>
      <point x="288" y="-10"/>
      <point x="319" y="30"/>
      <point x="361" y="86" type="curve"/>
      <point x="369" y="86" type="line"/>
      <point x="385" y="0" type="line"/>
      <point x="520" y="0" type="line"/>
      <point x="520" y="42" type="line"/>
      <point x="517" y="42" type="line" smooth="yes"/>
      <point x="472" y="42"/>
      <point x="455" y="58"/>
      <point x="455" y="114" type="curve" smooth="yes"/>
      <point x="455" y="373" type="line" smooth="yes"/>
      <point x="455" y="500"/>
      <point x="394" y="546"/>
      <point x="272" y="546" type="curve" smooth="yes"/>
      <point x="173" y="546"/>
      <point x="92" y="519"/>
      <point x="92" y="450" type="curve" smooth="yes"/>
      <point x="92" y="404"/>
      <point x="121" y="387"/>
      <point x="177" y="387" type="curve"/>
      <point x="177" y="450"/>
      <point x="191" y="496"/>
      <point x="268" y="496" type="curve" smooth="yes"/>
      <point x="350" y="496"/>
      <point x="361" y="445"/>
      <point x="361" y="373" type="curve" smooth="yes"/>
      <point x="361" y="313" type="line"/>
      <point x="278" y="310" type="line" smooth="yes"/>
      <point x="125" y="305"/>
      <point x="50" y="256"/>
      <point x="50" y="150" type="curve" smooth="yes"/>
      <point x="50" y="41"/>
      <point x="116" y="-10"/>
    </contour>
    <contour>
      <point x="228" y="52" type="curve" smooth="yes"/>
      <point x="173" y="52"/>
      <point x="147" y="83"/>
      <point x="147" y="145" type="curve" smooth="yes"/>
      <point x="147" y="223"/>
      <point x="184" y="264"/>
      <point x="297" y="269" type="curve" smooth="yes"/>
      <point x="361" y="272" type="line"/>
      <point x="361" y="191" type="line"/>
      <point x="361" y="106"/>
      <point x="309" y="52"/>
    </contour>
  </outline>
</glyph>
<glyph name="c.mono" format="2">
  <advance width="600"/>
  <unicode hex="0063"/>
  <anchor x="332" y="0" name="bottom"/>
  <anchor x="328" y="536" name="top"/>
  <anchor x="580" y="536" name="topright"/>
  <outline>
    <contour>
      <point x="338" y="-10" type="curve" smooth="yes"/>
      <point x="395" y="-10"/>
      <point x="459" y="1"/>
      <point x="499" y="20" type="curve"/>
      <point x="499" y="99" type="line"/>
      <point x="460" y="82"/>
      <point x="407" y="67"/>
      <point x="348" y="67" type="curve" smooth="yes"/>
      <point x="235" y="67"/>
      <point x="177" y="123"/>
      <point x="177" y="266" type="curve" smooth="yes"/>
      <point x="177" y="401"/>
      <point x="228" y="468"/>
      <point x="351" y="468" type="curve" smooth="yes"/>
      <point x="398" y="468"/>
      <point x="435" y="458"/>
      <point x="478" y="436" type="curve"/>
      <point x="505" y="509" type="line"/>
      <point x="459" y="533"/>
      <point x="410" y="546"/>
      <point x="347" y="546" type="curve" smooth="yes"/>
      <point x="194" y="546"/>
      <point x="85" y="470"/>
      <point x="85" y="264" type="curve" smooth="yes"/>
      <point x="85" y="71"/>
      <point x="181" y="-10"/>
    </contour>
  </outline>
</glyph>
<glyph name="c.serif" format="2">
  <advance width="492"/>
  <unicode hex="0063"/>
  <anchor x="266" y="0" name="bottom"/>
  <anchor x="279" y="536" name="top"/>
  <anchor x="472" y="536" name="topright"/>
  <outline>
    <contour>
      <point x="283" y="-10" type="curve" smooth="yes"/>
      <point x="396" y="-10"/>
      <point x="453" y="40"/>
      <point x="453" y="86" type="curve" smooth="yes"/>
      <point x="453" y="104"/>
      <point x="446" y="117"/>
      <point x="436" y="125" type="curve"/>
      <point x="413" y="84"/>
      <point x="365" y="55"/>
      <point x="303" y="55" type="curve" smooth="yes"/>
      <point x="196" y="55"/>
      <point x="152" y="124"/>
      <point x="152" y="266" type="curve" smooth="yes"/>
      <point x="152" y="445"/>
      <point x="201" y="496"/>
      <point x="278" y="496" type="curve" smooth="yes"/>
      <point x="345" y="496"/>
      <point x="363" y="444"/>
      <point x="363" y="381" type="curve"/>
      <point x="422" y="381"/>
      <point x="452" y="398"/>
      <point x="452" y="444" type="curve" smooth="yes"/>
      <point x="452" y="513"/>
      <point x="361" y="546"/>
      <point x="278" y="546" type="curve" smooth="yes"/>
      <point x="151" y="546"/>
      <point x="55" y="479"/>
      <point x="55" y="265" type="curve" smooth="yes"/>
      <point x="55" y="69"/>
      <point x="150" y="-10"/>
    </contour>
  </outline>
</glyph>
<glyph name="d.mono" format="2">
  <advance width="600"/>
  <unicode hex="0064"/>
  <anchor x="300" y="0" name="bottom"/>
  <anchor x="300" y="268" name="center"/>
  <anchor x="300" y="760" name="top"/>
  <anchor x="580" y="760" name="topright"/>
  <outline>
    <contour>
      <point x="274" y="-10" type="curve" smooth="yes"/>
      <point x="355" y="-10"/>
      <point x="402" y="24"/>
      <point x="432" y="72" type="curve"/>
      <point x="436" y="72" type="line"/>
      <point x="446" y="0" type="line"/>
      <point x="520" y="0" type="line"/>
      <point x="520" y="760" type="line"/>
      <point x="431" y="760" type="line"/>
      <point x="431" y="547" type="line" smooth="yes"/>
      <point x="431" y="521"/>
      <point x="434" y="487"/>
      <point x="437" y="468" type="curve"/>
      <point x="431" y="468" type="line"/>
      <point x="406" y="513"/>
      <point x="358" y="546"/>
      <point x="284" y="546" type="curve" smooth="yes"/>
      <point x="131" y="546"/>
      <point x="55" y="449"/>
      <point x="55" y="271" type="curve" smooth="yes"/>
      <point x="55" y="81"/>
      <point x="142" y="-10"/>
    </contour>
    <contour>
      <point x="291" y="63" type="curve" smooth="yes"/>
      <point x="193" y="63"/>
      <point x="147" y="130"/>
      <point x="147" y="262" type="curve" smooth="yes"/>
      <point x="147" y="405"/>
      <point x="200" y="473"/>
      <point x="294" y="473" type="curve" smooth="yes"/>
      <point x="396" y="473"/>
      <point x="431" y="384"/>
      <point x="431" y="267" type="curve" smooth="yes"/>
      <point x="431" y="247" type="line" smooth="yes"/>
      <point x="431" y="134"/>
      <point x="386" y="63"/>
    </contour>
  </outline>
</glyph>
<glyph name="d.serif" format="2">
  <advance width="614"/>
  <unicode hex="0064"/>
  <anchor x="307" y="0" name="bottom"/>
  <anchor x="307" y="268" name="center"/>
  <anchor x="447" y="760" name="top"/>
  <anchor x="574" y="760" name="topright"/>
  <outline>
    <contour>
      <point x="259" y="-10" type="curve" smooth="yes"/>
      <point x="337" y="-10"/>
      <point x="382" y="29"/>
      <point x="412" y="90" type="curve"/>
      <point x="416" y="90" type="line"/>
      <point x="427" y="0" type="line"/>
      <point x="596" y="0" type="line"/>
      <point x="596" y="42" type="line"/>
      <point x="588" y="42" type="line" smooth="yes"/>
      <point x="544" y="42"/>
      <point x="506" y="51"/>
      <point x="506" y="110" type="curve"/>
      <point x="506" y="760" type="line"/>
      <point x="322" y="760" type="line"/>
      <point x="322" y="718" type="line"/>
      <point x="330" y="718" type="line" smooth="yes"/>
      <point x="374" y="718"/>
      <point x="412" y="709"/>
      <point x="412" y="650" type="curve" smooth="yes"/>
      <point x="412" y="568" type="line"/>
      <point x="412" y="536"/>
      <point x="414" y="491"/>
      <point x="418" y="458" type="curve"/>
      <point x="412" y="458" type="line"/>
      <point x="383" y="510"/>
      <point x="336" y="546"/>
      <point x="259" y="546" type="curve" smooth="yes"/>
      <point x="127" y="546"/>
      <point x="55" y="460"/>
      <point x="55" y="267" type="curve" smooth="yes"/>
      <point x="55" y="75"/>
      <point x="127" y="-10"/>
    </contour>
    <contour>
      <point x="276" y="54" type="curve" smooth="yes"/>
      <point x="187" y="54"/>
      <point x="152" y="124"/>
      <point x="152" y="266" type="curve" smooth="yes"/>
      <point x="152" y="406"/>
      <point x="187" y="482"/>
      <point x="275" y="482" type="curve" smooth="yes"/>
      <point x="380" y="482"/>
      <point x="412" y="406"/>
      <point x="412" y="267" type="curve" smooth="yes"/>
      <point x="412" y="123"/>
      <point x="380" y="54"/>
    </contour>
  </outline>
</glyph>
<glyph name="e.mono" format="2">
  <advance width="600"/>
  <unicode hex="0065"/>
  <anchor x="310" y="0" name="bottom"/>
  <anchor x="306" y="10" name="ogonek"/>
  <anchor x="304" y="536" name="top"/>
  <anchor x="580" y="536" name="topright"/>
  <outline>
    <contour>
      <point x="337" y="-10" type="curve" smooth="yes"/>
      <point x="392" y="-10"/>
      <point x="455" y="1"/>
      <point x="516" y="28" type="curve"/>
      <point x="516" y="108" type="line"/>
      <point x="458" y="81"/>
      <point x="401" y="64"/>
      <point x="343" y="64" type="curve" smooth="yes"/>
      <point x="231" y="64"/>
      <point x="155" y="111"/>
      <point x="151" y="251" type="curve"/>
      <point x="540" y="251" type="line"/>
      <point x="540" y="292" type="line" smooth="yes"/>
      <point x="540" y="449"/>
      <point x="454" y="546"/>
      <point x="314" y="546" type="curve" smooth="yes"/>
      <point x="162" y="546"/>
      <point x="60" y="441"/>
      <point x="60" y="266" type="curve" smooth="yes"/>
      <point x="60" y="88"/>
      <point x="165" y="-10"/>
    </contour>
    <contour>
      <point x="450" y="323" type="curve"/>
      <point x="153" y="323" type="line"/>
      <point x="167" y="415"/>
      <point x="224" y="473"/>
      <point x="314" y="473" type="curve" smooth="yes"/>
      <point x="399" y="473"/>
      <point x="446" y="416"/>
    </contour>
  </outline>
</glyph>
<glyph name="e.serif" format="2">
  <advance width="535"/>
  <unicode hex="0065"/>
  <anchor x="278" y="0" name="bottom"/>
  <anchor x="278" y="536" name="top"/>
  <anchor x="515" y="536" name="topright"/>
  <outline>
    <contour>
      <point x="287" y="-10" type="curve" smooth="yes"/>
      <point x="406" y="-10"/>
      <point x="463" y="49"/>
      <point x="463" y="89" type="curve" smooth="yes"/>
      <point x="463" y="106"/>
      <point x="453" y="119"/>
      <point x="444" y="123" type="curve"/>
      <point x="420" y="87"/>
      <point x="370" y="53"/>
      <point x="301" y="53" type="curve" smooth="yes"/>
      <point x="205" y="53"/>
      <point x="155" y="115"/>
      <point x="152" y="261" type="curve"/>
      <point x="485" y="261" type="line"/>
      <point x="485" y="307" type="line" smooth="yes"/>
      <point x="485" y="465"/>
      <point x="406" y="546"/>
      <point x="277" y="546" type="curve" smooth="yes"/>
      <point x="135" y="546"/>
      <point x="55" y="451"/>
      <point x="55" y="264" type="curve" smooth="yes"/>
      <point x="55" y="91"/>
      <point x="142" y="-10"/>
    </contour>
    <contour>
      <point x="384" y="315" type="curve"/>
      <point x="154" y="315" type="line"/>
      <point x="161" y="430"/>
      <point x="201" y="492"/>
      <point x="275" y="492" type="curve" smooth="yes"/>
      <point x="355" y="492"/>
      <point x="384" y="421"/>
    </contour>
  </outline>
</glyph>
